<svg width="158" height="53" viewBox="0 0 158 53" fill="none" xmlns="http://www.w3.org/2000/svg">
<path d="M64.8374 34.063L60.0296 23.0623C59.3964 21.6114 60.4583 19.9824 62.0477 19.9824H62.3774C63.281 19.9824 64.0922 20.5364 64.4219 21.374L68.4054 31.4381H67.3634L71.4721 21.3542C71.8085 20.5232 72.6131 19.9824 73.51 19.9824C75.0994 19.9824 76.1678 21.618 75.5215 23.0755L70.6477 34.0828C70.1399 35.2303 68.9989 35.969 67.7459 35.969C66.4862 35.969 65.3386 35.2237 64.8374 34.063Z" fill="black"/>
<path d="M83.8158 36.3053C82.5957 36.3053 81.5339 36.081 80.6172 35.6392C79.7005 35.1907 78.9882 34.584 78.4606 33.8123C77.9396 33.0407 77.6758 32.1504 77.6758 31.1545C77.6758 29.9806 77.9792 29.0572 78.5859 28.3779C79.1927 27.6986 80.1819 27.2172 81.5405 26.9072C82.8991 26.6039 84.7128 26.4522 86.9749 26.4522H88.7028V28.9979H87.0079C86.1835 28.9979 85.4712 29.0309 84.8843 29.0968C84.2973 29.1628 83.8158 29.2749 83.4465 29.4398C83.0772 29.6046 82.8068 29.8091 82.6485 30.0597C82.4836 30.3103 82.4045 30.6071 82.4045 30.9566C82.4045 31.5436 82.6155 32.0316 83.0376 32.4273C83.4597 32.8165 84.0665 33.0143 84.8513 33.0143C85.4844 33.0143 86.045 32.8758 86.5462 32.5922C87.0475 32.3086 87.4366 31.9195 87.7202 31.4183C88.0037 30.9171 88.1422 30.3169 88.1422 29.6244V25.9048C88.1422 24.9485 87.9246 24.2692 87.4893 23.8669C87.054 23.4646 86.3022 23.2601 85.2404 23.2601C84.3896 23.2601 83.4861 23.392 82.5166 23.6492C82.1077 23.7614 81.6988 23.8999 81.2965 24.0647C80.3666 24.4407 79.3114 24.0318 78.9289 23.1018C78.5529 22.1917 78.9948 21.1563 79.8983 20.7672C80.05 20.7012 80.2017 20.6419 80.36 20.5759C81.1514 20.2725 82.0022 20.0351 82.9057 19.8768C83.8092 19.712 84.6534 19.6328 85.4382 19.6328C87.1134 19.6328 88.4984 19.8768 89.5998 20.3649C90.7012 20.8529 91.5123 21.6113 92.0466 22.6336C92.5808 23.6558 92.8446 24.9485 92.8446 26.5181V33.6804C92.8446 34.9533 91.8157 35.9821 90.5429 35.9821C89.27 35.9821 88.2412 34.9533 88.2412 33.6804V32.7835H88.472C88.3401 33.5024 88.0631 34.1223 87.641 34.6433C87.2189 35.1643 86.6847 35.5732 86.045 35.87C85.4053 36.1668 84.66 36.3119 83.8092 36.3119L83.8158 36.3053Z" fill="black"/>
<path d="M96.6257 33.5124V22.3996C96.6257 21.0674 97.7073 19.9858 99.0395 19.9858C100.372 19.9858 101.453 21.0674 101.453 22.3996V22.9866H101.097C101.401 22.2875 101.796 21.6939 102.291 21.1927C102.779 20.6915 103.373 20.3089 104.072 20.0319C104.771 19.7615 105.529 19.623 106.354 19.623C107.593 19.623 108.629 19.9198 109.453 20.5068C110.278 21.0938 110.865 21.9841 111.214 23.1844H110.759C111.234 22.0962 111.979 21.2323 112.975 20.5925C113.978 19.9528 115.105 19.6296 116.372 19.6296C117.638 19.6296 118.601 19.8671 119.405 20.3485C120.21 20.83 120.81 21.5752 121.199 22.5843C121.588 23.5933 121.786 24.8662 121.786 26.383V33.5124C121.786 34.871 120.685 35.9789 119.32 35.9789C117.961 35.9789 116.853 34.8776 116.853 33.5124V26.5479C116.853 25.4597 116.688 24.6683 116.365 24.1803C116.035 23.6922 115.448 23.4482 114.604 23.4482C114.017 23.4482 113.503 23.5867 113.054 23.8703C112.606 24.1539 112.263 24.576 112.025 25.1432C111.788 25.7103 111.669 26.3962 111.669 27.2008V33.5124C111.669 34.871 110.568 35.9789 109.203 35.9789C107.844 35.9789 106.736 34.8776 106.736 33.5124V26.5479C106.736 25.4597 106.565 24.6683 106.215 24.1803C105.866 23.6922 105.298 23.4482 104.52 23.4482C103.913 23.4482 103.386 23.5867 102.937 23.8703C102.489 24.1539 102.146 24.576 101.908 25.1432C101.671 25.7103 101.552 26.3962 101.552 27.2008V33.5124C101.552 34.871 100.451 35.9789 99.0857 35.9789C97.7271 35.9789 96.6191 34.8776 96.6191 33.5124H96.6257Z" fill="black"/>
<path d="M133.281 36.2987C131.56 36.2987 130.069 35.9623 128.809 35.2896C127.55 34.6169 126.56 33.654 125.855 32.401C125.149 31.1479 124.793 29.664 124.793 27.9493C124.793 26.2345 125.149 24.777 125.855 23.5305C126.56 22.2775 127.543 21.3146 128.809 20.6419C130.069 19.9692 131.56 19.6328 133.281 19.6328C135.002 19.6328 136.493 19.9692 137.766 20.6419C139.038 21.3146 140.028 22.2775 140.733 23.5305C141.439 24.7836 141.795 26.2543 141.795 27.9493C141.795 29.6442 141.439 31.1545 140.733 32.401C140.028 33.654 139.038 34.6169 137.766 35.2896C136.493 35.9623 134.996 36.2987 133.281 36.2987ZM133.281 32.645C134.349 32.645 135.207 32.2625 135.86 31.504C136.512 30.7456 136.836 29.5585 136.836 27.9493C136.836 26.3401 136.506 25.1925 135.86 24.4407C135.213 23.6888 134.349 23.3129 133.281 23.3129C132.212 23.3129 131.388 23.6888 130.735 24.4407C130.082 25.1925 129.759 26.3598 129.759 27.9493C129.759 29.5387 130.082 30.7456 130.735 31.504C131.388 32.2625 132.239 32.645 133.281 32.645Z" fill="black"/>
<path d="M150.896 36.3053C149.959 36.3053 149.056 36.2327 148.185 36.0942C147.315 35.9557 146.523 35.7513 145.804 35.4875C145.666 35.4347 145.534 35.382 145.402 35.3292C144.532 34.9599 144.09 33.9904 144.419 33.1001C144.769 32.1635 145.818 31.7217 146.741 32.1042C146.781 32.124 146.827 32.1372 146.866 32.1569C147.506 32.4208 148.179 32.612 148.871 32.7439C149.57 32.8758 150.25 32.9418 150.929 32.9418C151.846 32.9418 152.518 32.7901 152.954 32.4867C153.389 32.1833 153.606 31.7876 153.606 31.3128C153.606 30.8973 153.468 30.5873 153.184 30.3829C152.901 30.1784 152.485 30.0201 151.945 29.908L148.482 29.2881C147.156 29.0243 146.128 28.5296 145.396 27.7844C144.664 27.0391 144.301 26.0894 144.301 24.9155C144.301 23.8075 144.604 22.8578 145.218 22.0796C145.824 21.2948 146.668 20.6946 147.743 20.2659C148.818 19.8439 150.045 19.6328 151.417 19.6328C152.202 19.6328 152.96 19.6988 153.699 19.8307C154.437 19.9626 155.137 20.1538 155.803 20.4176C155.987 20.4902 156.172 20.5693 156.343 20.6551C157.095 21.0178 157.412 21.9213 157.102 22.6929L157.023 22.8842C156.68 23.735 155.71 24.1373 154.866 23.7811C154.299 23.5437 153.725 23.3591 153.138 23.2272C152.551 23.0953 152.004 23.0293 151.509 23.0293C150.507 23.0293 149.788 23.181 149.339 23.4844C148.891 23.7877 148.673 24.1834 148.673 24.6583C148.673 25.0276 148.805 25.3376 149.062 25.5882C149.326 25.8388 149.715 26.0103 150.236 26.096L153.692 26.683C155.084 26.9468 156.152 27.4282 156.891 28.1339C157.63 28.8396 157.999 29.7959 157.999 30.9896C157.999 32.124 157.702 33.0869 157.115 33.8783C156.528 34.6697 155.704 35.2764 154.635 35.6919C153.567 36.1074 152.32 36.3119 150.883 36.3119L150.896 36.3053Z" fill="black"/>
<path d="M72.2966 28.6524C72.5078 28.6524 72.6791 28.6465 72.6791 28.6392C72.6791 28.6319 72.5078 28.626 72.2966 28.626C72.0853 28.626 71.9141 28.6319 71.9141 28.6392C71.9141 28.6465 72.0853 28.6524 72.2966 28.6524Z" fill="black"/>
<path d="M37.7992 22.3377C36.3417 22.3377 35.1612 21.1572 35.1612 19.6996C35.1612 11.7459 28.6914 5.2761 20.7377 5.2761C19.2801 5.2761 18.0996 4.09557 18.0996 2.63805C18.0996 1.18053 19.2801 0 20.7377 0C31.5998 0 40.4373 8.83746 40.4373 19.6996C40.4373 21.1572 39.2568 22.3377 37.7992 22.3377Z" fill="black"/>
<path d="M37.4499 36.2283C36.5397 36.2283 35.6494 35.7535 35.1614 34.9093C34.4359 33.6496 34.8646 32.0338 36.1242 31.3084C39.4614 29.3826 41.8488 26.2697 42.8447 22.55C43.8405 18.8304 43.3327 14.9393 41.4003 11.6021C40.6749 10.3425 41.1036 8.72667 42.3632 8.0012C43.6229 7.26914 45.2387 7.70442 45.9642 8.96409C48.5956 13.5213 49.2947 18.8304 47.9295 23.9152C46.5709 29.0001 43.3063 33.2473 38.7491 35.8788C38.3336 36.1162 37.8785 36.2349 37.4301 36.2349L37.4499 36.2283Z" fill="black"/>
<path d="M33.7442 45.1623C30.3279 45.1623 26.9578 44.2653 23.9241 42.511C22.6644 41.7856 22.2291 40.1698 22.9612 38.9101C23.6932 37.6504 25.3024 37.2152 26.5621 37.9472C29.8992 39.873 33.7838 40.3874 37.51 39.3915C41.2297 38.3957 44.3426 36.0083 46.2683 32.6711C46.9938 31.4115 48.6096 30.9762 49.8693 31.7082C51.1289 32.4337 51.5642 34.0495 50.8321 35.3092C48.2007 39.8664 43.9534 43.1244 38.8686 44.4896C37.1737 44.9446 35.4523 45.1689 33.7376 45.1689L33.7442 45.1623Z" fill="black"/>
<path d="M30.4535 52.6814C19.5914 52.6814 10.7539 43.844 10.7539 32.9818C10.7539 31.5243 11.9344 30.3438 13.392 30.3438C14.8495 30.3438 16.03 31.5243 16.03 32.9818C16.03 40.9355 22.4998 47.4053 30.4535 47.4053C31.9111 47.4053 33.0916 48.5859 33.0916 50.0434C33.0916 51.5009 31.9111 52.6814 30.4535 52.6814Z" fill="black"/>
<path d="M7.49834 45.0318C6.58822 45.0318 5.69787 44.5569 5.20984 43.7128C2.57838 39.1555 1.8793 33.8465 3.24449 28.7616C4.60968 23.6768 7.86767 19.4295 12.4249 16.7981C13.6846 16.066 15.3004 16.5013 16.0258 17.761C16.7513 19.0206 16.3226 20.6364 15.0629 21.3619C11.7258 23.2877 9.33838 26.4006 8.34252 30.1202C7.34665 33.8399 7.85448 37.731 9.78026 41.0681C10.5057 42.3278 10.077 43.9436 8.81737 44.6691C8.40188 44.9065 7.94681 45.0252 7.49834 45.0252V45.0318Z" fill="black"/>
<path d="M2.63761 21.338C2.18914 21.338 1.73407 21.2259 1.31858 20.9819C0.0589138 20.2564 -0.376364 18.6406 0.355694 17.3809C5.78348 7.96968 17.8591 4.73807 27.2638 10.1659C28.5235 10.8913 28.9587 12.5071 28.2267 13.7668C27.5012 15.0265 25.8854 15.4617 24.6257 14.7297C17.7404 10.7528 8.89638 13.1205 4.91952 20.0124C4.43148 20.8565 3.54773 21.3314 2.63101 21.3314L2.63761 21.338Z" fill="black"/>
</svg>
