<svg width="166" height="33" viewBox="0 0 166 33" fill="none" xmlns="http://www.w3.org/2000/svg">
<path fill-rule="evenodd" clip-rule="evenodd" d="M8.07294 26.7787H14.1392C17.9581 26.7787 21.0828 23.654 21.0828 19.8351C21.0828 16.016 17.9581 12.8916 14.1392 12.8916H6.9483C5.85886 12.8916 4.97549 13.775 4.97549 14.8644C4.97549 15.9541 5.85886 16.8378 6.9483 16.8378H14.1392C15.7801 16.8378 17.1366 18.1943 17.1366 19.8351C17.1366 21.4757 15.7801 22.8322 14.1392 22.8322H6.96697C6.18312 22.8273 5.54838 23.2302 5.18585 23.8867L2.845 27.9416C2.30212 28.8816 2.6273 30.0944 3.56701 30.637C4.50702 31.1796 5.71954 30.8547 6.26242 29.9147L8.07294 26.7787Z" fill="black"/>
<path d="M14.8203 4.78709L13.0098 7.92342H6.94384C3.12439 7.92342 0 11.0475 0 14.8666C0 18.6855 3.12439 21.8099 6.94384 21.8099H14.1345C15.2242 21.8099 16.1073 20.9268 16.1073 19.8371C16.1073 18.7476 15.2242 17.864 14.1345 17.864H6.94384C5.30265 17.864 3.94621 16.5075 3.94621 14.8666C3.94621 13.2258 5.30265 11.8693 6.94384 11.8693H14.1158C14.8997 11.8745 15.5344 11.4716 15.8969 10.8148L18.2378 6.76019C18.7803 5.82018 18.4555 4.60735 17.5158 4.06478C17.2071 3.88657 16.8688 3.80176 16.5347 3.80176C15.8513 3.80176 15.1847 4.15572 14.8203 4.78709Z" fill="black"/>
<path d="M81.8358 1.63795C81.9629 1.70348 81.9948 1.83453 81.9311 2.0311L80.8505 3.96318C80.7446 4.13832 80.6016 4.25804 80.4215 4.32357C80.2415 4.38879 80.0667 4.38879 79.8973 4.32357C79.6221 4.21456 79.3095 4.11628 78.9598 4.02871C78.6104 3.94175 78.277 3.89765 77.9591 3.89765C77.2172 3.89765 76.5819 4.01217 76.0525 4.24151C75.5228 4.47054 75.0935 4.78776 74.7655 5.19132C74.437 5.59549 74.1988 6.0753 74.0506 6.63226C73.9024 7.18892 73.8387 7.35243 73.8598 7.98533H77.5458C77.7788 7.98533 77.9696 8.05667 78.1177 8.19844C78.2659 8.34082 78.3404 8.53158 78.3404 8.77163V10.6382C78.3404 10.8565 78.2659 11.0424 78.1177 11.1948C77.9696 11.3476 77.7788 11.4242 77.5458 11.4242H73.8598V23.0228C73.8598 23.2631 73.7854 23.4542 73.6378 23.596C73.489 23.7383 73.3087 23.8088 73.0974 23.8088H70.9366C70.7033 23.8088 70.5128 23.7383 70.3646 23.596C70.2164 23.4542 70.1423 23.2631 70.1423 23.0228V11.4242H68.8076C68.5958 11.4242 68.4154 11.3476 68.2675 11.1948C68.119 11.0424 68.0449 10.8565 68.0449 10.6382V8.77163C68.0449 8.53158 68.119 8.34082 68.2675 8.19844C68.4154 8.05667 68.5958 7.98533 68.8076 7.98533H70.1423V7.89286C70.1632 7.0199 70.3273 6.17389 70.6347 5.35513C70.9415 4.53637 71.3919 3.79937 71.985 3.14442C72.5781 2.48947 73.2983 1.94904 74.1461 1.52344C74.9931 1.09752 75.9781 0.83052 77.1012 0.721209C77.9059 0.63425 78.7056 0.655683 79.5002 0.786427C80.2948 0.917478 81.0731 1.20163 81.8358 1.63795Z" fill="black"/>
<path d="M85.4941 24.0072C83.7782 24.0072 82.4276 23.4178 81.4428 22.2389C80.4575 21.0601 79.9648 19.3791 79.9648 17.1956V8.81788C79.9648 8.57782 80.0392 8.37084 80.1874 8.19569C80.3353 8.02116 80.5258 7.93359 80.7594 7.93359H82.8884C83.1214 7.93359 83.3118 8.02116 83.4603 8.19569C83.6082 8.37084 83.6826 8.57782 83.6826 8.81788V17.3594C83.6826 17.6215 83.7252 17.9274 83.81 18.2762C83.8942 18.6258 84.0372 18.9639 84.2387 19.2915C84.4402 19.6188 84.7099 19.8975 85.0492 20.1265C85.3875 20.3558 85.8116 20.4704 86.3202 20.4704C86.7436 20.4704 87.1353 20.3721 87.496 20.1755C87.856 19.9792 88.1632 19.7171 88.4173 19.3895C88.6717 19.0622 88.8726 18.6807 89.0214 18.2437C89.169 17.8068 89.2434 17.3377 89.2434 16.8352V8.81788C89.2434 8.57782 89.312 8.37084 89.4501 8.19569C89.5876 8.02116 89.7728 7.93359 90.0061 7.93359H92.1669C92.3782 7.93359 92.5586 8.02116 92.7071 8.19569C92.855 8.37084 92.9294 8.57782 92.9294 8.81788V22.9922C92.9294 23.2325 92.855 23.4291 92.7071 23.5816C92.5586 23.7347 92.3782 23.8106 92.1669 23.8106H90.165C89.9317 23.8106 89.7361 23.7347 89.5772 23.5816C89.4182 23.4291 89.3389 23.2325 89.3389 22.9922V22.4352C89.3389 22.2607 89.2964 22.1734 89.2119 22.1734C89.0848 22.1299 88.9945 22.1241 88.9418 22.1572C88.8885 22.1896 88.8193 22.2503 88.7351 22.3372C88.5444 22.599 88.3221 22.8283 88.0676 23.0249C87.8135 23.2215 87.5382 23.396 87.2418 23.5488C86.9445 23.7016 86.6429 23.8158 86.3361 23.8927C86.0287 23.9689 85.7482 24.0072 85.4941 24.0072Z" fill="black"/>
<path d="M103.647 7.46289C104.494 7.46289 105.252 7.6215 105.919 7.9378C106.586 8.2544 107.158 8.70726 107.635 9.29668C108.111 9.88641 108.477 10.5851 108.731 11.3926C108.986 12.2006 109.113 13.0956 109.113 14.0779V23.0839C109.113 23.3026 109.043 23.4881 108.906 23.6406C108.768 23.7937 108.583 23.8699 108.35 23.8699H106.189C105.956 23.8699 105.765 23.7937 105.617 23.6406C105.469 23.4881 105.395 23.3026 105.395 23.0839V13.9471C105.395 13.685 105.352 13.396 105.267 13.0794C105.183 12.7631 105.045 12.4685 104.854 12.1951C104.664 11.9223 104.404 11.6929 104.076 11.5071C103.747 11.3221 103.329 11.2291 102.821 11.2291C101.931 11.2291 101.227 11.5294 100.708 12.1296C100.188 12.7303 99.929 13.5215 99.929 14.5038V23.0839C99.929 23.3026 99.85 23.4881 99.6911 23.6406C99.5322 23.7937 99.3359 23.8699 99.1032 23.8699H97.0061C96.7725 23.8699 96.5768 23.7937 96.4182 23.6406C96.2593 23.4881 96.1797 23.3026 96.1797 23.0839V8.70726C96.1797 8.51099 96.2593 8.34197 96.4182 8.1999C96.5768 8.05782 96.7725 7.98679 97.0061 7.98679H98.9443C99.177 7.98679 99.3623 8.05782 99.5003 8.1999C99.6378 8.34197 99.7067 8.51099 99.7067 8.70726V8.90383C99.7067 8.99141 99.7435 9.06244 99.8179 9.11664C99.892 9.17145 99.9397 9.19839 99.9612 9.19839C100.152 9.24248 100.289 9.18767 100.374 9.03458C100.734 8.53303 101.221 8.14539 101.836 7.87196C102.45 7.59945 103.054 7.46289 103.647 7.46289Z" fill="black"/>
<path d="M110.856 14.8031C111.004 13.7339 111.354 12.7617 111.905 11.8885C112.455 11.0158 113.128 10.2837 113.923 9.69429C114.717 9.10517 115.607 8.68508 116.591 8.43369C117.577 8.18292 118.598 8.14434 119.658 8.31887C120.209 8.40644 120.707 8.55403 121.151 8.76101C121.596 8.96861 122.041 9.19244 122.486 9.43249V1.45494C122.486 1.23693 122.554 1.05138 122.693 0.898284C122.83 0.7458 122.994 0.668945 123.185 0.668945H125.378C125.611 0.668945 125.807 0.7458 125.965 0.898284C126.124 1.05138 126.204 1.23693 126.204 1.45494V23.0232C126.204 23.2418 126.124 23.4273 125.965 23.5798C125.807 23.7329 125.611 23.8092 125.378 23.8092H123.185C122.994 23.8092 122.83 23.7329 122.693 23.5798C122.554 23.4273 122.486 23.2418 122.486 23.0232V15.3601C122.486 14.9455 122.396 14.5468 122.216 14.1647C122.036 13.7829 121.792 13.439 121.485 13.1328C121.178 12.8276 120.818 12.5713 120.405 12.3634C119.992 12.1561 119.541 12.0195 119.054 11.954C118.482 11.8673 117.926 11.8943 117.386 12.0361C116.846 12.1781 116.364 12.4016 115.94 12.7072C115.516 13.0134 115.162 13.4008 114.876 13.8698C114.589 14.3395 114.404 14.8686 114.32 15.4584C114.235 16.0261 114.256 16.5827 114.383 17.1283C114.51 17.6743 114.728 18.1712 115.034 18.6183C115.341 19.0662 115.723 19.4429 116.179 19.7484C116.634 20.054 117.137 20.2509 117.688 20.3379C117.984 20.382 118.27 20.4031 118.546 20.4031C118.821 20.4031 119.096 20.3489 119.372 20.2396C119.563 20.1523 119.748 20.1688 119.928 20.2889C120.108 20.4089 120.23 20.5782 120.294 20.7962L121.024 23.0232C121.088 23.2418 121.088 23.3891 121.024 23.4653C120.961 23.5422 120.897 23.5912 120.834 23.6126C120.24 23.7657 119.631 23.8851 119.007 23.973C118.381 24.0596 117.762 24.0489 117.148 23.9399C116.088 23.7657 115.135 23.3946 114.288 22.8266C113.44 22.2592 112.731 21.5657 112.159 20.7472C111.587 19.9285 111.179 19.0065 110.936 17.9799C110.692 16.9538 110.665 15.895 110.856 14.8031Z" fill="black"/>
<path d="M132.404 7.87613C132.637 7.87613 132.827 7.9637 132.976 8.13823C133.124 8.31337 133.198 8.52036 133.198 8.76041V23.0223C133.198 23.2409 133.124 23.4267 132.976 23.5792C132.827 23.7323 132.637 23.8083 132.404 23.8083H130.211C130.021 23.8083 129.851 23.7323 129.703 23.5792C129.554 23.4267 129.48 23.2409 129.48 23.0223V8.76041C129.48 8.52036 129.554 8.31337 129.703 8.13823C129.851 7.9637 130.021 7.87613 130.211 7.87613H132.404ZM132.404 2.68555C132.933 2.68555 133.198 2.95867 133.198 3.50431V5.79647C133.198 5.99335 133.124 6.16788 132.976 6.32067C132.827 6.47346 132.637 6.5497 132.404 6.5497H130.211C130.021 6.5497 129.851 6.47346 129.703 6.32067C129.554 6.16788 129.48 5.99335 129.48 5.79647V3.50431C129.48 3.26425 129.554 3.06768 129.703 2.91458C129.851 2.7624 130.021 2.68555 130.211 2.68555H132.404Z" fill="black"/>
<path d="M143.909 7.39941C144.756 7.39941 145.513 7.55802 146.181 7.87432C146.848 8.19092 147.42 8.64378 147.897 9.2332C148.373 9.82293 148.739 10.5217 148.993 11.3291C149.247 12.1371 149.374 13.0321 149.374 14.0144V23.0205C149.374 23.2391 149.305 23.4246 149.168 23.5771C149.03 23.7302 148.845 23.8065 148.612 23.8065H146.451C146.218 23.8065 146.027 23.7302 145.879 23.5771C145.73 23.4246 145.657 23.2391 145.657 23.0205V13.8837C145.657 13.6216 145.614 13.3325 145.53 13.0159C145.445 12.6996 145.307 12.4051 145.116 12.1316C144.925 11.8588 144.666 11.6295 144.338 11.4436C144.009 11.2587 143.591 11.1656 143.083 11.1656C142.193 11.1656 141.489 11.4657 140.969 12.0661C140.45 12.6665 140.191 13.4581 140.191 14.4403V23.0205C140.191 23.2391 140.112 23.4246 139.953 23.5771C139.794 23.7302 139.598 23.8065 139.365 23.8065H137.268C137.035 23.8065 136.839 23.7302 136.68 23.5771C136.521 23.4246 136.441 23.2391 136.441 23.0205V8.64378C136.441 8.44751 136.521 8.27849 136.68 8.13642C136.839 7.99435 137.035 7.92331 137.268 7.92331H139.206C139.439 7.92331 139.624 7.99435 139.762 8.13642C139.9 8.27849 139.969 8.44751 139.969 8.64378V8.84036C139.969 8.92793 140.005 8.99897 140.08 9.05316C140.154 9.10797 140.202 9.13492 140.223 9.13492C140.414 9.17901 140.551 9.1242 140.636 8.9711C140.996 8.46956 141.483 8.08192 142.098 7.80849C142.712 7.53598 143.316 7.39941 143.909 7.39941Z" fill="black"/>
<path d="M166.002 25.1263C165.981 26.0648 165.817 26.9653 165.51 27.8282C165.203 28.6904 164.747 29.4544 164.144 30.1206C163.54 30.7863 162.782 31.3209 161.872 31.7254C160.96 32.129 159.891 32.331 158.662 32.331C157.074 32.331 155.733 31.9651 154.642 31.234C153.551 30.5022 152.72 29.5689 152.148 28.4341C152.105 28.39 152.09 28.33 152.101 28.2541C152.111 28.1769 152.169 28.1172 152.275 28.0734L152.562 27.9755C152.709 27.9314 152.943 27.8551 153.261 27.7464C153.578 27.6368 154.044 27.4623 154.658 27.2222C154.87 27.1567 155.04 27.2002 155.167 27.3533C155.506 27.7464 155.95 28.1172 156.502 28.4666C157.052 28.8156 157.815 28.9908 158.789 28.9908C159.53 28.9908 160.156 28.8597 160.664 28.5976C161.173 28.3355 161.58 27.9969 161.888 27.5823C162.194 27.1677 162.412 26.7035 162.539 26.1907C162.666 25.6775 162.73 25.1701 162.73 24.668C162.73 23.227 162.74 21.8458 162.761 20.6669C162.761 20.1648 162.766 19.6736 162.777 19.1932C162.788 18.7131 162.798 18.2762 162.809 17.883C162.819 17.4905 162.825 17.1739 162.825 16.9335V16.5076C162.825 15.3943 162.533 14.45 161.951 13.675C161.368 12.9003 160.664 12.3706 159.838 12.0868C159.012 11.8033 158.143 11.8085 157.232 12.103C156.321 12.3979 155.537 13.0583 154.881 14.0844C154.436 14.8921 154.261 15.7167 154.357 16.5569C154.452 17.3977 154.738 18.1402 155.215 18.7838C155.691 19.4281 156.316 19.8972 157.089 20.1917C157.862 20.4866 158.694 20.5028 159.584 20.241C159.753 20.1975 159.928 20.2248 160.108 20.3228C160.288 20.4214 160.41 20.5579 160.473 20.7325L161.3 23.0904C161.405 23.3522 161.3 23.5378 160.982 23.6468C159.901 23.9524 158.853 24.04 157.836 23.9089C156.819 23.7779 155.887 23.4726 155.04 22.9922C154.192 22.5117 153.451 21.8896 152.816 21.1253C152.18 20.3614 151.698 19.5098 151.37 18.5707C151.041 17.6326 150.903 16.6338 150.956 15.5743C151.009 14.5158 151.301 13.4405 151.831 12.3489C152.275 11.4101 152.9 10.6079 153.705 9.94191C154.51 9.27594 155.384 8.79553 156.326 8.50066C157.269 8.2058 158.233 8.11915 159.218 8.23856C160.203 8.3589 161.109 8.74654 161.935 9.40118C162.041 9.55427 162.174 9.61398 162.332 9.58122C162.491 9.54876 162.571 9.02548 162.571 8.78481C162.571 8.5668 162.65 8.37053 162.809 8.1957C162.968 8.02086 163.163 7.93359 163.397 7.93359H165.526C165.737 7.93359 165.87 8.02086 165.923 8.1957C165.976 8.37053 166.002 8.5668 166.002 8.78481V25.1263Z" fill="black"/>
<path d="M40.9163 17.0664C40.7463 18.1363 40.3918 19.1081 39.8516 19.9811C39.3115 20.8547 38.644 21.5858 37.8498 22.1753C37.0555 22.7647 36.1602 23.1851 35.1648 23.4359C34.1687 23.6869 33.1521 23.7252 32.1142 23.5507C31.563 23.4637 31.0657 23.3164 30.6208 23.1085C30.176 22.9012 29.7311 22.6777 29.2862 22.4374V31.5445C29.2862 31.7625 29.2173 31.9483 29.0798 32.1011C28.9417 32.2536 28.7776 32.3305 28.5871 32.3305H26.3945C26.1615 32.3305 25.9658 32.2536 25.8066 32.1011C25.648 31.9483 25.5684 31.7625 25.5684 31.5445V8.7187C25.5684 8.50069 25.648 8.31514 25.8066 8.16204C25.9658 8.00956 26.1615 7.9327 26.3945 7.9327H28.5871C28.7776 7.9327 28.9417 8.00956 29.0798 8.16204C29.2173 8.31514 29.2862 8.50069 29.2862 8.7187V16.5098C29.2862 16.9247 29.3762 17.3233 29.5562 17.7048C29.736 18.0873 29.9797 18.4311 30.2871 18.7367C30.5939 19.0426 30.9546 19.2989 31.3673 19.5062C31.7807 19.7138 32.2305 19.85 32.7183 19.9156C33.2899 20.0031 33.846 19.9759 34.3864 19.8338C34.9265 19.692 35.4082 19.4685 35.8323 19.1623C36.2554 18.8567 36.6103 18.4697 36.8966 17.9997C37.1826 17.5306 37.3675 17.0009 37.4523 16.4115C37.5371 15.8438 37.5163 15.2871 37.3889 14.7412C37.2619 14.1959 37.0445 13.6989 36.7377 13.2513C36.4306 12.8042 36.049 12.4276 35.5937 12.1214C35.1378 11.8158 34.6347 11.6193 34.0845 11.532C33.7875 11.4885 33.5015 11.4665 33.2266 11.4665C32.9507 11.4665 32.6754 11.5213 32.4004 11.6303C32.2094 11.7176 32.0238 11.7013 31.8441 11.581C31.6637 11.4613 31.5422 11.2919 31.4788 11.0736L30.7479 8.84669C30.6842 8.62837 30.6842 8.48109 30.7479 8.40424C30.8116 8.328 30.875 8.27901 30.9384 8.25696C31.5315 8.10448 32.1405 7.98445 32.7657 7.89688C33.3904 7.80992 34.0098 7.82064 34.6243 7.92964C35.6623 8.10448 36.6103 8.47558 37.4682 9.04296C38.3265 9.61094 39.0415 10.3039 39.6131 11.1226C40.1851 11.9414 40.5929 12.8639 40.8367 13.8897C41.0798 14.9163 41.1067 15.9752 40.9163 17.0664Z" fill="black"/>
<path d="M42.7266 8.38966C42.7266 8.25861 42.7743 8.14961 42.8699 8.06234C42.9651 7.97508 43.0652 7.93099 43.1715 7.93099H44.7606C45.0356 7.93099 45.1838 8.0406 45.2052 8.25861L45.2689 8.84834C45.2897 9.00113 45.3056 9.2023 45.3163 9.34407C45.3268 9.48645 45.3326 9.70752 45.3326 9.72926C45.3745 9.92553 45.4593 9.95829 45.5867 9.82724C45.7138 9.63097 45.8883 9.41296 46.1109 9.17229C46.3332 8.93224 46.5981 8.70872 46.9052 8.50081C47.212 8.29383 47.5512 8.12419 47.922 7.99345C48.2925 7.8624 48.7007 7.79688 49.1453 7.79688C49.4202 7.79688 49.7117 7.81892 50.0192 7.8624C50.326 7.90649 50.6018 7.97692 50.8456 8.0752C51.0887 8.17349 51.2794 8.29383 51.4175 8.43529C51.555 8.57767 51.581 8.73597 51.4968 8.91019L50.3214 11.0719C50.194 11.2902 49.9399 11.3337 49.5583 11.2027C49.0286 11.0281 48.5577 11.0174 48.1443 11.1702C47.7316 11.323 47.3868 11.563 47.1116 11.8904C46.8363 12.218 46.6296 12.6001 46.4921 13.0368C46.3543 13.4737 46.2854 13.8993 46.2854 14.3139V23.3196C46.2854 23.6255 46.084 23.778 45.6816 23.778H43.1715C43.0652 23.778 42.9651 23.729 42.8699 23.6307C42.7743 23.5327 42.7266 23.4292 42.7266 23.3196V8.38966Z" fill="black"/>
<path d="M64.7343 10.9429C65.2637 11.6419 65.6767 12.4114 65.9734 13.2519C66.2701 14.0924 66.4183 14.9709 66.4183 15.8879C66.4183 16.9798 66.2169 18.0059 65.8145 18.9664C65.4122 19.9272 64.8613 20.7622 64.1623 21.4717C63.4633 22.1814 62.6421 22.7439 61.6999 23.1582C60.7568 23.5727 59.7455 23.7803 58.6652 23.7803C57.7329 23.7803 56.8324 23.5727 55.964 23.1582C55.0956 22.7439 54.3326 22.1814 53.6764 21.4717C53.0193 20.7622 52.4951 19.9272 52.1035 18.9664C51.7113 18.0059 51.5156 16.9798 51.5156 15.8879C51.5156 14.3814 51.8491 13.0388 52.5166 11.86C53.1838 10.6811 54.0417 9.75886 55.0904 9.09258C56.1391 8.42692 57.3091 8.06102 58.6015 7.9958C59.8934 7.92997 61.1647 8.24688 62.4149 8.9453C62.6261 9.05461 62.6794 9.19638 62.5735 9.37091L61.3662 11.6306C61.2599 11.8054 61.1169 11.931 60.9372 12.0072C60.7568 12.0841 60.582 12.0676 60.413 11.9579C59.9047 11.7402 59.3214 11.6306 58.6652 11.6306C58.1352 11.6306 57.6484 11.7402 57.2035 11.9579C56.7586 12.1766 56.3718 12.4769 56.0436 12.8588C55.7151 13.2409 55.4609 13.6937 55.2812 14.2176C55.1008 14.7418 55.0108 15.2985 55.0108 15.8879C55.0108 17.1109 55.355 18.1204 56.0436 18.9171C56.7316 19.7144 57.6058 20.1125 58.6652 20.1125C59.258 20.1125 59.8141 20.009 60.3334 19.8014C60.8521 19.5941 61.3025 19.2995 61.6837 18.9171C62.0652 18.5353 62.3671 18.0876 62.5894 17.5744C62.812 17.0619 62.9231 16.4994 62.9231 15.8879C62.9231 15.4951 62.8647 15.1077 62.7483 14.7256C62.6317 14.3435 62.4887 13.9996 62.3193 13.6937C62.1497 13.3226 62.2241 13.006 62.5419 12.7439L64.4483 10.9757C64.5539 10.8667 64.6495 10.8559 64.7343 10.9429Z" fill="black"/>
</svg>
