

<svg width="152" height="70" viewBox="0 0 152 70" fill="none" xmlns="http://www.w3.org/2000/svg">
  <!-- Fondo amarillo -->
  <rect width="152" height="70" fill="yellow"/>
  
<path d="M22.9751 17.6474C23.0143 17.6474 23.0535 17.6403 23.0928 17.626C24.8829 17.0091 26.7443 16.6061 28.6235 16.4278C30.7096 16.2282 32.8171 16.3066 34.8889 16.6596C35.0815 16.6953 35.2669 16.5634 35.299 16.3672C35.3311 16.1711 35.2027 15.9892 35.0066 15.9571C32.8742 15.5934 30.7025 15.515 28.5522 15.7182C26.6159 15.9037 24.6974 16.3173 22.8538 16.952C22.6684 17.0162 22.5686 17.2195 22.6328 17.4049C22.6827 17.5511 22.8217 17.6438 22.9715 17.6438L22.9751 17.6474Z" fill="black"/>
<path d="M35.8555 16.7991C36.1123 16.849 36.369 16.9096 36.6222 16.9774C36.8504 17.038 37.0786 17.1093 37.3069 17.1877C37.3461 17.202 37.3853 17.2056 37.421 17.2056C37.5707 17.2056 37.7062 17.1129 37.7597 16.9631C37.8239 16.7777 37.7241 16.5744 37.5386 16.5102C37.2962 16.4282 37.0501 16.3533 36.8112 16.2856C36.5437 16.2107 36.2692 16.1465 35.9946 16.093C35.802 16.0538 35.613 16.1821 35.5774 16.3747C35.5381 16.5673 35.6665 16.7563 35.8591 16.7919L35.8555 16.7991Z" fill="black"/>
<path d="M28.6969 19.0166C27.6771 19.0594 26.6429 19.0452 25.6231 18.9774C25.4234 18.9596 25.2558 19.1129 25.2451 19.3091C25.2308 19.5052 25.3806 19.6763 25.5767 19.687C26.2293 19.7298 26.8854 19.7512 27.5416 19.7512C27.9374 19.7512 28.3332 19.7441 28.729 19.7263C29.781 19.6835 30.8401 19.5836 31.8813 19.4267C32.0774 19.3982 32.2094 19.2163 32.1809 19.0202C32.1523 18.8241 31.9705 18.6921 31.7743 18.7207C30.758 18.874 29.7239 18.9703 28.7005 19.0131L28.6969 19.0166Z" fill="black"/>
<path d="M44.7084 25.198C44.6763 24.4134 44.5337 23.6432 44.2769 22.9086C43.5138 20.6549 41.6524 18.8292 39.3951 18.0946C38.9529 17.9555 38.7319 18.6045 39.1598 18.7685C40.3722 19.225 41.4527 20.0309 42.2372 21.0615C41.2922 20.3804 40.1618 19.9845 39.0171 19.9239C38.8281 19.9132 38.6641 20.0523 38.6427 20.2449C38.6213 20.441 38.7675 20.6193 38.9636 20.6371C40.1761 20.7619 41.3386 21.3039 42.1694 22.1598C43.0074 22.9978 43.5209 24.1603 43.635 25.3299C43.66 25.6152 43.906 25.8327 44.1949 25.822C44.4944 25.8113 44.7262 25.5581 44.7155 25.2586C44.7155 25.2407 44.7155 25.2229 44.7119 25.2051L44.7084 25.198Z" fill="black"/>
<path d="M28.1005 22.147C28.2966 22.1257 28.4357 21.9474 28.4143 21.7512C28.3929 21.5551 28.211 21.4196 28.0184 21.4374C27.2018 21.5337 26.3745 21.5408 25.5615 21.4517C24.7413 21.3625 24.1494 21.2021 23.6288 21.063C22.9869 20.8883 22.4306 20.7385 21.6604 20.7563C20.6084 20.7849 19.5458 21.1343 18.4974 21.8012C18.3298 21.9081 18.2834 22.1257 18.3868 22.2933C18.4546 22.4002 18.5687 22.4573 18.6899 22.4573C18.7541 22.4573 18.8219 22.4395 18.8825 22.4002C19.8203 21.8047 20.7617 21.4909 21.6818 21.466C22.345 21.4481 22.83 21.5801 23.4433 21.7477C23.9889 21.8974 24.6094 22.065 25.4866 22.1577C26.3531 22.2505 27.2339 22.2469 28.104 22.1435L28.1005 22.147Z" fill="black"/>
<path d="M42.7801 26.7753C42.8265 26.7753 42.8728 26.7682 42.9156 26.7468C43.0975 26.6719 43.1831 26.4615 43.1082 26.2796C42.7872 25.5058 41.5035 22.9098 38.501 21.9006C36.5183 21.2338 34.7389 21.594 33.8545 21.8685C33.6655 21.9256 33.5621 22.1253 33.6192 22.3143C33.6762 22.5033 33.8759 22.6067 34.0649 22.5496C34.8673 22.3 36.4826 21.972 38.2727 22.5782C40.99 23.4946 42.1561 25.8553 42.4485 26.5578C42.5055 26.6933 42.6375 26.7789 42.7765 26.7789L42.7801 26.7753Z" fill="black"/>
<path d="M42.9154 26.9624C42.7264 27.0158 42.6159 27.212 42.6694 27.401C42.7336 27.6292 42.7692 27.8681 42.7728 28.1035C42.7764 28.3745 42.7407 28.6419 42.6658 28.9022C42.6123 29.0912 42.7229 29.2874 42.9119 29.3444C42.944 29.3551 42.9761 29.3587 43.0117 29.3587C43.1686 29.3587 43.3113 29.2553 43.3541 29.0984C43.4468 28.7703 43.4931 28.4315 43.486 28.0928C43.4824 27.7932 43.4361 27.4937 43.3541 27.2048C43.3006 27.0158 43.1044 26.9053 42.9154 26.9588V26.9624Z" fill="black"/>
<path d="M28.9021 23.3144C28.3815 23.4214 27.8466 23.4499 27.3153 23.4071C26.8232 23.3679 26.3382 23.2609 25.8746 23.0969C25.6892 23.0291 25.4859 23.1254 25.4182 23.3109C25.3504 23.4963 25.4467 23.6995 25.6321 23.7673C26.1563 23.9527 26.7019 24.0704 27.2546 24.1168C27.4294 24.131 27.6005 24.1382 27.7753 24.1382C28.1996 24.1382 28.624 24.0954 29.0412 24.0098C29.2337 23.9706 29.3586 23.7816 29.3193 23.589C29.2801 23.3964 29.0911 23.2716 28.8986 23.3109L28.9021 23.3144Z" fill="black"/>
<path d="M32.6408 22.212C32.2415 22.3654 31.8421 22.5152 31.4356 22.6685C31.0861 22.8004 30.7366 22.9288 30.3907 23.0536C30.2053 23.1214 30.1126 23.3282 30.1803 23.5101C30.2338 23.6527 30.3693 23.7454 30.5155 23.7454C30.5548 23.7454 30.5976 23.7383 30.6368 23.724C30.9862 23.5956 31.3357 23.4673 31.6852 23.3353C32.0917 23.182 32.4946 23.0322 32.894 22.8789C33.0795 22.8076 33.1686 22.6043 33.1009 22.4189C33.0295 22.2334 32.8263 22.1443 32.6408 22.212Z" fill="black"/>
<path d="M34.4054 42.7538C34.3055 42.5826 34.088 42.5255 33.9169 42.6218C33.7457 42.7217 33.6886 42.9392 33.7849 43.1104C34.1914 43.8164 34.5302 44.5688 34.7869 45.3426C35.0865 46.2413 35.279 47.172 35.3575 48.117C35.3718 48.3024 35.5287 48.4415 35.7141 48.4415C35.7248 48.4415 35.7355 48.4415 35.7462 48.4415C35.9423 48.4236 36.0885 48.2525 36.0707 48.0563C35.9851 47.0579 35.7818 46.0701 35.4645 45.118C35.1935 44.2978 34.8369 43.5062 34.4054 42.7573V42.7538Z" fill="black"/>
<path d="M33.6181 45.5163C33.5789 45.3237 33.3934 45.1954 33.2009 45.2346C33.0083 45.2738 32.8799 45.4593 32.9192 45.6518C33.0832 46.4862 33.2116 47.3349 33.2972 48.1801C33.3899 49.0751 33.4362 49.9844 33.4434 50.8831C33.4434 51.0792 33.6038 51.2397 33.8 51.2397C33.9961 51.2397 34.1566 51.0792 34.1566 50.8831C34.153 49.9595 34.1031 49.0288 34.0068 48.1088C33.9176 47.2422 33.7857 46.3686 33.6181 45.5163Z" fill="black"/>
<path d="M40.2726 38.861C42.7652 38.9288 44.9333 41.079 44.9618 43.5787C44.9689 43.8783 45.2292 44.1136 45.5324 44.0922C45.8248 44.0708 46.0423 43.8177 46.0209 43.5253C45.9638 42.7907 45.7713 42.0846 45.4646 41.4285C44.5588 39.4494 42.4621 38.1478 40.294 38.1514C39.834 38.1514 39.8161 38.836 40.2726 38.8646V38.861Z" fill="black"/>
<path d="M37.9275 13.9984C39.6784 14.5582 41.3081 15.5174 42.6346 16.7655C44.6565 18.6697 45.5979 20.845 46.0294 22.3355C46.0757 22.4924 46.2184 22.5923 46.3717 22.5923C46.4038 22.5923 46.4395 22.5887 46.4715 22.578C46.6605 22.5245 46.7711 22.3248 46.714 22.1358C46.4858 21.3442 46.1185 20.3707 45.5408 19.3401C45.5801 19.2867 45.6122 19.226 45.63 19.1511C46.1043 17.115 47.848 15.4711 49.9234 15.1181C50.3727 15.0289 50.2693 14.3585 49.8128 14.412C47.6234 14.6795 45.6906 16.2199 44.8597 18.2597C44.6993 18.0314 44.5245 17.7997 44.3427 17.5714C44.3641 17.5322 44.3855 17.4859 44.3997 17.4359C44.7028 16.1379 45.6371 15.0396 46.8567 14.4798C47.2668 14.2872 47.0064 13.6667 46.5821 13.8236C45.2484 14.3157 44.1358 15.3819 43.576 16.6978C43.4298 16.548 43.2836 16.3982 43.1267 16.252C43.0768 16.2021 43.0197 16.1593 42.9698 16.1094C43.173 15.7813 43.4013 15.464 43.6651 15.1822C44.0966 14.7187 44.5994 14.33 45.1557 14.0233C45.3269 13.927 45.3911 13.7131 45.2983 13.5383C45.2021 13.3672 44.9881 13.303 44.8134 13.3957C44.1893 13.738 43.6259 14.1731 43.1445 14.6937C42.8735 14.9826 42.631 15.2964 42.4171 15.6316C42.2851 15.5246 42.1567 15.4176 42.0212 15.3178C43.5867 13.0855 46.4074 11.8196 49.1175 12.2582C49.3065 12.2867 49.4883 12.1583 49.5204 11.9658C49.5561 11.7732 49.4242 11.5878 49.2316 11.5521C48.4792 11.4202 47.7054 11.3916 46.9387 11.4701C44.6743 11.6948 42.5775 12.9535 41.2118 14.765C40.7268 14.4548 40.2204 14.1767 39.6998 13.9342C39.7925 13.6275 39.9173 13.3315 40.0849 13.0569C40.6555 12.112 41.6646 11.4879 42.7594 11.3275C43.2158 11.2561 43.1303 10.575 42.6702 10.6214C40.9836 10.7854 39.4395 11.9729 38.8761 13.5811C38.6372 13.4884 38.3947 13.4028 38.1522 13.3244C37.9632 13.2638 37.7635 13.3672 37.7029 13.5562C37.6423 13.7452 37.7457 13.9449 37.9347 14.0055L37.9275 13.9984Z" fill="black"/>
<path d="M56.9169 25.172C55.0448 25.525 53.9928 27.2581 53.7147 27.7787C53.3438 28.4776 53.2583 29.0125 53.2618 32.6569C53.2654 36.0909 53.3367 36.7007 53.8003 37.3426C54.977 38.9615 57.1344 39.0578 57.6265 39.0578C57.6586 39.0578 57.6872 39.0578 57.7014 39.0578C60.301 38.9936 62.2837 36.8326 63.0931 34.7216C63.9739 32.4251 63.3321 30.3604 63.0147 29.5795C62.1446 27.4364 59.677 24.6513 56.9169 25.172Z" fill="black"/>
<path d="M26.8317 36.9329C26.689 36.7974 26.4608 36.8045 26.3289 36.9507C26.1149 37.1789 25.9366 37.4357 25.7976 37.7138C25.5586 38.1917 25.441 38.7337 25.4588 39.2828C25.4659 39.4754 25.6228 39.6287 25.8154 39.6287C25.819 39.6287 25.8225 39.6287 25.8261 39.6287C26.0222 39.6216 26.1756 39.4576 26.172 39.2614C26.1577 38.83 26.2504 38.4056 26.4359 38.0347C26.5428 37.8208 26.6819 37.6211 26.8495 37.4428C26.985 37.3002 26.9779 37.0719 26.8317 36.94V36.9329Z" fill="black"/>
<path d="M23.2708 39.9698C23.0676 40.0732 22.9178 40.2943 22.8501 40.5974C22.7502 41.0574 22.8643 41.578 23.1425 41.9204C23.385 42.2199 23.7843 42.4374 24.1588 42.4731C24.198 42.4767 24.2372 42.4802 24.2729 42.4802C24.4726 42.4802 24.6473 42.4232 24.7792 42.3126C25.2392 41.9311 25.036 41.0824 24.7079 40.6188C24.4084 40.1944 23.7451 39.7273 23.2673 39.9662L23.2708 39.9698Z" fill="black"/>
<path d="M28.8693 39.9248C28.4129 39.8535 27.8424 40.0033 27.4501 40.2957C26.9045 40.7058 26.5123 41.5117 26.8225 42.0109C27.0008 42.2962 27.3574 42.4281 27.7461 42.4281C28.067 42.4281 28.4129 42.339 28.691 42.1785C29.1154 41.9325 29.4684 41.4546 29.5718 40.9839C29.636 40.6951 29.6004 40.4455 29.4684 40.2565C29.3436 40.0817 29.1368 39.9676 28.8693 39.9248Z" fill="black"/>
<path d="M67.5097 34.4114C68.1623 30.5851 66.2224 26.3951 63.0986 24.0701C63.038 24.0273 62.981 23.9774 62.9203 23.9346C63.0558 22.9504 63.0737 21.6916 62.7135 20.308C62.5281 19.5913 61.9147 17.7406 60.2708 16.0539C59.4899 15.2551 58.5806 14.5954 57.5714 14.0926C57.3575 13.6754 57.1114 13.276 56.8404 12.898C56.3875 12.2704 55.8562 11.6998 55.2571 11.2006C55.0646 10.6087 54.8007 10.0452 54.469 9.52818C53.4207 7.89141 51.8944 7.01062 50.7925 6.56132C50.6535 5.68409 50.1221 4.94238 49.5088 4.32903C48.7457 3.53026 47.8007 2.89552 46.7702 2.47474C46.2246 2.06822 45.6112 1.75085 44.9658 1.55116C44.2383 1.3265 43.4859 1.23735 42.7228 1.29798C41.4105 0.688199 40.0162 0.342302 38.5792 0.267417C37.0209 0.1854 35.4233 0.438582 33.9613 1.002C32.7702 0.780913 31.5685 0.763084 30.3882 0.952079C29.8604 1.0341 29.3362 1.16247 28.8227 1.3265C28.1274 0.852232 27.3215 0.552693 26.4906 0.477808C26.5156 0.477808 26.537 0.48494 26.5619 0.48494C26.3194 0.395791 26.052 0.320906 25.7631 0.274549C25.2603 0.192532 24.2619 0.124779 23.1885 0.613314C21.8691 1.20883 21.2166 2.28931 20.9669 2.80994C20.35 2.93831 19.7724 3.17366 19.2482 3.51243C18.2782 4.1436 17.7326 4.97803 17.4402 5.60208C17.1728 5.63773 16.916 5.71975 16.6771 5.84456C16.0352 6.17976 15.7179 6.73605 15.5788 7.07125C15.0082 7.40645 14.5161 7.83792 14.1203 8.35855C13.3786 9.33206 13.1575 10.3591 13.104 11.0722C12.7118 11.4467 12.2125 12.0636 11.9558 12.9444C11.56 14.2923 11.9558 15.4584 12.2161 16.0182C10.5615 17.0702 9.18505 18.4145 8.11884 20.0192C7.4841 20.9784 5.9864 23.5923 5.83306 27.1654C5.8081 27.7324 5.79384 29.2479 6.17539 31.0808C6.42858 32.2861 6.75308 33.1776 7.04192 33.9656C7.48053 35.1674 7.80147 36.0374 7.50906 37.2142C7.32006 37.9845 6.92781 38.6869 6.34299 39.311C5.1377 40.5947 3.90032 40.8515 3.06589 40.8336C1.76075 40.8087 0.822904 40.1597 0.377161 39.771C0.330804 39.7318 0.266616 39.7175 0.205995 39.7353C0.145374 39.7532 0.102583 39.8031 0.088319 39.8637C-0.00439563 40.2631 -0.0721487 40.8907 0.141808 41.6075C0.345067 42.2814 0.715926 42.7557 1.0119 43.041C1.05113 43.6222 1.21516 44.1963 1.4826 44.7063C1.83207 45.3695 2.30277 45.8295 2.72356 46.1362C2.53456 46.154 2.34556 46.1576 2.15657 46.1469C1.88199 46.1326 1.60741 46.0827 1.34353 46.0078C1.27578 45.9864 1.20089 46.0078 1.15454 46.0649C1.10818 46.1184 1.10105 46.1968 1.13314 46.261C1.75718 47.477 2.64867 48.5718 3.71132 49.424C4.71692 50.2299 5.85802 50.8219 7.09897 51.182C7.56968 51.6884 8.1117 52.1199 8.71078 52.4622C9.21002 52.7475 9.74134 52.9686 10.2941 53.1219C10.1728 53.2217 10.048 53.3109 9.91251 53.3929C9.62723 53.5676 9.31699 53.6996 8.98893 53.7852C8.92831 53.7994 8.88195 53.8458 8.86412 53.9064C8.84629 53.967 8.86055 54.0312 8.89978 54.0776C9.45963 54.7088 10.426 55.5681 11.8559 56.0816C12.7653 56.4097 13.7423 56.5488 14.7123 56.4953C14.4413 56.8448 13.9599 57.319 13.2253 57.5544C12.5192 57.779 11.8952 57.6935 11.4958 57.5829C11.4352 57.5651 11.371 57.5829 11.3282 57.6257C11.2854 57.6685 11.264 57.7291 11.2747 57.7897C11.3425 58.1214 11.5386 58.7525 12.102 59.2696C12.2767 59.4265 12.4693 59.562 12.6797 59.6726L12.5584 59.7011C12.4978 59.7153 12.4515 59.7581 12.4301 59.8116C12.4087 59.8687 12.4194 59.9329 12.455 59.9792C12.7367 60.3572 13.0719 60.6924 13.4499 60.9741C13.8101 61.2451 14.2059 61.4591 14.6267 61.6196L14.2273 62.0831C14.1952 62.1224 14.1774 62.1723 14.1845 62.2222C14.1916 62.2721 14.2202 62.3185 14.2594 62.347C14.969 62.8284 15.7428 63.1921 16.5594 63.4275C17.1942 63.6094 17.8503 63.7128 18.5136 63.7377C18.8987 64.7719 19.9899 67.0255 22.4753 68.2059C23.4275 68.6587 24.4616 68.8977 25.5528 68.9155C26.0627 69.2507 27.0826 69.782 28.434 69.782H28.4412C29.7784 69.782 30.7876 69.265 31.3011 68.9333C32.1284 68.9939 33.3729 68.9262 34.6745 68.2736C36.272 67.4748 37.1278 66.2125 37.5129 65.485C38.704 65.1534 40.4014 64.4224 41.8741 62.8213C43.1222 61.4591 43.7177 59.9935 44.003 58.9273C44.6555 59.3409 46.5669 60.3394 48.7172 59.5085C50.2505 58.9166 51.0564 57.697 51.3667 57.1086C52.4044 57.0658 53.927 56.8162 55.4782 55.8962C56.548 55.2615 57.4858 54.3843 58.199 53.3537C59.037 53.4535 59.8786 53.3965 60.6952 53.1825C61.5011 52.9721 62.2713 52.6048 62.9489 52.1127L63.0023 52.5941C63.0095 52.6548 63.0487 52.7083 63.1058 52.7368C63.1628 52.7617 63.227 52.7582 63.2805 52.7225C64.3111 52.0379 66.1653 50.5009 67.0033 47.9192C68.2336 44.1215 66.3971 40.7588 65.4201 39.3359C65.4236 39.3288 65.4272 39.3217 65.4343 39.3181C66.4899 37.8668 67.2137 36.1694 67.5133 34.4221L67.5097 34.4114ZM18.4565 6.90365C18.5421 6.83946 18.6027 6.75388 18.6419 6.66473C18.0393 9.00756 19.6226 12.1064 22.0367 13.2189C22.7428 13.5648 23.5095 13.7931 24.3475 13.8109C23.9124 14.0177 23.4881 14.2424 23.0744 14.4884C23.0102 14.4456 22.9389 14.41 22.8498 14.3886C21.1381 14.0035 19.5513 12.9586 18.5029 11.4681C18.2461 11.1043 17.6791 11.4645 17.9002 11.8496C18.6562 13.1762 19.8151 14.303 21.1987 15.0411C20.457 14.8094 19.751 14.4528 19.1162 13.9749C18.9736 13.8679 18.7632 13.8822 18.6384 14.0177C18.5029 14.1639 18.5136 14.3886 18.6562 14.5205C19.323 15.1374 20.1111 15.6474 20.9705 16.0004C20.8421 16.1145 20.7102 16.225 20.5854 16.3427C20.5533 16.3142 20.5141 16.2892 20.4748 16.2678C19.6903 15.8791 18.9451 15.3977 18.2961 14.8165C16.7948 13.4614 15.1259 10.8369 16.4525 9.08957C16.5559 9.74571 16.8875 10.3697 17.3725 10.8048C17.5008 10.926 17.7041 10.9332 17.8467 10.8155C18.0001 10.6871 18.0179 10.4589 17.886 10.3091C17.6649 10.0488 17.5044 9.74927 17.426 9.4426C17.1692 8.49406 17.7505 7.49916 18.453 6.90721L18.4565 6.90365ZM15.7179 18.1399C16.7021 18.3325 17.4581 19.1313 17.6542 20.0941C17.672 20.1832 17.7148 20.2581 17.7719 20.3187C17.6364 20.6361 17.508 20.9606 17.401 21.2958C17.0551 20.3901 16.2991 19.6448 15.3506 19.388C14.9013 19.2668 14.7051 19.9301 15.1473 20.0727C16.0103 20.3223 16.6415 21.0783 16.7948 21.9413C14.0633 20.7288 11.3175 22.1909 9.77344 24.7512C8.84629 26.1598 8.45047 27.793 8.42194 29.4511C8.26861 27.9035 8.36132 26.3773 9.13157 24.9723C9.58801 24.0986 10.2299 23.3177 10.9894 22.6616C11.3389 22.3549 10.8896 21.8343 10.533 22.1124C10.0694 22.4797 9.67002 22.872 9.32056 23.282C9.45963 22.5689 9.98383 20.7288 11.7811 19.6519C12.9043 18.9779 14.0347 18.8924 14.7836 18.9352C14.9833 18.9494 15.1509 18.7961 15.1616 18.6C15.1723 18.4038 15.0225 18.2327 14.8264 18.222C14.4805 18.2006 14.0597 18.2077 13.5997 18.2719C13.6354 18.2255 13.6675 18.172 13.7031 18.1257C15.2721 16.2678 17.4866 16.5638 18.6812 18.6071C18.5599 18.7925 18.4494 18.9815 18.3388 19.1741C17.8325 18.2434 16.8911 17.5444 15.8355 17.4303C15.3898 17.3804 15.2757 18.0365 15.7179 18.1328V18.1399ZM12.0842 50.3904C13.4285 50.2406 14.7408 49.7735 15.8641 49.0032C16.3455 48.6787 16.7948 48.3114 17.2084 47.9014C17.1264 48.4434 17.0943 48.9961 17.105 49.5453C17.0836 49.5524 17.0587 49.5524 17.0373 49.5631C16.0709 49.9054 15.2293 50.1871 14.3058 50.3155C13.5676 50.426 12.8223 50.4474 12.0842 50.3904ZM12.6904 47.1703C12.4907 47.1846 12.3409 47.3665 12.3623 47.5662C12.3837 47.7623 12.562 47.9014 12.7581 47.88C13.5605 47.7872 14.3485 47.6018 15.1045 47.3023C15.4005 47.1882 15.6893 47.0527 15.9711 46.9029C13.6888 49.4668 9.77344 49.9518 6.79587 48.3471C7.68022 48.2437 8.55388 48.0511 9.39901 47.7623C12.9115 46.6319 15.6073 43.6222 16.3312 40.0028C16.4774 40.0206 16.6272 40.0349 16.777 40.0456C17.1799 40.5412 17.6827 40.9692 18.2889 41.2901C18.2889 41.3043 18.2889 41.315 18.2889 41.3293C18.264 41.4078 18.2426 41.4898 18.2354 41.5861C18.1962 42.2565 18.0143 42.9411 17.7255 43.5759C16.8518 45.5478 14.8478 46.9849 12.6904 47.1703ZM10.1835 41.989C9.23498 43.9788 6.79587 44.9701 4.83103 43.8397C4.75258 43.8005 4.67413 43.7791 4.59924 43.7649C5.51213 43.6543 6.40718 43.4047 7.24161 42.9482C8.28643 42.3884 9.17792 41.4399 9.59514 40.2988C10.1122 38.7297 10.0872 37.0858 9.81623 35.4812C10.0088 35.8413 10.2263 36.1801 10.4617 36.5081C10.9538 37.988 11.1 39.5927 10.8325 41.1581C10.8004 41.3436 10.9181 41.5219 11.1035 41.5647C11.2961 41.611 11.4887 41.4898 11.5314 41.2972C11.7953 40.2025 11.8702 39.0649 11.7668 37.9417C12.7653 38.8224 13.967 39.4608 15.3078 39.8031C14.9583 41.6788 14.0633 43.4618 12.6904 44.7918C11.4815 45.9936 9.94104 46.8137 8.29713 47.2773C10.344 46.5356 11.995 44.7633 12.5228 42.6487C12.6333 42.2279 12.0093 42.0211 11.8453 42.4241C11.0893 44.232 9.55235 45.6905 7.67309 46.2503C7.34502 46.3787 7.01696 46.4072 6.69602 46.4571C6.35369 46.4464 6.02919 46.3288 5.96857 46.0257C5.9543 45.9508 5.9757 45.8295 6.05772 45.7261C6.11477 45.6548 6.19322 45.5978 6.2895 45.5585C8.32209 45.5657 10.1407 44.1428 10.8361 42.2779C10.9966 41.8642 10.3832 41.5932 10.1835 41.989ZM12.0877 36.2585C12.4265 36.4012 13.671 36.9539 14.0561 37.0537C14.6017 37.1928 15.158 37.3069 15.7286 37.3176C15.7571 37.5351 15.807 38.0415 15.8641 38.2519C14.8228 38.0486 12.7439 37.4638 12.0877 36.255V36.2585ZM14.3949 23.9239C13.5783 23.5103 12.7902 23.4104 12.1412 23.4354C13.4606 22.305 15.1651 21.8771 17.0159 22.8613C16.8839 23.603 16.8197 24.3804 16.8304 25.1934C16.6807 25.4359 16.5416 25.6926 16.4168 25.9565C16.0638 25.279 15.4504 24.4552 14.3985 23.9239H14.3949ZM16.5844 15.7757C16.0602 15.7151 15.5253 15.7793 15.0154 15.9576C14.2844 15.0697 14.1132 13.8216 14.5019 12.7447C14.5161 12.841 14.5304 12.9372 14.5518 13.0335C14.7943 14.1817 15.5467 15.1553 16.5844 15.7757ZM15.2472 11.5893C15.3648 12.1349 15.5752 12.6876 15.8605 13.2225C16.267 14.0462 16.8197 14.7808 17.4652 15.4263C16.3312 14.9484 15.4897 14.0141 15.2507 12.8873C15.1509 12.4202 15.1723 11.9816 15.2507 11.5893H15.2472ZM18.0643 16.3605C18.1998 16.3891 18.3353 16.414 18.4708 16.4354C18.4886 16.4354 18.5029 16.4354 18.5207 16.4354C18.5564 16.4354 18.5885 16.4283 18.6206 16.4176C18.995 16.6922 19.3872 16.9454 19.7902 17.17C19.5905 17.3947 19.4015 17.6229 19.2196 17.8582C19.1305 17.6692 19.0306 17.5016 18.9771 17.3875C18.7204 16.9525 18.4102 16.6102 18.0643 16.3534V16.3605ZM12.3374 54.1525C11.9772 54.0134 12.0735 53.4642 12.4515 53.45C13.5676 53.3537 14.4805 53.0862 15.4469 52.5193C15.7749 52.3124 16.16 52.7225 15.939 53.0363C15.183 54.1382 13.5819 54.6481 12.3338 54.156L12.3374 54.1525ZM15.7785 58.7704C15.3791 58.8274 15.2115 58.2604 15.5681 58.0893C16.645 57.5116 17.2976 56.6237 17.6542 55.4612C17.7505 55.0796 18.3246 55.126 18.3674 55.5111C18.5671 57.0338 17.2833 58.5849 15.7821 58.7704H15.7785ZM19.8651 59.9721C19.6333 60.3857 18.2497 61.887 17.8681 61.1881C17.7861 61.0276 17.8396 60.8351 17.9822 60.7352C18.428 60.4143 18.7739 59.9828 18.9878 59.505C19.291 58.8666 20.2288 59.3694 19.8651 59.9757V59.9721ZM25.0107 58.8773C25.0428 59.3267 25.7061 59.316 25.7239 58.8666C25.7738 56.9553 26.134 55.0653 26.783 53.2966C28.188 53.3216 29.5965 53.2431 30.9908 53.0791C31.4223 53.2538 31.7218 53.4928 31.8788 53.7923C32.1712 54.3522 31.8681 54.9691 31.1584 56.3027C30.8304 56.9196 30.4238 57.6863 30.0066 58.6277C29.2578 60.318 28.9154 61.5982 28.6658 62.5324C28.3235 63.8126 28.1523 64.4581 27.35 64.9074C26.1875 65.5635 24.6434 65.3032 23.7056 64.7826C21.3663 63.4881 21.2879 59.9329 21.2487 58.0251C21.213 56.2849 21.5125 54.5483 22.1473 52.858C23.2777 53.0506 24.4188 53.1825 25.567 53.2467C25.0927 55.0903 24.9073 56.9981 25.0107 58.8738V58.8773ZM20.6175 56.2421C19.9364 55.4683 19.4015 54.5839 19.0556 53.639C18.8666 53.1255 18.7311 52.5906 18.6526 52.045C19.5655 52.3196 20.4927 52.5513 21.4341 52.7368C21.0133 53.8886 20.7423 55.0618 20.6175 56.2457V56.2421ZM40.9256 59.6619C40.9862 58.5778 40.708 57.4652 40.0091 56.4739C39.7452 56.0995 39.1782 56.4703 39.41 56.8626C40.8471 59.1805 40.0269 61.9976 37.8161 63.399C37.8909 62.7428 37.8802 62.0796 37.7804 61.4377C37.4916 59.587 36.5501 58.2569 35.8084 57.4617C35.6836 57.2691 35.5766 57.13 35.5196 57.0516C35.3983 56.8982 35.1737 56.8697 35.0204 56.991C34.867 57.1122 34.8385 57.3369 34.9597 57.4902C35.245 57.8539 36.6464 59.7938 36.0295 62.2365C35.6016 63.9339 34.325 65.3174 32.6561 65.9771C32.6668 65.9593 32.6811 65.9451 32.6954 65.9272C33.1554 65.2461 33.2302 64.508 33.2088 64.0052C33.2017 63.8091 33.0377 63.6593 32.838 63.6628C32.6419 63.67 32.4885 63.834 32.4957 64.0337C32.5099 64.426 32.4529 65.0072 32.1034 65.5278C31.6933 66.134 30.998 66.512 30.1885 66.6155C31.4009 65.6277 31.7718 63.9196 32.1926 61.9797C32.542 60.375 32.9343 58.56 33.8543 56.7021C34.8741 54.6481 36.436 52.7938 38.5043 51.1927C38.6612 51.0715 38.6897 50.8468 38.5685 50.6935C38.4758 50.5758 38.326 50.533 38.1869 50.5723C38.1869 50.5723 38.1833 50.5723 38.1798 50.5723C32.2603 51.9166 26.2018 52.0414 20.2645 51.0216C20.0469 49.3028 20.3679 47.5091 21.2059 45.9615C21.4163 45.5514 20.8243 45.2198 20.5854 45.6084C19.6582 47.1668 19.2089 49.0139 19.3088 50.8433C19.2375 50.829 19.1661 50.8183 19.0913 50.804C18.6669 50.7185 18.3353 50.3726 18.2818 49.9411C17.9038 46.8637 19.2696 43.6186 21.8049 41.7786L21.9761 41.6502C21.5268 38.4409 24.0158 35.7415 27.2252 35.7771C27.703 35.7843 27.7173 35.0782 27.2395 35.0639C27.0041 35.0604 26.7652 35.0711 26.5334 35.096C26.1518 35.1353 25.8273 34.8179 25.838 34.4363C25.8416 34.1903 25.9842 33.9621 26.2089 33.8622C26.3087 33.8159 26.4122 33.7766 26.5191 33.7445C27.1503 33.5413 27.7173 33.5841 28.081 33.6518C28.2771 33.6875 28.4626 33.5627 28.4982 33.3701C28.5339 33.1776 28.4091 32.9886 28.2165 32.9529C27.7708 32.8673 27.0754 32.8174 26.3016 33.067C26.1518 33.1169 26.0876 33.1597 25.9628 33.0955C25.8701 33.0456 25.8701 32.8424 25.8701 32.8424C25.8737 32.6355 25.9949 32.4501 26.1839 32.3574C26.7081 32.0935 27.539 31.876 28.5624 31.9937C29.7998 32.1363 30.6164 32.8317 31.0158 33.2738C31.1406 33.4129 31.1549 33.6162 31.0515 33.7731C30.9302 33.9585 30.677 34.0155 30.4916 33.8943C30.2135 33.7124 29.9246 33.552 29.6215 33.42C29.4432 33.3416 29.2293 33.42 29.1508 33.6019C29.0723 33.7838 29.1508 33.9942 29.3327 34.0726C29.5787 34.1796 29.8176 34.3115 30.0459 34.4577C30.2598 34.5932 30.3204 34.8785 30.1814 35.0925V35.0996C30.0637 35.2743 29.8462 35.3385 29.65 35.2779C29.3113 35.1709 28.9511 35.096 28.5767 35.0532C28.1523 34.9962 28.0168 35.6309 28.4305 35.7522C30.2919 36.3013 31.6327 37.2962 31.2618 39.3859C31.1798 39.96 30.9873 40.5341 30.7234 41.0975C30.6521 41.2402 30.6842 41.422 30.8125 41.529C31.4294 42.0318 32.1926 40.0563 32.271 39.5713C32.2746 39.5499 32.2781 39.5321 32.2817 39.5107C33.5405 40.2453 34.6138 41.2544 35.3841 42.449C37.0209 44.9808 36.9388 47.6089 36.7427 48.9462C36.7142 49.1387 36.8461 49.317 37.0351 49.3491C37.8196 49.4846 38.5792 49.72 39.2995 50.0552C39.4564 50.1301 39.6133 50.2085 39.7666 50.2905C39.6561 50.4118 39.6347 50.5936 39.7345 50.7327C40.2659 51.4744 40.6688 52.291 40.9363 53.1611C41.1253 53.7816 41.2394 54.4199 41.2822 55.0653C40.6688 54.0597 39.8629 53.4749 39.5527 53.2752C39.3886 53.1683 39.1675 53.2182 39.0606 53.3822C38.9536 53.5463 39.0035 53.7673 39.1675 53.8743C39.5669 54.1311 40.9006 55.1046 41.2501 56.9232C41.4605 58.0215 41.2287 58.9665 40.922 59.6619H40.9256ZM22.5716 32.3003C23.4096 32.3003 24.0907 32.9814 24.0907 33.8194C24.0907 34.6574 23.4096 35.3385 22.5716 35.3385C21.7336 35.3385 21.0525 34.6574 21.0525 33.8194C21.0525 32.9814 21.7336 32.3003 22.5716 32.3003ZM19.8223 30.8989C19.7224 30.9845 19.6012 31.0237 19.4799 31.0237C19.3266 31.0237 19.1768 30.9595 19.0699 30.8347C18.8809 30.6101 18.9094 30.2713 19.1341 30.0823C19.5406 29.74 20.4071 29.1552 21.6373 29.0874C22.7713 29.0268 23.6414 29.4404 24.0622 29.6936C24.3154 29.847 24.3974 30.175 24.2441 30.4282C24.0907 30.6814 23.7627 30.7634 23.5095 30.6101C23.1957 30.4211 22.5395 30.1144 21.6944 30.1572C20.7744 30.2071 20.1254 30.6457 19.8187 30.9025L19.8223 30.8989ZM35.0239 36.1123C35.3199 36.2906 35.6444 36.4119 35.9867 36.4689C36.4218 36.5438 36.8782 36.5081 37.3061 36.3691C37.5236 36.2978 37.7626 36.419 37.8339 36.6365C37.9052 36.8576 37.784 37.093 37.5664 37.1643C37.2027 37.282 36.8212 37.3426 36.4396 37.3426C36.2435 37.3426 36.0438 37.3248 35.8512 37.2927C35.4055 37.2178 34.9847 37.0609 34.596 36.8255C34.3999 36.7078 34.3357 36.4511 34.4534 36.2514C34.571 36.0553 34.8278 35.9911 35.0275 36.1088L35.0239 36.1123ZM34.5746 33.8194C34.5746 32.9814 35.2557 32.3003 36.0937 32.3003C36.9317 32.3003 37.6128 32.9814 37.6128 33.8194C37.6128 34.6574 36.9317 35.3385 36.0937 35.3385C35.2557 35.3385 34.5746 34.6574 34.5746 33.8194ZM36.2934 30.3605C35.4162 30.3997 34.7814 30.8026 34.4819 31.0415C34.2501 31.2234 33.9149 31.1842 33.7295 30.956C33.5476 30.7242 33.5833 30.389 33.8151 30.2036C34.2144 29.8862 35.0631 29.3442 36.2435 29.2942C37.6556 29.2336 38.6683 29.9111 39.0427 30.2036C39.2745 30.3854 39.3138 30.7242 39.1319 30.956C39.0249 31.0915 38.8716 31.1592 38.7111 31.1592C38.5934 31.1592 38.4793 31.12 38.3795 31.0451C38.1013 30.824 37.3382 30.3177 36.2898 30.364L36.2934 30.3605ZM56.2663 51.2034C56.1343 51.2783 56.0274 51.3817 55.9453 51.4994C55.0075 51.3282 54.0946 51.0893 53.3137 50.6614C51.3203 49.6629 50.9423 47.8158 51.2205 45.6655C51.5236 43.3334 51.6947 40.6197 50.0259 38.6263C49.2841 37.6564 48.1644 37.232 47.3585 36.4261C45.8537 34.9177 44.8481 32.8958 44.3061 30.8169C44.3061 30.8062 44.299 30.8026 44.2954 30.7919C44.2669 30.6885 44.1991 30.5994 44.0921 30.553C43.9103 30.4781 43.6999 30.5637 43.625 30.7456C43.2577 31.6335 43.1044 32.607 43.1864 33.5627C43.2898 34.7965 43.7534 35.7415 44.1242 36.3156C44.192 36.4226 44.3061 36.4796 44.4238 36.4796C44.4915 36.4796 44.5557 36.4618 44.6163 36.4226C44.7804 36.3156 44.8303 36.0945 44.7233 35.9305C44.3952 35.4241 43.9887 34.5897 43.896 33.5021C43.8675 33.1633 43.8746 32.8459 43.9031 32.5499C44.3417 34.2901 45.1476 35.959 46.3886 37.3568C46.7915 37.8169 47.3086 38.2269 47.7651 38.5514C50.1649 40.1597 49.9367 42.9269 49.6158 45.5157C49.4767 46.8851 49.4945 48.422 50.1863 49.6736C50.7284 50.6792 51.6626 51.4851 52.6861 51.9344C53.6275 52.3552 54.5974 52.5656 55.5602 52.6655C55.1287 53.1112 54.2943 53.7852 53.0569 53.9349C51.6305 54.1097 50.5287 53.4785 49.9652 53.047C49.8939 52.99 49.8226 52.9329 49.7513 52.8723C49.6764 52.8081 49.6194 52.7546 49.5837 52.719C49.5623 52.6976 49.5409 52.6869 49.5159 52.6797C49.0167 52.2482 48.5674 51.7775 48.1823 51.264C45.8323 48.1545 47.9113 45.448 47.6937 42.1067C47.4762 39.5249 45.4543 37.4745 43.165 36.5402C42.7585 36.3655 42.4661 36.9468 42.8369 37.175C45.1619 38.5443 46.8415 40.7766 46.4207 43.4867C46.2638 44.8097 45.8145 46.2788 45.8145 47.6945C45.7717 49.1601 46.2745 50.4581 47.0804 51.5743C47.2694 52.1484 47.5654 52.7689 48.0218 53.3715C48.3249 53.7709 48.653 54.1025 48.981 54.3771C48.3641 54.0562 47.7865 53.6461 47.2837 53.1433C47.1588 53.0185 46.9556 53.0007 46.8129 53.1148C46.656 53.236 46.6275 53.4607 46.7488 53.6176C47.4263 54.4948 48.3106 55.2222 49.3162 55.75C48.521 55.8926 46.517 56.0674 44.627 54.7694C42.9439 53.614 42.3163 51.9451 42.0845 50.9431C42.1487 51.075 42.22 51.2034 42.2913 51.3282C42.9118 52.423 43.7783 53.3573 44.791 54.0491C44.9408 54.1489 45.1476 54.1239 45.2653 53.9849C45.3937 53.8351 45.3723 53.6069 45.2225 53.4821C43.8247 52.3231 42.9296 50.6543 42.6729 48.8856C43.3326 50.5901 44.4309 52.1163 45.9072 53.2217C46.2709 53.4999 46.6988 52.9579 46.3565 52.6655C45.7895 52.1805 45.2831 51.6349 44.8517 51.0323C43.5537 49.2457 42.9902 46.9813 43.1614 44.7954C43.2006 44.3818 42.762 44.043 42.3733 44.1963C39.9021 45.2839 37.7626 43.1729 37.1314 40.88C38.4758 42.1103 40.3835 42.6879 42.1986 42.3634C42.6729 42.2779 42.5374 41.5718 42.0702 41.6609C40.0769 42.0924 37.8339 40.9692 37.0886 39.0685C37.1136 39.015 37.2063 38.9259 37.2241 38.8759C37.0886 38.6655 36.9103 38.5086 36.6928 38.3624C39.4921 38.3125 41.7457 36.0339 41.7457 33.2239C41.7457 33.0527 41.735 32.8816 41.7208 32.714C41.6994 32.2433 41.6281 31.555 41.4034 30.7563C41.2073 30.0609 40.4263 27.3223 37.8268 25.9173C37.3418 25.657 36.4753 25.2718 35.2664 25.1542C35.1523 25.1399 35.0382 25.1363 34.9205 25.1328C34.8741 25.1328 34.8278 25.1256 34.7814 25.1221C34.7493 25.1221 34.7208 25.1221 34.6887 25.1221C33.7473 25.1221 32.863 25.3788 32.1034 25.8246V25.8174C31.9786 25.8816 31.7753 25.985 31.5222 26.1098C31.0372 26.3523 30.6093 26.5627 30.5593 26.5877C29.9745 26.873 28.3627 27.1689 26.6011 26.7196C25.4993 26.4379 24.9822 26.0314 23.5202 25.8923C23.267 25.8674 23.0566 25.8602 22.9211 25.8567C22.7678 25.8531 22.6109 25.846 22.4539 25.8567C19.7545 25.9565 17.5365 28.1924 17.4545 30.8953C17.4402 31.3411 17.4866 31.7761 17.5793 32.1898C17.6863 32.6712 18.1249 33.0028 18.6134 33.0135C18.5671 33.2417 18.5421 33.4735 18.5421 33.716C18.5421 35.5846 19.9899 37.1072 21.8228 37.2392C21.7336 37.4995 21.5732 37.7955 21.2843 38.0272C20.6995 38.4979 19.8151 38.5372 19.0841 38.1235C18.913 38.0272 18.6954 38.0879 18.5992 38.259C18.5029 38.4302 18.5635 38.6477 18.7347 38.744C19.1804 38.9972 19.6725 39.122 20.1539 39.122C20.4035 39.122 20.6496 39.0828 20.8849 39.015C20.8849 39.0186 20.8849 39.0221 20.8849 39.0257C20.8457 39.6177 20.4499 40.1098 19.9007 40.1775C19.8544 40.124 19.7973 40.0777 19.7331 40.042L19.4764 39.8994H19.4692C18.8773 39.7282 18.3602 39.3894 17.9573 38.9508C17.9002 38.7832 17.7933 38.637 17.6364 38.5372C17.1549 37.8097 16.9481 36.904 17.1621 36.0125C17.2762 35.4455 17.5365 34.9035 17.8967 34.4292C18.0571 34.2402 18.0821 33.9621 17.9395 33.741C17.2227 32.6498 16.752 31.3767 16.6486 30.0787C16.3847 25.903 19.2196 21.8592 23.7627 23.5138C24.1977 23.6672 24.4437 23.0253 24.0158 22.847C21.3628 21.8022 19.1305 22.5296 17.6292 24.1486C18.2782 18.468 22.8783 14.6453 28.4661 13.5755C30.4024 13.2047 32.378 13.1013 34.3785 13.0906C34.5496 13.0906 34.703 12.9693 34.7351 12.791C34.7672 12.5949 34.6388 12.413 34.4427 12.3774C33.2053 12.1813 31.9429 12.1278 30.6877 12.2062C30.3846 11.8318 30.0601 11.2969 29.889 10.6051C29.5787 9.36772 29.9246 8.32646 30.16 7.81296C30.242 7.63467 30.16 7.42071 29.9852 7.34226C29.8069 7.26024 29.593 7.34226 29.5145 7.51699C29.2435 8.1125 28.8406 9.32849 29.2007 10.7763C29.3505 11.3789 29.6001 11.8746 29.864 12.274C29.4539 12.3168 29.0474 12.3774 28.6409 12.4487C27.5675 12.4095 26.4977 12.438 25.4279 12.4844L24.9002 12.5058C24.1121 12.5628 23.3633 12.3595 22.6536 12.0101C20.2181 10.8725 18.5421 7.17822 20.6104 5.34533C20.3786 5.92658 20.2859 6.56132 20.3572 7.19605C20.5497 8.85065 21.7978 10.195 23.4667 10.548C23.4916 10.5516 23.5166 10.5552 23.5416 10.5552C23.7056 10.5552 23.8554 10.4411 23.891 10.2735C23.9303 10.0809 23.809 9.89191 23.6164 9.85269C22.2471 9.56384 21.2237 8.46553 21.0668 7.1176C20.9883 6.42938 21.1559 5.74115 21.509 5.15633C21.5197 5.84456 21.6944 6.53992 22.0688 7.18536C22.3826 7.72025 22.7998 8.16599 23.2741 8.52615C23.4168 8.63313 23.6236 8.61887 23.7484 8.48693C23.8839 8.34429 23.8768 8.11607 23.7341 7.98056C22.1865 6.6362 22.3149 4.1757 23.7983 2.92761C24.9394 1.90419 26.6796 2.10388 27.7102 3.09521C27.6888 3.11304 27.6638 3.13444 27.6424 3.15227C25.8987 4.70346 25.0143 7.03559 25.189 9.33919C25.2283 9.77067 25.863 9.7671 25.9022 9.33919C26.2624 6.95714 27.2537 5.25618 28.7514 4.1436C29.4111 3.70499 29.6643 3.58375 30.2242 3.30204C30.7733 3.07025 31.3653 2.89195 32 2.76358C31.0586 3.516 30.2598 4.44314 29.6893 5.5058C29.4789 5.88379 30.028 6.23681 30.2883 5.89448C32.8843 2.58528 36.7712 1.41565 40.6189 2.3214C39.6668 2.54249 38.7432 2.86699 37.8695 3.34126C35.1416 4.77478 33.3158 7.75591 33.1411 10.7691C33.1126 11.2113 33.7687 11.2898 33.8472 10.8618C34.5033 7.17109 37.3596 4.3326 41.0539 3.78344C42.7585 3.50173 44.6377 3.3056 46.246 4.04732C47.1838 4.43958 47.9469 5.09571 48.6138 5.84099C45.843 5.24905 42.7264 5.88735 40.4406 7.4528C38.9072 8.49406 37.6199 9.86338 36.6678 11.4467C36.4432 11.8354 37.003 12.1955 37.2633 11.8389C38.301 10.466 39.5919 9.27144 41.0504 8.42274C44.4487 6.39372 49.7299 6.35449 52.2225 9.7564C52.2296 9.7671 52.2368 9.77423 52.2439 9.78493C49.5801 8.626 46.4314 8.56538 43.6856 9.47826C43.272 9.6209 43.436 10.2414 43.8603 10.1701C47.4263 9.61377 51.3988 10.2128 54.0554 12.7946C54.6901 13.4151 55.1858 14.089 55.7599 14.7416C52.5256 14.2602 48.7635 15.7864 46.4564 19.1455C46.1996 19.5235 46.7488 19.9194 47.0305 19.5699C47.1802 19.4059 47.519 19.0065 47.6688 18.846C48.0182 18.5001 48.464 18.0829 48.8598 17.7834C52.9999 14.549 59.4114 15.1553 60.3636 21.0783C60.4206 21.3707 60.4598 21.6702 60.4884 21.9698C60.4384 21.7023 60.36 21.4206 60.2352 21.1282C59.8501 20.2332 59.2331 19.684 58.7803 19.3845C58.6162 19.2739 58.3951 19.3203 58.2846 19.4807C58.1741 19.6448 58.2204 19.8659 58.3809 19.9764C58.684 20.1797 59.2438 20.6361 59.5755 21.4099C59.7431 21.7986 59.8144 22.1695 59.8322 22.494C59.6218 22.444 59.4079 22.3977 59.1904 22.3656C58.6876 21.4278 57.5821 19.873 55.521 19.1099C53.927 18.5179 52.4792 18.6641 51.545 18.8924C51.3524 18.9387 51.2347 19.1313 51.2811 19.3238C51.3274 19.5164 51.52 19.6341 51.7126 19.5877C52.5506 19.3845 53.8486 19.2525 55.2749 19.7803C56.8333 20.358 57.7818 21.4456 58.3131 22.2764C57.7604 22.2515 57.2006 22.2764 56.63 22.3727C55.8633 22.494 55.1537 22.74 54.5118 23.0788C54.4013 22.6651 54.2016 22.1695 53.8272 21.6952C53.0783 20.7502 52.1012 20.4329 51.5877 20.3294C51.3952 20.2902 51.2062 20.415 51.167 20.6076C51.1277 20.8001 51.2526 20.9891 51.4451 21.0284C51.7839 21.0961 52.6361 21.3422 53.2673 22.1374C53.6346 22.601 53.7986 23.0931 53.87 23.4639C53.032 24.0309 52.3223 24.7726 51.7589 25.6213C51.684 23.6137 50.8175 21.6346 49.2128 20.3794C48.8598 20.0905 48.4105 20.6112 48.7457 20.9178C51.167 23.0253 51.1777 26.6269 49.6978 29.2835C49.6764 29.2621 49.6586 29.2372 49.6407 29.2122C48.8705 28.3564 48.1145 27.5826 47.6688 26.5271C47.2195 25.5286 47.0091 24.4196 47.0198 23.3034C47.0162 22.8399 46.3351 22.8292 46.3066 23.2856C46.1568 25.8317 47.2016 28.0069 48.924 29.8184C50.0829 31.1557 50.7212 32.7889 50.9744 34.5041C50.2291 33.9193 49.4411 33.5092 48.7707 32.8388C47.2444 31.3874 46.2032 29.4725 45.5756 27.4578C45.5221 27.2866 45.3438 27.1761 45.1619 27.2153C44.9693 27.2545 44.8445 27.4435 44.8873 27.6396C45.1191 28.7379 45.5042 29.8113 46.0142 30.8276C46.8058 32.3324 47.9184 33.7588 49.3341 34.7287C52.522 36.715 53.5526 40.7445 53.3422 44.314C53.3065 44.8489 53.253 45.4052 53.253 45.99C53.253 47.7195 53.8664 49.4276 54.7935 50.8575C55.0503 51.2355 55.6137 50.8825 55.4069 50.4938C54.3549 48.6145 54.0376 46.5213 54.3977 44.4032C54.4476 43.8718 54.4655 43.3334 54.4583 42.7914C54.7222 42.8948 54.9897 42.9875 55.2607 43.0695C55.3177 43.501 55.3498 43.936 55.357 44.3711C55.3677 45.07 55.3106 45.7725 55.1965 46.4643C55.1644 46.6568 55.2928 46.8423 55.4889 46.8744C55.5103 46.8744 55.5281 46.8779 55.5495 46.8779C55.7207 46.8779 55.8705 46.7567 55.899 46.582C56.0238 45.8509 56.0808 45.1021 56.0702 44.3604C56.0666 43.9966 56.0416 43.6293 56.006 43.2656C56.4374 43.3655 56.8761 43.4332 57.3147 43.4689C57.4074 44.207 57.4181 44.9487 57.3432 45.6869C57.2077 46.9885 56.8119 48.233 56.17 49.3848C56.0737 49.556 56.1343 49.7735 56.3091 49.8698C56.3626 49.9019 56.4232 49.9161 56.4838 49.9161C56.6086 49.9161 56.7299 49.8484 56.794 49.7343C57.4823 48.4969 57.9066 47.1596 58.0564 45.7618C58.1348 45.0058 58.1241 44.2498 58.0386 43.4938C58.4593 43.4938 58.8801 43.4546 59.3009 43.3797C60.253 46.3395 58.9764 49.6701 56.2948 51.2034H56.2663ZM64.1969 46.8601C63.5907 49.3063 61.6402 50.4189 60.8628 50.7719C61.3656 50.0302 61.7721 49.2315 62.0645 48.397C62.4853 47.206 62.685 45.9543 62.6565 44.717C62.6422 44.2712 61.9861 44.2534 61.9433 44.6956C61.7935 46.4536 61.1267 48.1474 60.0711 49.5381C60.9341 47.5341 60.9234 45.1556 60.0533 43.2014C61.1267 42.8948 62.1216 42.3991 63.0095 41.7537C63.4659 42.3171 64.8388 44.2855 64.2005 46.8601H64.1969ZM64.9672 33.9692C64.1114 38.8866 59.226 43.1729 54.4405 39.9778C54.3121 39.8887 54.1873 39.828 54.0625 39.7853C53.7166 38.3624 53.1247 37.0109 52.2475 35.852C52.1512 34.2188 51.7268 32.5535 50.9459 31.095C51.2953 23.8383 58.8266 21.0498 63.2306 27.2866C64.5856 29.2051 65.363 31.6371 64.9672 33.9728V33.9692Z" fill="black"/>
<g clip-path="url(#clip0_18731_29968)">
<path d="M101.315 21.5709V21.5614L98.117 22.0402L94.8828 44.6688L98.117 44.152L98.6257 40.5592L101.728 40.093L102.24 43.5653L105.471 43.0801L102.24 21.4219L101.315 21.5709ZM99.0717 37.4198L100.178 29.6064L101.285 37.0869L99.0717 37.4198Z" fill="black"/>
<path d="M124.202 18.165L121.351 18.5931L118.15 19.072L115.672 19.443V22.5125L118.15 22.1415V41.1805L121.351 40.7017V21.6627L124.202 21.2346V18.165Z" fill="black"/>
<path d="M152 17.0696V14L146.672 14.7991L143.471 15.2779V18.3475V34.3169V37.3865L146.672 36.9077L152 36.1086V33.039L146.672 33.8381V27.3882L149.926 26.8998V23.8303L146.672 24.3186V17.8687L152 17.0696Z" fill="black"/>
<path d="M128.62 17.4801V17.4706L125.422 17.9494L122.188 40.578L125.422 40.0611L125.93 36.4683L129.032 36.0022L129.545 39.4745L132.775 38.9893L129.545 17.3311L128.62 17.4801ZM126.376 33.329L127.483 25.5155L128.59 32.996L126.376 33.329Z" fill="black"/>
<path d="M138.646 16.0032L136.637 16.3045L133.892 16.7167L133.439 16.7833V38.8919L136.637 38.413V32.0487L138.646 31.7475C140.681 31.4431 142.329 29.6134 142.329 27.66V18.9872C142.329 17.0338 140.681 15.6988 138.646 16.0032ZM139.131 27.4095C139.131 28.0691 138.573 28.6874 137.889 28.7889L136.641 28.976V19.374L137.889 19.1869C138.576 19.0855 139.131 19.5358 139.131 20.1953V27.4095Z" fill="black"/>
<path d="M115.167 31.7244V23.0516C115.167 21.0983 113.519 19.7632 111.484 20.0677L109.475 20.3689L106.73 20.7812L106.277 20.8477V42.9563L109.475 42.4775V36.1798L111.504 42.1762L114.734 41.7545L112.435 35.5456C114.008 34.9082 115.167 33.3607 115.167 31.7244ZM109.475 23.4385L110.724 23.2514C111.411 23.1499 111.966 23.6002 111.966 24.2598V31.4739C111.966 32.1335 111.408 32.7519 110.724 32.8533L109.475 33.0404V23.4385Z" fill="black"/>
<path d="M91.1572 23.1116L90.3016 23.2417L87.9594 33.8932L85.6171 23.9425L84.6855 24.082L82.3235 24.434L81.4844 24.5608V46.6694L84.6855 46.1905V33.3922L86.3142 39.5757L89.6045 39.081L91.1572 32.7263V45.2202L94.355 44.7414V22.6328L93.5919 22.747L91.1572 23.1116Z" fill="black"/>
<path d="M78.3914 35.938C77.2748 34.641 75.7585 33.7119 75.1275 32.1454C74.9921 31.8125 74.9227 31.3336 74.9227 30.8421C74.9227 28.9522 75.6759 28.727 76.0624 28.67C76.9412 28.5368 77.2913 29.1044 77.3078 30.303L77.3012 31.3178V33.677L80.509 33.1982V30.839C80.509 29.5452 80.4661 28.0516 79.845 26.8466C79.4915 26.0951 78.6689 25.3435 77.7406 25.1247C76.2276 24.7727 74.4833 25.1786 73.1421 26.3297C72.118 27.2144 71.5762 28.4226 71.3251 29.561C70.7536 32.1201 71.4539 34.5174 73.1321 36.1885C74.1926 37.3111 75.3191 38.0689 76.2045 39.2486C76.9412 40.2253 77.0931 41.4176 77.0931 42.6892C77.0931 44.2779 76.0888 44.6489 75.6296 44.7408C75.372 44.7821 74.2058 44.9279 74.2058 43.3202V39.0298L70.998 39.5086V41.8679C71.0311 44.5347 71.3945 48.0419 74.8599 47.9912C78.7152 47.8294 80.4892 45.1436 80.5486 41.6903C80.651 39.4801 79.7888 37.4125 78.3881 35.9317L78.3914 35.938Z" fill="black"/>
</g>
<defs>
<clipPath id="clip0_18731_29968">
<rect width="81" height="34" fill="white" transform="translate(71 14)"/>
</clipPath>
</defs>
</svg>
