<svg width="121" height="48" viewBox="0 0 121 48" fill="none" xmlns="http://www.w3.org/2000/svg">
<path d="M10.1359 42.9453C9.48199 42.9453 8.94346 42.7337 8.55879 42.3106C8.17413 41.8875 7.98179 41.3105 7.98179 40.5604V33.3094H12.4054V29.3282H7.98179V24.9814H2.75035V29.3282H0V33.3094H2.75035V40.6565C2.75035 42.7914 3.32735 44.3878 4.50058 45.4648C5.67381 46.5419 7.30863 47.0804 9.42429 47.0804C10.2128 47.0804 10.9822 46.9843 11.7323 46.7919C12.4824 46.5996 13.0978 46.3303 13.6171 45.9457L12.2516 42.2914C11.6746 42.7337 10.9629 42.9453 10.1167 42.9453H10.1359Z" fill="black"/>
<path d="M31.2339 29.5029C30.1183 28.9451 28.8489 28.6566 27.4257 28.6566C25.887 28.6566 24.5407 28.9836 23.3482 29.6183C22.752 29.9453 22.2135 30.3299 21.7519 30.7915V24.9639H16.5781V46.7936H21.7519V37.9463C21.7519 36.8115 21.925 35.9076 22.3096 35.2152C22.6751 34.5228 23.1751 34.0035 23.8483 33.6573C24.5022 33.3111 25.2331 33.1188 26.0601 33.1188C27.2141 33.1188 28.0988 33.465 28.7335 34.1574C29.3682 34.8498 29.676 35.9076 29.676 37.3501V46.7936H34.8497V36.5615C34.8497 34.7536 34.5227 33.2534 33.888 32.0994C33.2341 30.9454 32.3686 30.0799 31.2531 29.5029H31.2339Z" fill="black"/>
<path d="M44.7167 28.9238H39.543V46.7915H44.7167V28.9238Z" fill="black"/>
<path d="M78.8673 33.5262C79.5789 33.1415 80.3674 32.9492 81.2329 32.9492C82.06 32.9492 82.8101 33.1415 83.4832 33.5262C84.1756 33.9108 84.7526 34.5263 85.2335 35.3726L89.2147 33.18C88.5993 31.7375 87.5799 30.6219 86.1759 29.8334C84.7719 29.0448 83.1178 28.6602 81.2329 28.6602C79.3481 28.6602 77.5979 29.0641 76.0977 29.8526C74.5975 30.6412 73.4242 31.7375 72.578 33.103C71.7317 34.4686 71.3086 36.065 71.3086 37.8536C71.3086 39.6423 71.7317 41.2002 72.578 42.6043C73.4242 44.0083 74.5975 45.0853 76.0977 45.8739C77.5979 46.6625 79.3096 47.0471 81.2329 47.0471C83.1563 47.0471 84.7526 46.6432 86.1759 45.8547C87.5799 45.0661 88.5993 43.9506 89.2147 42.5273L85.2335 40.3347C84.7526 41.2002 84.1564 41.8157 83.4832 42.2196C82.7908 42.6043 82.0407 42.7966 81.2329 42.7966C80.3674 42.7966 79.5789 42.6043 78.8673 42.2196C78.1556 41.8349 77.5979 41.2772 77.1747 40.5271C76.7516 39.777 76.54 38.8922 76.54 37.8536C76.54 36.8151 76.7516 35.9303 77.1747 35.1995C77.5979 34.4686 78.1556 33.9108 78.8673 33.5262Z" fill="black"/>
<path d="M97.2183 31.315V28.9301H92.2754V46.7978H97.4491V38.3544C97.4491 36.6426 97.8915 35.3925 98.7378 34.5654C99.6033 33.7384 100.757 33.3345 102.219 33.3345C102.392 33.3345 102.584 33.3345 102.777 33.373C102.969 33.3922 103.161 33.4307 103.354 33.4691V28.6416C101.68 28.6416 100.238 28.9686 99.0647 29.6225C98.3146 30.0456 97.6992 30.6034 97.1991 31.2766L97.2183 31.315Z" fill="black"/>
<path d="M120.461 38.9307C120.076 38.2768 119.557 37.7767 118.903 37.4113C118.249 37.0459 117.557 36.7574 116.788 36.565C116.038 36.3727 115.268 36.2188 114.499 36.1034C113.73 35.988 113.018 35.8726 112.364 35.7765C111.71 35.6611 111.21 35.488 110.806 35.2572C110.402 35.0264 110.21 34.6802 110.21 34.2378C110.21 33.757 110.479 33.3531 110.998 33.0453C111.537 32.7376 112.402 32.5837 113.595 32.5837C114.383 32.5837 115.23 32.6799 116.095 32.8915C116.961 33.0838 117.826 33.43 118.672 33.9301L120.423 30.2373C119.557 29.7565 118.499 29.3718 117.249 29.0833C115.999 28.814 114.749 28.6602 113.518 28.6602C111.787 28.6602 110.325 28.9102 109.094 29.391C107.883 29.8719 106.94 30.5642 106.267 31.4297C105.613 32.2952 105.267 33.3146 105.267 34.4301C105.267 35.4495 105.459 36.2765 105.844 36.9305C106.229 37.5844 106.748 38.0844 107.402 38.4499C108.056 38.8153 108.767 39.1038 109.537 39.2961C110.306 39.4885 111.075 39.6423 111.845 39.7577C112.614 39.8731 113.326 39.9885 113.96 40.0847C114.595 40.1809 115.095 40.354 115.499 40.5655C115.884 40.7771 116.076 41.0848 116.076 41.508C116.076 42.0273 115.826 42.4119 115.326 42.7004C114.826 42.9889 113.98 43.1428 112.787 43.1428C111.71 43.1428 110.594 42.9889 109.479 42.662C108.363 42.335 107.383 41.9311 106.536 41.4503L104.844 45.143C105.69 45.7008 106.806 46.1624 108.19 46.5278C109.594 46.8933 111.037 47.0856 112.576 47.0856C114.364 47.0856 115.903 46.8356 117.134 46.3547C118.384 45.8739 119.346 45.2007 120 44.3352C120.653 43.489 121 42.5081 121 41.431C121 40.4117 120.807 39.5846 120.423 38.9307H120.461Z" fill="black"/>
<path d="M57.5664 5.17374C61.1053 5.17374 63.9711 8.0395 63.9711 11.5784C63.9711 15.1173 61.1053 17.9831 57.5664 17.9831C54.0275 17.9831 51.1617 15.1173 51.1617 11.5784C51.1617 8.0395 54.0275 5.17374 57.5664 5.17374ZM57.5664 0C51.1617 0 45.9688 5.19297 45.9688 11.5976C45.9688 18.0023 51.1617 23.1953 57.5664 23.1953C63.9711 23.1953 69.164 18.0023 69.164 11.5976C69.164 5.19297 63.9711 0 57.5664 0Z" fill="black"/>
<path d="M42.1241 26.8887C44.5282 26.8887 46.4708 24.9462 46.4708 22.542C46.4708 20.1379 44.5282 18.1953 42.1241 18.1953C39.7199 18.1953 37.7773 20.1379 37.7773 22.542C37.7773 24.9462 39.7199 26.8887 42.1241 26.8887Z" fill="black"/>
<path d="M66.8493 32.0844C66.1953 30.9304 65.3298 30.0649 64.2143 29.4879C63.0988 28.9301 61.8294 28.6416 60.4061 28.6416C58.8675 28.6416 57.5212 28.9686 56.3287 29.6033C55.6171 29.9879 55.0208 30.4688 54.5015 31.065V28.9109H49.5586V39.9507V44.7014V46.7593H54.7323V37.912C54.7323 36.7773 54.9054 35.8733 55.2709 35.1809C55.6363 34.4885 56.1364 33.9692 56.8095 33.623C57.4635 33.2768 58.1943 33.0845 59.0213 33.0845C60.1753 33.0845 61.0601 33.4307 61.6948 34.1231C62.3295 34.8155 62.6372 35.8733 62.6372 37.3158V46.7593H67.8109V36.5272C67.8109 34.7193 67.484 33.2191 66.8493 32.0651V32.0844Z" fill="black"/>
</svg>
