<svg width="238" height="52" viewBox="0 0 238 52" fill="none" xmlns="http://www.w3.org/2000/svg">
<path d="M36.9118 0.367188H6.76956L9.71602 10.6798H36.8823C38.2459 10.6798 39.5537 11.2212 40.5179 12.1854C41.4821 13.1496 42.0238 14.4574 42.0238 15.821V20.9478H16.3603C12.2733 20.9478 8.35351 22.5718 5.46358 25.4617C2.57364 28.3517 0.950012 32.2707 0.950012 36.3577C0.950012 40.4447 2.57364 44.3645 5.46358 47.2544C8.35351 50.1444 12.2733 51.7677 16.3603 51.7677H36.8823C40.9681 51.7638 44.8852 50.1392 47.7743 47.2501C50.6634 44.361 52.2883 40.4435 52.2922 36.3577V15.821C52.3 11.7326 50.6846 7.8084 47.8006 4.9106C44.9166 2.01281 41.0001 0.378894 36.9118 0.367188ZM42.0533 36.3138C42.0533 37.6775 41.5116 38.9852 40.5474 39.9494C39.5831 40.9137 38.2754 41.455 36.9118 41.455H16.3894C15.0219 41.455 13.7104 40.9121 12.7434 39.9451C11.7764 38.9781 11.2331 37.6663 11.2331 36.2987C11.2331 34.9312 11.7764 33.6201 12.7434 32.6531C13.7104 31.6861 15.0219 31.1424 16.3894 31.1424H42.0533V36.27V36.3138Z" fill="black"/>
<path d="M67.0231 20.9189H57.6534V31.1874H69.999L67.0231 20.9189Z" fill="black"/>
<path d="M104.488 36.4019H100.069V33.9266C99.3037 34.8941 98.3197 35.6659 97.1977 36.1782C96.0758 36.6905 94.8482 36.9287 93.6161 36.8731C90.8153 36.7697 88.1636 35.5842 86.2187 33.5662C84.2737 31.5482 83.187 28.8553 83.187 26.0526C83.187 23.2499 84.2737 20.5563 86.2187 18.5383C88.1636 16.5202 90.8153 15.3348 93.6161 15.2314C94.8543 15.1856 96.0856 15.4356 97.2078 15.9608C98.33 16.4861 99.3106 17.2711 100.069 18.2512V15.7616H104.488V36.4019ZM87.8703 26.0893C87.9422 27.3012 88.3675 28.4655 89.0935 29.4386C89.8195 30.4117 90.8146 31.1508 91.9558 31.565C93.0971 31.9791 94.3348 32.0503 95.5159 31.7693C96.697 31.4882 97.7699 30.8669 98.6023 29.9831C99.4347 29.0993 99.9901 27.9915 100.2 26.7957C100.41 25.5999 100.265 24.3688 99.7834 23.2543C99.3018 22.1399 98.5042 21.1908 97.4894 20.5244C96.4746 19.8579 95.287 19.5029 94.0729 19.5036C93.2219 19.4953 92.3782 19.6638 91.5954 19.9978C90.8127 20.3318 90.1079 20.8243 89.5251 21.4444C88.9424 22.0646 88.4942 22.7991 88.2095 23.601C87.9247 24.403 87.8092 25.2548 87.8703 26.1037V26.0893Z" fill="black"/>
<path d="M143.158 23.4662V36.4016H138.65V24.9545C138.65 21.4925 136.867 19.5623 133.847 19.5623C133.13 19.5295 132.414 19.6487 131.746 19.9119C131.078 20.1751 130.473 20.5762 129.971 21.0895C129.468 21.6027 129.081 22.2164 128.832 22.89C128.584 23.5636 128.48 24.2821 128.529 24.9984V36.4016H124.02V24.9545C124.02 21.4925 122.238 19.5623 119.232 19.5623C118.515 19.5276 117.799 19.6448 117.13 19.9061C116.462 20.1675 115.856 20.5676 115.352 21.0794C114.849 21.5912 114.459 22.2034 114.209 22.8763C113.958 23.5492 113.853 24.2676 113.9 24.984V36.3865H109.391V15.7612H113.811V18.2804C114.528 17.2865 115.481 16.4872 116.585 15.9548C117.688 15.4223 118.907 15.1736 120.131 15.2311C121.533 15.174 122.926 15.4822 124.174 16.1252C125.421 16.7683 126.48 17.7245 127.247 18.8998C128.062 17.6811 129.185 16.6997 130.502 16.0555C131.819 15.4112 133.283 15.1266 134.746 15.2311C135.853 15.1621 136.963 15.3267 138.003 15.7138C139.043 16.1008 139.99 16.702 140.783 17.4783C141.576 18.2546 142.197 19.1889 142.606 20.2205C143.015 21.2521 143.203 22.3574 143.158 23.4662Z" fill="black"/>
<path d="M194.459 26.1038C194.512 28.3055 193.907 30.4734 192.722 32.3298C191.538 34.1863 189.826 35.6472 187.807 36.5265C185.788 37.4058 183.553 37.6638 181.387 37.2667C179.22 36.8697 177.221 35.8355 175.645 34.2972C174.069 32.759 172.988 30.7862 172.538 28.6302C172.089 26.4742 172.292 24.2333 173.122 22.1935C173.952 20.1536 175.372 18.4069 177.199 17.1774C179.026 15.948 181.178 15.2912 183.381 15.2906C184.827 15.2386 186.269 15.4811 187.619 16.0027C188.969 16.5244 190.199 17.3145 191.235 18.3255C192.271 19.3365 193.091 20.5471 193.645 21.8841C194.199 23.2212 194.476 24.6566 194.459 26.1038ZM176.928 26.1038C176.954 27.3741 177.355 28.6088 178.079 29.6524C178.804 30.696 179.821 31.502 181.002 31.9702C182.183 32.4383 183.476 32.5475 184.719 32.2838C185.962 32.02 187.099 31.3951 187.988 30.4876C188.877 29.5801 189.479 28.4301 189.717 27.1822C189.956 25.9342 189.821 24.6438 189.329 23.4725C188.836 22.3011 188.01 21.3013 186.951 20.5979C185.893 19.8946 184.651 19.5192 183.381 19.5189C182.517 19.5 181.658 19.6583 180.858 19.9843C180.058 20.3103 179.333 20.7965 178.728 21.4137C178.123 22.0309 177.652 22.7658 177.342 23.5725C177.032 24.3791 176.892 25.2406 176.928 26.1038Z" fill="black"/>
<path d="M216.187 18.5763L213.315 21.6408C212.673 20.9744 211.904 20.4434 211.054 20.079C210.204 19.7147 209.289 19.5244 208.364 19.5194C206.709 19.655 205.165 20.4086 204.04 21.63C202.915 22.8514 202.29 24.4514 202.29 26.1122C202.29 27.7731 202.915 29.3731 204.04 30.5945C205.165 31.8159 206.709 32.5687 208.364 32.7044C210.26 32.6537 212.067 31.8849 213.418 30.5535L216.187 33.6474C215.222 34.7222 214.034 35.5732 212.706 36.1407C211.377 36.7082 209.941 36.9784 208.497 36.9327C207.042 36.9864 205.592 36.7466 204.232 36.227C202.872 35.7074 201.632 34.9187 200.583 33.9086C199.535 32.8985 198.702 31.6874 198.132 30.3478C197.563 29.0082 197.269 27.5678 197.269 26.1122C197.269 24.6566 197.563 23.2156 198.132 21.876C198.702 20.5364 199.535 19.3253 200.583 18.3152C201.632 17.3051 202.872 16.5171 204.232 15.9975C205.592 15.4778 207.042 15.2374 208.497 15.2911C209.941 15.2403 211.379 15.5088 212.708 16.0766C214.038 16.6444 215.225 17.4976 216.187 18.5763Z" fill="black"/>
<path d="M234.648 20.9773C232.709 19.8606 230.52 19.2529 228.283 19.2099C225.838 19.2099 224.409 20.1968 224.409 21.6701C224.409 23.1433 225.882 23.5115 227.797 23.7914L229.919 24.1159C234.338 24.7493 237.064 26.664 237.064 30.185C237.064 34.148 233.631 36.903 227.709 36.903C224.559 36.9685 221.468 36.0463 218.869 34.2659L220.947 30.8921C222.889 32.3774 225.296 33.1243 227.738 32.9991C230.803 32.9991 232.423 32.0412 232.423 30.4943C232.423 29.3305 231.304 28.5647 228.858 28.2111L226.707 27.9313C222.154 27.3125 219.724 25.2057 219.724 21.8909C219.724 17.8248 222.994 15.3053 228.239 15.3053C231.161 15.2354 234.045 15.9859 236.563 17.4712L234.648 20.9773Z" fill="black"/>
<path d="M163.726 18.3105V10.7387L168.219 9.14746V36.4022H163.726V33.9269C162.957 34.8947 161.971 35.6663 160.847 36.1785C159.722 36.6907 158.492 36.929 157.258 36.8734C154.484 36.7286 151.871 35.5245 149.959 33.5097C148.047 31.4949 146.98 28.8229 146.98 26.045C146.98 23.2671 148.047 20.5951 149.959 18.5803C151.871 16.5655 154.484 15.3621 157.258 15.2173C158.505 15.1802 159.742 15.441 160.867 15.9791C161.992 16.5173 162.972 17.3167 163.726 18.3105ZM151.586 26.104C151.658 27.3153 152.083 28.479 152.808 29.4518C153.534 30.4247 154.528 31.1644 155.668 31.579C156.809 31.9936 158.046 32.0653 159.226 31.7854C160.407 31.5055 161.48 30.886 162.313 30.0036C163.146 29.1212 163.703 28.0146 163.914 26.8197C164.126 25.6249 163.983 24.3938 163.504 23.2791C163.024 22.1644 162.229 21.2145 161.216 20.5463C160.203 19.8781 159.017 19.5212 157.803 19.5191C156.953 19.5111 156.11 19.6788 155.328 20.0118C154.545 20.3448 153.84 20.8358 153.257 21.4541C152.673 22.0724 152.223 22.8047 151.936 23.605C151.648 24.4052 151.529 25.2556 151.586 26.104Z" fill="black"/>
</svg>
