<svg width="165" height="58" viewBox="0 0 165 58" fill="none" xmlns="http://www.w3.org/2000/svg">
<path d="M50.7011 45.6814L51.2246 45.0869L48.9909 43.3008L48.4674 43.8953L50.7011 45.6814Z" fill="black"/>
<path d="M52.9221 47.4656L53.4456 46.8711L52.2431 45.9096L51.7196 46.5041L52.9221 47.4656Z" fill="black"/>
<path d="M47.0775 42.7952L47.601 42.2007L44.0671 39.3751L43.5437 39.9696L47.0775 42.7952Z" fill="black"/>
<path d="M52.1602 43.9082L52.6273 43.2725L50.2387 41.6787L49.7716 42.3144L52.1602 43.9082Z" fill="black"/>
<path d="M54.554 45.5019L55.0211 44.8662L53.7353 44.0083L53.2682 44.644L54.554 45.5019Z" fill="black"/>
<path d="M48.3078 41.3344L48.7749 40.6987L44.9961 38.1774L44.529 38.8131L48.3078 41.3344Z" fill="black"/>
<path d="M53.4704 42.0207L53.8776 41.3486L51.3523 39.9593L50.9451 40.6314L53.4704 42.0207Z" fill="black"/>
<path d="M56.0014 43.4069L56.4086 42.7349L55.0492 41.987L54.642 42.659L56.0014 43.4069Z" fill="black"/>
<path d="M49.3943 39.7736L49.8015 39.1016L45.8065 36.9036L45.3993 37.5757L49.3943 39.7736Z" fill="black"/>
<path d="M54.6006 40.0305L54.9448 39.3271L52.3021 38.1528L51.9579 38.8562L54.6006 40.0305Z" fill="black"/>
<path d="M57.2486 41.2063L57.5928 40.5029L56.1701 39.8708L55.826 40.5741L57.2486 41.2063Z" fill="black"/>
<path d="M50.3315 38.1325L50.6757 37.4292L46.4948 35.5714L46.1506 36.2748L50.3315 38.1325Z" fill="black"/>
<path d="M55.5404 37.9509L55.819 37.2217L53.0789 36.2713L52.8003 37.0006L55.5404 37.9509Z" fill="black"/>
<path d="M58.2798 38.9036L58.5583 38.1743L57.0833 37.6627L56.8048 38.392L58.2798 38.9036Z" fill="black"/>
<path d="M51.1188 36.4163L51.3973 35.687L47.0625 34.1835L46.7839 34.9128L51.1188 36.4163Z" fill="black"/>
<path d="M56.2943 35.8092L56.5051 35.0596L53.6885 34.3404L53.4778 35.09L56.2943 35.8092Z" fill="black"/>
<path d="M59.1099 36.525L59.3207 35.7754L57.8045 35.3883L57.5937 36.1379L59.1099 36.525Z" fill="black"/>
<path d="M51.7355 34.6417L51.9463 33.8921L47.4904 32.7544L47.2796 33.504L51.7355 34.6417Z" fill="black"/>
<path d="M56.8465 33.6046L56.9879 32.8403L54.1163 32.3578L53.9748 33.1221L56.8465 33.6046Z" fill="black"/>
<path d="M59.713 34.0914L59.8544 33.3271L58.3085 33.0674L58.1671 33.8317L59.713 34.0914Z" fill="black"/>
<path d="M52.2012 32.8277L52.3427 32.0635L47.7997 31.3001L47.6583 32.0644L52.2012 32.8277Z" fill="black"/>
<path d="M57.1863 31.3683L57.2573 30.5952L54.3525 30.353L54.2815 31.1261L57.1863 31.3683Z" fill="black"/>
<path d="M60.0883 31.6076L60.1593 30.8345L58.5956 30.7041L58.5246 31.4772L60.0883 31.6076Z" fill="black"/>
<path d="M52.4903 30.9752L52.5613 30.2021L47.9658 29.819L47.8948 30.5921L52.4903 30.9752Z" fill="black"/>
<path d="M57.3285 29.1081V28.332H54.4126V29.1081H57.3285Z" fill="black"/>
<path d="M60.2507 29.1115V28.3354H58.681V29.1115H60.2507Z" fill="black"/>
<path d="M52.6222 29.1081V28.332H48.0091V29.1081H52.6222Z" fill="black"/>
<path d="M57.2673 26.8488L57.1963 26.0757L54.2914 26.3179L54.3624 27.091L57.2673 26.8488Z" fill="black"/>
<path d="M60.1744 26.6061L60.1034 25.833L58.5397 25.9634L58.6107 26.7365L60.1744 26.6061Z" fill="black"/>
<path d="M52.5611 27.2414L52.4901 26.4683L47.8946 26.8514L47.9656 27.6245L52.5611 27.2414Z" fill="black"/>
<path d="M56.9921 24.6046L56.8507 23.8403L53.9791 24.3228L54.1205 25.0871L56.9921 24.6046Z" fill="black"/>
<path d="M59.8586 24.1207L59.7172 23.3564L58.1713 23.6162L58.3127 24.3804L59.8586 24.1207Z" fill="black"/>
<path d="M52.352 25.3814L52.2106 24.6172L47.6676 25.3805L47.809 26.1448L52.352 25.3814Z" fill="black"/>
<path d="M56.5125 22.3829L56.3018 21.6333L53.4852 22.3525L53.696 23.1021L56.5125 22.3829Z" fill="black"/>
<path d="M59.3333 21.6661L59.1226 20.9165L57.6063 21.3036L57.8171 22.0532L59.3333 21.6661Z" fill="black"/>
<path d="M51.9588 23.5465L51.748 22.7969L47.2922 23.9346L47.503 24.6842L51.9588 23.5465Z" fill="black"/>
<path d="M55.8332 20.2156L55.5547 19.4863L52.8146 20.4367L53.0931 21.1659L55.8332 20.2156Z" fill="black"/>
<path d="M58.5726 19.2668L58.2941 18.5376L56.819 19.0492L57.0976 19.7784L58.5726 19.2668Z" fill="black"/>
<path d="M51.4066 21.7532L51.1281 21.0239L46.7932 22.5274L47.0717 23.2566L51.4066 21.7532Z" fill="black"/>
<path d="M54.9638 18.1154L54.6196 17.4121L51.9769 18.5864L52.3211 19.2897L54.9638 18.1154Z" fill="black"/>
<path d="M57.6015 16.9436L57.2573 16.2402L55.8347 16.8724L56.1789 17.5757L57.6015 16.9436Z" fill="black"/>
<path d="M50.6844 20.0139L50.3402 19.3105L46.1594 21.1683L46.5035 21.8716L50.6844 20.0139Z" fill="black"/>
<path d="M53.8985 16.0944L53.4913 15.4224L50.9661 16.8117L51.3733 17.4838L53.8985 16.0944Z" fill="black"/>
<path d="M56.4244 14.7019L56.0172 14.0298L54.6578 14.7777L55.065 15.4498L56.4244 14.7019Z" fill="black"/>
<path d="M49.8123 18.3391L49.4052 17.667L45.4101 19.8649L45.8173 20.537L49.8123 18.3391Z" fill="black"/>
<path d="M52.6523 14.1665L52.1852 13.5308L49.7966 15.1245L50.2637 15.7602L52.6523 14.1665Z" fill="black"/>
<path d="M55.046 12.5722L54.5789 11.9365L53.293 12.7945L53.7602 13.4302L55.046 12.5722Z" fill="black"/>
<path d="M48.7897 16.7431L48.3226 16.1074L44.5438 18.6288L45.011 19.2645L48.7897 16.7431Z" fill="black"/>
<path d="M51.2398 12.3489L50.7163 11.7544L48.4826 13.5405L49.0061 14.135L51.2398 12.3489Z" fill="black"/>
<path d="M53.471 10.5632L52.9475 9.96875L51.7451 10.9302L52.2685 11.5247L53.471 10.5632Z" fill="black"/>
<path d="M47.6263 15.2371L47.1028 14.6426L43.569 17.4682L44.0925 18.0627L47.6263 15.2371Z" fill="black"/>
<path d="M30.551 2.77881H29.7366V5.55744H30.551V2.77881Z" fill="black"/>
<path d="M30.551 0H29.7366V1.49578H30.551V0Z" fill="black"/>
<path d="M30.551 7.26807H29.7366V11.6639H30.551V7.26807Z" fill="black"/>
<path d="M28.1696 2.84252L27.3583 2.91016L27.6124 5.67821L28.4237 5.61058L28.1696 2.84252Z" fill="black"/>
<path d="M27.9203 0.0739646L27.109 0.141602L27.2458 1.63169L28.0571 1.56405L27.9203 0.0739646Z" fill="black"/>
<path d="M28.5862 7.31664L27.7749 7.38428L28.177 11.7634L28.9883 11.6958L28.5862 7.31664Z" fill="black"/>
<path d="M25.8172 3.10352L25.0151 3.23828L25.5215 5.9747L26.3235 5.83994L25.8172 3.10352Z" fill="black"/>
<path d="M25.314 0.361335L24.512 0.496094L24.7845 1.96915L25.5866 1.83439L25.314 0.361335Z" fill="black"/>
<path d="M26.6304 7.52589L25.8284 7.66064L26.6294 11.9897L27.4314 11.8549L26.6304 7.52589Z" fill="black"/>
<path d="M23.4893 3.55891L22.7026 3.75977L23.4573 6.44372L24.244 6.24286L23.4893 3.55891Z" fill="black"/>
<path d="M22.7372 0.87434L21.9506 1.0752L22.3568 2.52001L23.1435 2.31915L22.7372 0.87434Z" fill="black"/>
<path d="M24.7094 7.89582L23.9227 8.09668L25.1167 12.3427L25.9033 12.1419L24.7094 7.89582Z" fill="black"/>
<path d="M21.2165 4.20381L20.4512 4.46924L21.4485 7.0803L22.2138 6.81488L21.2165 4.20381Z" fill="black"/>
<path d="M20.2152 1.59542L19.45 1.86084L19.9868 3.26641L20.7521 3.00099L20.2152 1.59542Z" fill="black"/>
<path d="M22.8277 8.42305L22.0624 8.68848L23.6401 12.8192L24.4054 12.5538L22.8277 8.42305Z" fill="black"/>
<path d="M19.009 5.03775L18.2709 5.36572L19.5032 7.88402L20.2413 7.55605L19.009 5.03775Z" fill="black"/>
<path d="M17.7791 2.51627L17.041 2.84424L17.7044 4.19988L18.4425 3.87191L17.7791 2.51627Z" fill="black"/>
<path d="M21.0013 9.10806L20.2632 9.43604L22.2127 13.42L22.9508 13.092L21.0013 9.10806Z" fill="black"/>
<path d="M16.8874 6.04948L16.1821 6.4375L17.6401 8.84386L18.3454 8.45584L16.8874 6.04948Z" fill="black"/>
<path d="M15.4237 3.64225L14.7184 4.03027L15.5032 5.32566L16.2085 4.93763L15.4237 3.64225Z" fill="black"/>
<path d="M19.2456 9.94108L18.5403 10.3291L20.8468 14.136L21.5521 13.748L19.2456 9.94108Z" fill="black"/>
<path d="M14.8722 7.2375L14.2051 7.68262L15.8776 9.95874L16.5447 9.51362L14.8722 7.2375Z" fill="black"/>
<path d="M13.1899 4.95869L12.5228 5.40381L13.4232 6.62908L14.0903 6.18396L13.1899 4.95869Z" fill="black"/>
<path d="M17.5759 10.9152L16.9088 11.3604L19.5548 14.9612L20.2219 14.5161L17.5759 10.9152Z" fill="black"/>
<path d="M12.9586 8.58515L12.3347 9.08398L14.209 11.2125L14.8329 10.7137L12.9586 8.58515Z" fill="black"/>
<path d="M11.0883 6.4538L10.4645 6.95264L11.4735 8.09847L12.0973 7.59964L11.0883 6.4538Z" fill="black"/>
<path d="M15.9826 12.0241L15.3588 12.5229L18.324 15.8904L18.9478 15.3915L15.9826 12.0241Z" fill="black"/>
<path d="M11.1827 10.085L10.6068 10.6338L12.6687 12.5986L13.2446 12.0498L11.1827 10.085Z" fill="black"/>
<path d="M9.1192 8.1241L8.54333 8.67285L9.65328 9.73053L10.2291 9.18178L9.1192 8.1241Z" fill="black"/>
<path d="M14.5218 13.2628L13.9459 13.8115L17.2078 16.9198L17.7837 16.3711L14.5218 13.2628Z" fill="black"/>
<path d="M9.55473 11.7307L9.03125 12.3252L11.265 14.1113L11.7885 13.5168L9.55473 11.7307Z" fill="black"/>
<path d="M7.3134 9.94262L6.78992 10.5371L7.99237 11.4986L8.51586 10.9041L7.3134 9.94262Z" fill="black"/>
<path d="M13.1633 14.6194L12.6398 15.2139L16.1736 18.0395L16.6971 17.445L13.1633 14.6194Z" fill="black"/>
<path d="M8.07539 13.5035L7.60828 14.1392L9.99687 15.7329L10.464 15.0972L8.07539 13.5035Z" fill="black"/>
<path d="M5.69173 11.9097L5.22461 12.5454L6.51043 13.4034L6.97755 12.7677L5.69173 11.9097Z" fill="black"/>
<path d="M11.948 16.084L11.4808 16.7197L15.2596 19.2411L15.7268 18.6054L11.948 16.084Z" fill="black"/>
<path d="M6.77023 15.3909L6.36304 16.063L8.88831 17.4523L9.29551 16.7802L6.77023 15.3909Z" fill="black"/>
<path d="M4.24436 14.0013L3.83716 14.6733L5.19655 15.4212L5.60375 14.7492L4.24436 14.0013Z" fill="black"/>
<path d="M10.8513 17.6385L10.4441 18.3105L14.4391 20.5085L14.8463 19.8364L10.8513 17.6385Z" fill="black"/>
<path d="M5.63995 17.3826L5.29578 18.0859L7.93852 19.2602L8.2827 18.5569L5.63995 17.3826Z" fill="black"/>
<path d="M2.99713 16.2083L2.65295 16.9116L4.07558 17.5438L4.41976 16.8404L2.99713 16.2083Z" fill="black"/>
<path d="M9.91437 19.2825L9.57019 19.9858L13.751 21.8436L14.0952 21.1403L9.91437 19.2825Z" fill="black"/>
<path d="M4.7103 19.4578L4.43176 20.187L7.17185 21.1374L7.45039 20.4081L4.7103 19.4578Z" fill="black"/>
<path d="M1.96592 18.5085L1.68738 19.2378L3.16241 19.7494L3.44095 19.0201L1.96592 18.5085Z" fill="black"/>
<path d="M9.13193 20.9954L8.85339 21.7246L13.1883 23.2281L13.4668 22.4988L9.13193 20.9954Z" fill="black"/>
<path d="M3.95138 21.6064L3.7406 22.356L6.55718 23.0751L6.76797 22.3255L3.95138 21.6064Z" fill="black"/>
<path d="M1.1307 20.8866L0.919922 21.6362L2.43613 22.0234L2.64691 21.2738L1.1307 20.8866Z" fill="black"/>
<path d="M8.50509 22.7694L8.29431 23.519L12.7502 24.6568L12.961 23.9072L8.50509 22.7694Z" fill="black"/>
<path d="M3.40436 23.8075L3.26294 24.5718L6.13458 25.0543L6.27599 24.29L3.40436 23.8075Z" fill="black"/>
<path d="M0.527649 23.3241L0.38623 24.0884L1.93208 24.3481L2.0735 23.5839L0.527649 23.3241Z" fill="black"/>
<path d="M8.04437 24.5873L7.90295 25.3516L12.4459 26.1149L12.5873 25.3506L8.04437 24.5873Z" fill="black"/>
<path d="M3.05938 26.0433L2.9884 26.8164L5.89324 27.0586L5.96422 26.2855L3.05938 26.0433Z" fill="black"/>
<path d="M0.147273 25.8011L0.0762939 26.5742L1.64002 26.7046L1.711 25.9315L0.147273 25.8011Z" fill="black"/>
<path d="M7.76055 26.4354L7.68958 27.2085L12.2851 27.5916L12.3561 26.8185L7.76055 26.4354Z" fill="black"/>
<path d="M2.91724 28.3001V29.0762H5.83318V28.3001H2.91724Z" fill="black"/>
<path d="M0 28.3001L0 29.0762H1.5697V28.3001H0Z" fill="black"/>
<path d="M7.62854 28.3001V29.0762H12.2416V28.3001H7.62854Z" fill="black"/>
<path d="M2.98346 30.5633L3.05444 31.3364L5.95928 31.0943L5.8883 30.3212L2.98346 30.5633Z" fill="black"/>
<path d="M0.0763597 30.8021L0.147339 31.5752L1.71106 31.4448L1.64008 30.6717L0.0763597 30.8021Z" fill="black"/>
<path d="M7.67951 30.1737L7.75049 30.9468L12.346 30.5637L12.275 29.7906L7.67951 30.1737Z" fill="black"/>
<path d="M3.2536 32.8105L3.39502 33.5747L6.26666 33.0922L6.12524 32.3279L3.2536 32.8105Z" fill="black"/>
<path d="M0.387146 33.2904L0.528564 34.0547L2.07441 33.7949L1.93299 33.0307L0.387146 33.2904Z" fill="black"/>
<path d="M7.89874 32.0302L8.04016 32.7944L12.5831 32.0311L12.4417 31.2668L7.89874 32.0302Z" fill="black"/>
<path d="M3.73307 35.0248L3.94385 35.7744L6.76043 35.0553L6.54964 34.3056L3.73307 35.0248Z" fill="black"/>
<path d="M0.917515 35.7455L1.1283 36.4951L2.64451 36.108L2.43372 35.3584L0.917515 35.7455Z" fill="black"/>
<path d="M8.2869 33.8656L8.49768 34.6152L12.9536 33.4775L12.7428 32.7279L8.2869 33.8656Z" fill="black"/>
<path d="M4.41238 37.1926L4.69092 37.9219L7.43101 36.9715L7.15247 36.2423L4.41238 37.1926Z" fill="black"/>
<path d="M1.67813 38.1448L1.95667 38.874L3.4317 38.3624L3.15316 37.6332L1.67813 38.1448Z" fill="black"/>
<path d="M8.83914 35.655L9.11768 36.3843L13.4525 34.8808L13.174 34.1516L8.83914 35.655Z" fill="black"/>
<path d="M5.29205 39.2996L5.63623 40.0029L8.27898 38.8286L7.9348 38.1253L5.29205 39.2996Z" fill="black"/>
<path d="M2.64423 40.472L2.9884 41.1753L4.41103 40.5431L4.06685 39.8398L2.64423 40.472Z" fill="black"/>
<path d="M9.55621 37.4007L9.90039 38.104L14.0812 36.2462L13.7371 35.5429L9.55621 37.4007Z" fill="black"/>
<path d="M6.3472 41.3201L6.75439 41.9922L9.27967 40.6029L8.87247 39.9308L6.3472 41.3201Z" fill="black"/>
<path d="M3.82632 42.7063L4.23352 43.3784L5.59292 42.6305L5.18572 41.9585L3.82632 42.7063Z" fill="black"/>
<path d="M10.4283 39.073L10.8354 39.7451L14.8305 37.5472L14.4233 36.8751L10.4283 39.073Z" fill="black"/>
<path d="M7.59343 43.2456L8.06055 43.8813L10.4492 42.2876L9.98203 41.6519L7.59343 43.2456Z" fill="black"/>
<path d="M5.19963 44.8389L5.66675 45.4746L6.95257 44.6167L6.48545 43.981L5.19963 44.8389Z" fill="black"/>
<path d="M11.456 40.6714L11.9231 41.3071L15.7019 38.7858L15.2348 38.1501L11.456 40.6714Z" fill="black"/>
<path d="M9.00581 45.0603L9.5293 45.6548L11.763 43.8687L11.2396 43.2742L9.00581 45.0603Z" fill="black"/>
<path d="M6.77473 46.8484L7.29822 47.4429L8.50067 46.4814L7.97719 45.8869L6.77473 46.8484Z" fill="black"/>
<path d="M12.6245 42.1746L13.1479 42.769L16.6818 39.9434L16.1583 39.349L12.6245 42.1746Z" fill="black"/>
<path d="M10.5849 46.7555L11.1608 47.3042L13.2226 45.3394L12.6468 44.7907L10.5849 46.7555Z" fill="black"/>
<path d="M8.52143 48.7208L9.09729 49.2695L10.2072 48.2119L9.63137 47.6631L8.52143 48.7208Z" fill="black"/>
<path d="M13.924 43.5787L14.4999 44.1274L17.7618 41.0191L17.1859 40.4704L13.924 43.5787Z" fill="black"/>
<path d="M12.3056 48.3088L12.9294 48.8076L14.8038 46.6791L14.1799 46.1802L12.3056 48.3088Z" fill="black"/>
<path d="M10.4352 50.4367L11.0591 50.9355L12.0681 49.7897L11.4442 49.2909L10.4352 50.4367Z" fill="black"/>
<path d="M15.3448 44.8669L15.9686 45.3657L18.9338 41.9983L18.31 41.4995L15.3448 44.8669Z" fill="black"/>
<path d="M14.1732 49.7136L14.8403 50.1587L16.5129 47.8826L15.8457 47.4374L14.1732 49.7136Z" fill="black"/>
<path d="M12.4961 51.9894L13.1632 52.4346L14.0635 51.2093L13.3964 50.7642L12.4961 51.9894Z" fill="black"/>
<path d="M16.8719 46.0329L17.5391 46.478L20.185 42.8772L19.5179 42.432L16.8719 46.0329Z" fill="black"/>
<path d="M16.1527 50.9557L16.858 51.3438L18.316 48.9374L17.6107 48.5494L16.1527 50.9557Z" fill="black"/>
<path d="M14.6941 53.3639L15.3994 53.752L16.1843 52.4566L15.479 52.0685L14.6941 53.3639Z" fill="black"/>
<path d="M18.5109 47.0675L19.2162 47.4556L21.5227 43.6487L20.8174 43.2606L18.5109 47.0675Z" fill="black"/>
<path d="M18.2393 52.0348L18.9774 52.3628L20.2097 49.8445L19.4717 49.5165L18.2393 52.0348Z" fill="black"/>
<path d="M17.0145 54.5514L17.7526 54.8794L18.4159 53.5238L17.6779 53.1958L17.0145 54.5514Z" fill="black"/>
<path d="M20.2366 47.9596L20.9747 48.2876L22.9243 44.3036L22.1862 43.9756L20.2366 47.9596Z" fill="black"/>
<path d="M20.4228 52.9299L21.1881 53.1953L22.1854 50.5843L21.4201 50.3188L20.4228 52.9299Z" fill="black"/>
<path d="M19.4267 55.5417L20.192 55.8071L20.7289 54.4016L19.9636 54.1361L19.4267 55.5417Z" fill="black"/>
<path d="M22.0289 48.7111L22.7942 48.9766L24.372 44.8458L23.6067 44.5804L22.0289 48.7111Z" fill="black"/>
<path d="M22.6733 53.6453L23.46 53.8462L24.2147 51.1622L23.428 50.9614L22.6733 53.6453Z" fill="black"/>
<path d="M21.9211 56.3294L22.7078 56.5303L23.114 55.0855L22.3274 54.8846L21.9211 56.3294Z" fill="black"/>
<path d="M23.8982 49.304L24.6848 49.5049L25.8788 45.2588L25.0921 45.058L23.8982 49.304Z" fill="black"/>
<path d="M24.9856 54.1675L25.7876 54.3022L26.2939 51.5658L25.4919 51.4311L24.9856 54.1675Z" fill="black"/>
<path d="M24.4774 56.9053L25.2794 57.04L25.552 55.567L24.75 55.4322L24.4774 56.9053Z" fill="black"/>
<path d="M25.8039 49.7471L26.606 49.8818L27.407 45.5528L26.605 45.418L25.8039 49.7471Z" fill="black"/>
<path d="M27.3297 54.4983L28.141 54.5659L28.3951 51.7979L27.5838 51.7302L27.3297 54.4983Z" fill="black"/>
<path d="M27.0703 57.2673L27.8816 57.335L28.0184 55.8449L27.2071 55.7772L27.0703 57.2673Z" fill="black"/>
<path d="M27.7361 50.0227L28.5474 50.0903L28.9494 45.7112L28.1381 45.6436L27.7361 50.0227Z" fill="black"/>
<path d="M29.6998 54.6318H30.5142V51.8532H29.6998V54.6318Z" fill="black"/>
<path d="M29.6998 57.4111H30.5142V55.9154H29.6998V57.4111Z" fill="black"/>
<path d="M29.6998 50.1436H30.5142V45.7477H29.6998V50.1436Z" fill="black"/>
<path d="M32.0764 54.5706L32.8877 54.5029L32.6336 51.7349L31.8223 51.8025L32.0764 54.5706Z" fill="black"/>
<path d="M32.3356 57.3372L33.1469 57.2695L33.01 55.7794L32.1987 55.8471L32.3356 57.3372Z" fill="black"/>
<path d="M31.6647 50.095L32.476 50.0273L32.0739 45.6482L31.2626 45.7159L31.6647 50.095Z" fill="black"/>
<path d="M34.4289 54.3105L35.231 54.1758L34.7246 51.4394L33.9226 51.5741L34.4289 54.3105Z" fill="black"/>
<path d="M34.9419 57.0454L35.7439 56.9106L35.4713 55.4376L34.6693 55.5723L34.9419 57.0454Z" fill="black"/>
<path d="M33.6103 49.8843L34.4124 49.7495L33.6113 45.4205L32.8093 45.5552L33.6103 49.8843Z" fill="black"/>
<path d="M36.7513 53.8517L37.538 53.6509L36.7833 50.9669L35.9966 51.1678L36.7513 53.8517Z" fill="black"/>
<path d="M37.5188 56.5363L38.3054 56.3354L37.8992 54.8906L37.1125 55.0915L37.5188 56.5363Z" fill="black"/>
<path d="M35.5316 49.5138L36.3182 49.313L35.1243 45.0669L34.3376 45.2678L35.5316 49.5138Z" fill="black"/>
<path d="M39.0343 53.2063L39.7996 52.9409L38.8022 50.3299L38.037 50.5953L39.0343 53.2063Z" fill="black"/>
<path d="M40.0305 55.8216L40.7958 55.5562L40.2589 54.1506L39.4936 54.416L40.0305 55.8216Z" fill="black"/>
<path d="M37.4232 48.9876L38.1885 48.7222L36.6107 44.5914L35.8454 44.8569L37.4232 48.9876Z" fill="black"/>
<path d="M41.2368 52.3724L41.9749 52.0444L40.7425 49.5261L40.0044 49.8541L41.2368 52.3724Z" fill="black"/>
<path d="M42.4666 54.8939L43.2047 54.5659L42.5413 53.2103L41.8032 53.5383L42.4666 54.8939Z" fill="black"/>
<path d="M39.2445 48.3021L39.9825 47.9741L38.033 43.9901L37.2949 44.3181L39.2445 48.3021Z" fill="black"/>
<path d="M43.3634 51.3607L44.0687 50.9727L42.6108 48.5663L41.9055 48.9543L43.3634 51.3607Z" fill="black"/>
<path d="M44.8221 53.7689L45.5273 53.3809L44.7425 52.0855L44.0372 52.4735L44.8221 53.7689Z" fill="black"/>
<path d="M41.0055 47.472L41.7108 47.084L39.4043 43.2771L38.699 43.6651L41.0055 47.472Z" fill="black"/>
<path d="M45.3837 50.1736L46.0508 49.7285L44.3783 47.4524L43.7112 47.8975L45.3837 50.1736Z" fill="black"/>
<path d="M47.0609 52.4495L47.728 52.0044L46.8277 50.7791L46.1606 51.2242L47.0609 52.4495Z" fill="black"/>
<path d="M42.6851 46.4959L43.3522 46.0508L40.7062 42.4499L40.0391 42.895L42.6851 46.4959Z" fill="black"/>
<path d="M47.2871 48.825L47.911 48.3262L46.0367 46.1976L45.4128 46.6964L47.2871 48.825Z" fill="black"/>
<path d="M49.1675 50.9564L49.7914 50.4575L48.7824 49.3117L48.1585 49.8105L49.1675 50.9564Z" fill="black"/>
<path d="M44.2631 45.3826L44.887 44.8838L41.9217 41.5164L41.2979 42.0152L44.2631 45.3826Z" fill="black"/>
<path d="M49.0631 47.3227L49.6389 46.7739L47.577 44.8091L47.0012 45.3579L49.0631 47.3227Z" fill="black"/>
<path d="M51.1315 49.287L51.7074 48.7383L50.5975 47.6806L50.0216 48.2293L51.1315 49.287Z" fill="black"/>
<path d="M45.7342 44.1474L46.3101 43.5986L43.0481 40.4903L42.4723 41.0391L45.7342 44.1474Z" fill="black"/>
<path d="M49.666 10.6576L49.0901 10.1089L47.0282 12.0737L47.6041 12.6224L49.666 10.6576Z" fill="black"/>
<path d="M51.7293 8.69328L51.1534 8.14453L50.0435 9.20221L50.6194 9.75096L51.7293 8.69328Z" fill="black"/>
<path d="M46.332 13.8329L45.7561 13.2842L42.4942 16.3925L43.07 16.9413L46.332 13.8329Z" fill="black"/>
<path d="M47.9453 9.10186L47.3214 8.60303L45.4471 10.7316L46.0709 11.2304L47.9453 9.10186Z" fill="black"/>
<path d="M49.8155 6.97442L49.1917 6.47559L48.1827 7.62142L48.8065 8.12025L49.8155 6.97442Z" fill="black"/>
<path d="M44.9061 12.5447L44.2822 12.0459L41.317 15.4133L41.9409 15.9121L44.9061 12.5447Z" fill="black"/>
<path d="M46.0826 7.69708L45.4155 7.25195L43.743 9.52808L44.4101 9.9732L46.0826 7.69708Z" fill="black"/>
<path d="M47.7496 5.42413L47.0825 4.979L46.1822 6.20428L46.8493 6.6494L47.7496 5.42413Z" fill="black"/>
<path d="M43.3789 11.3748L42.7118 10.9297L40.0658 14.5305L40.733 14.9757L43.3789 11.3748Z" fill="black"/>
<path d="M44.0981 6.45443L43.3928 6.06641L41.9349 8.47277L42.6401 8.8608L44.0981 6.45443Z" fill="black"/>
<path d="M45.5516 4.0472L44.8463 3.65918L44.0615 4.95456L44.7668 5.34259L45.5516 4.0472Z" fill="black"/>
<path d="M41.7348 10.3465L41.0295 9.9585L38.723 13.7654L39.4283 14.1534L41.7348 10.3465Z" fill="black"/>
<path d="M42.0065 5.37973L41.2684 5.05176L40.0361 7.57006L40.7742 7.89803L42.0065 5.37973Z" fill="black"/>
<path d="M43.2315 2.86215L42.4934 2.53418L41.83 3.88982L42.5681 4.21779L43.2315 2.86215Z" fill="black"/>
<path d="M40.0193 9.45004L39.2812 9.12207L37.3317 13.106L38.0698 13.434L40.0193 9.45004Z" fill="black"/>
<path d="M39.8231 4.48369L39.0579 4.21826L38.0606 6.82932L38.8258 7.09475L39.8231 4.48369Z" fill="black"/>
<path d="M40.8291 1.86845L40.0638 1.60303L39.527 3.0086L40.2923 3.27403L40.8291 1.86845Z" fill="black"/>
<path d="M38.2168 8.69902L37.4515 8.43359L35.8738 12.5643L36.6391 12.8297L38.2168 8.69902Z" fill="black"/>
<path d="M37.5724 3.76482L36.7858 3.56396L36.0311 6.24791L36.8177 6.44877L37.5724 3.76482Z" fill="black"/>
<path d="M38.3246 1.08416L37.538 0.883301L37.1317 2.32811L37.9183 2.52897L38.3246 1.08416Z" fill="black"/>
<path d="M36.3578 8.10711L35.5712 7.90625L34.3772 12.1523L35.1639 12.3532L36.3578 8.10711Z" fill="black"/>
<path d="M35.2602 3.24072L34.4581 3.10596L33.9518 5.84238L34.7538 5.97714L35.2602 3.24072Z" fill="black"/>
<path d="M35.7682 0.502923L34.9662 0.368164L34.6936 1.84122L35.4956 1.97598L35.7682 0.502923Z" fill="black"/>
<path d="M34.4469 7.66601L33.6449 7.53125L32.8438 11.8603L33.6459 11.9951L34.4469 7.66601Z" fill="black"/>
<path d="M32.9163 2.91188L32.105 2.84424L31.8508 5.6123L32.6621 5.67994L32.9163 2.91188Z" fill="black"/>
<path d="M33.1754 0.145762L32.3641 0.078125L32.2273 1.56821L33.0386 1.63585L33.1754 0.145762Z" fill="black"/>
<path d="M32.5047 7.38648L31.6934 7.31885L31.2913 11.698L32.1026 11.7656L32.5047 7.38648Z" fill="black"/>
<path d="M106.791 15.6436H98.6527V41.7476H106.791V15.6436Z" fill="black"/>
<path d="M106.791 5.27051H98.6527V13.0257H106.791V5.27051Z" fill="black"/>
<path d="M164.186 15.6436H156.047V41.7476H164.186V15.6436Z" fill="black"/>
<path d="M164.186 5.27051H156.047V13.0257H164.186V5.27051Z" fill="black"/>
<path d="M153.174 23.3957V15.6405H147.7V7.91699H139.562V15.6405H136.917V23.3957H139.562V33.8609C139.562 38.5787 141.29 42.2619 147.327 42.2619C151.294 42.2619 153.174 40.6781 153.174 40.6781V34.8287C150.888 36.2506 147.7 36.2823 147.7 32.9546V23.3939H153.174V23.3957Z" fill="black"/>
<path d="M86.59 15.4771C81.5799 15.4771 79.4432 19.9362 79.4432 19.9362V15.8149H71.3048V41.757H79.4432V27.4169C79.4432 21.8596 87.6832 21.8596 87.6832 27.5929V41.7588H95.8216V25.2207C95.8216 20.6401 93.685 15.4788 86.59 15.4788V15.4771Z" fill="black"/>
<path d="M65.6528 19.4738C64 17.8988 61.8892 15.6938 55.531 15.6938C49.1728 15.6938 45.003 17.802 45.003 17.802L46.9106 23.3998C46.9106 23.3998 50.7 22.0307 54.3362 22.0307C57.9723 22.0307 60.4137 23.0848 60.4137 27.375C60.4137 27.375 57.5402 26.1872 53.5717 26.1872C49.6031 26.1872 42.6355 27.3821 42.6355 34.6727C42.6355 41.9633 50.6982 42.5933 51.8173 42.5933C52.9364 42.5933 57.0305 42.5933 60.4137 39.0069V41.7556H68.5521V28.3693C68.5521 24.3711 67.3056 21.0505 65.6528 19.4755V19.4738ZM54.4507 37.541C51.5255 37.541 50.026 36.2934 50.026 34.1606C50.026 32.0278 51.8191 30.5619 55.2651 30.5619C58.711 30.5619 60.338 31.4699 60.5928 31.6283C60.7867 36.4641 57.3759 37.541 54.4507 37.541Z" fill="black"/>
<path d="M30.1252 34.3608C33.4022 34.3608 36.0587 31.8294 36.0587 28.7068C36.0587 25.5841 33.4022 23.0527 30.1252 23.0527C26.8483 23.0527 24.1918 25.5841 24.1918 28.7068C24.1918 31.8294 26.8483 34.3608 30.1252 34.3608Z" fill="black"/>
<path d="M36.5277 33.5616C35.0282 35.3548 32.718 36.5057 30.1234 36.5057C25.6026 36.5057 21.9369 33.0126 21.9369 28.7047C21.9369 24.3969 25.6026 20.9038 30.1234 20.9038C32.7291 20.9038 35.0504 22.0652 36.5499 23.8742L42.849 19.1405C39.8813 15.5595 35.2849 13.2612 30.1252 13.2612C21.1761 13.2612 13.9204 20.1753 13.9204 28.703C13.9204 37.2307 21.1761 44.1447 30.1252 44.1447C35.259 44.1447 39.837 41.8694 42.8047 38.3182L36.5277 33.5581V33.5616Z" fill="black"/>
<path d="M133.764 31.3738H135.219C135.381 30.5063 135.468 29.6106 135.468 28.6937C135.468 20.3719 130.458 14.7319 122.013 14.7319C114.582 14.7319 108.558 20.9825 108.558 28.6937C108.558 36.4049 114.582 42.6555 122.013 42.6555C126.237 42.6555 130.56 42.198 134.12 37.6103L129.695 33.8621C128.203 35.1872 127.287 36.6091 122.072 36.6091C119.406 36.5774 117.106 34.4358 116.244 31.3738H133.766H133.764ZM116.141 26.084C116.811 22.9218 118.78 20.6482 122.072 20.6482C125.59 20.6482 127.457 22.7564 128.052 26.084H116.141Z" fill="black"/>
</svg>
