<svg width="433" height="446" viewBox="0 0 433 446" fill="none" xmlns="http://www.w3.org/2000/svg">
<g opacity="0.2">
<path d="M161.067 10.9502C160.382 10.8359 159.264 10.6988 157.917 10.6988C155.063 10.6988 152.347 11.2701 149.813 12.4128C143.946 15.0637 141.024 20.0913 140.065 22.1024L138.102 26.1931L133.674 27.1072C130.843 27.6785 128.195 28.7754 125.821 30.3066C121.324 33.2317 118.835 37.1624 117.511 39.9276L115.388 44.4068L110.48 45.0695C109.818 45.1609 109.179 45.3666 108.608 45.6637C106.965 46.5321 106.12 48.0861 105.778 48.9545L104.591 51.7882L101.943 53.3422C99.3174 54.8734 97.0803 56.8616 95.254 59.2383C91.8298 63.7403 90.8254 68.5394 90.5971 71.7616L90.346 75.2581L87.8121 77.6805C86.1913 79.2345 83.9998 81.8855 82.9041 85.6562C81.2377 91.3694 82.9269 96.4199 84.0912 98.9108L87.4697 106.178L80.7126 110.474C71.2162 116.53 63.2949 124.255 57.1998 133.464C53.5473 138.972 44.964 153.986 44.0737 174.6C43.9367 177.89 43.8454 186.689 46.0826 197.407C47.5664 204.491 49.4383 209.633 51.2645 214.615C54.255 222.796 57.0857 230.52 54.5289 240.781C52.931 247.249 49.6894 253.122 44.8499 258.287C35.0566 268.753 24.6699 270.947 17.6846 270.947C17.4563 270.947 17.2508 270.947 17.0225 270.947C15.0593 270.901 13.1874 270.719 11.4297 270.399L12.9363 271.884L13.1646 275.358C13.3244 277.826 14.0092 280.248 15.1506 282.396C16.4062 284.773 18.1639 286.807 20.3783 288.43L39.8049 302.598L21.3142 304.381C23.0948 306.3 25.0123 308.106 27.044 309.728C32.5456 314.139 38.7776 317.384 45.5575 319.327L48.0001 320.035L49.7122 321.886C52.0863 324.446 54.8485 326.64 57.8846 328.376C60.3957 329.816 63.1122 330.936 65.8973 331.713L82.8356 336.375L69.4812 347.413C71.5358 348.715 73.9099 349.904 76.5807 350.886C80.5985 352.326 84.8445 353.08 89.1818 353.08C89.8666 353.08 90.5743 353.08 91.2591 353.012L111.211 351.892L98.9978 367.729C96.7607 370.631 93.0169 374.379 87.4469 376.756L105.139 385.966L97.5825 387.657L106.622 391.085L102.057 396.386C103.404 396.935 104.75 397.392 106.143 397.803C109.476 398.763 112.946 399.312 116.438 399.426L122.556 399.632L124.679 405.368C126.551 410.372 132.304 422.713 145.384 428.929C150.292 431.26 155.657 432.494 161.318 432.585L163.966 432.631L166.181 434.094C168.463 435.602 173.257 438.139 179.603 438.139C185.927 438.139 190.698 435.648 192.981 434.162L195.56 432.494L198.619 432.722C199.418 432.791 200.217 432.814 201.039 432.814C206.13 432.814 210.992 431.671 215.466 429.432C223.524 425.41 227.793 418.965 229.642 415.469L231.469 411.995L235.258 410.944C241.627 409.184 250.872 405.23 258.885 396.501C265.779 388.982 268.952 380.869 270.413 375.385L273.609 363.364L284.11 369.991C286.187 371.294 291.734 374.356 298.446 374.356C301.071 374.356 303.674 373.876 306.139 372.917C313.284 370.151 317.028 364.21 318.306 361.787L320.749 357.148L325.999 356.942C331.432 356.714 339.65 355.411 348.028 350.429C353.735 347.024 358.78 342.317 362.593 336.786L365.72 332.261L371.176 332.901C372.523 333.061 373.87 333.13 375.194 333.13C378.07 333.13 380.969 332.764 383.777 332.033C387.795 330.982 391.744 329.108 395.145 326.64L407.838 317.407L408.226 320.972C411.947 316.699 415.531 311.214 417.745 304.358C424.479 283.562 413.704 264.548 408.774 257.35L405.121 252.025L408.819 246.906C408.819 246.906 408.911 246.769 408.979 246.7C414.983 238.428 419.023 228.921 420.69 219.14C424.16 198.732 414.001 175.148 396.013 161.733C395.784 161.551 395.556 161.391 395.328 161.208C395.237 161.139 395.145 161.048 395.031 160.979L390.603 157.757L391.287 152.272C392.2 145.599 391.835 138.972 390.169 132.573C389.164 128.688 385.831 118.633 376.837 109.4C372.568 105.013 367.569 101.402 362.022 98.6366L359.328 97.2883L357.958 94.6145C356.794 92.3521 355.47 90.1811 353.986 88.1471C351.521 84.7421 348.645 81.6341 345.403 78.9146L343.371 77.2235L342.55 74.7097C341.568 71.6474 340.198 68.7679 338.509 66.117C333.076 57.6386 329.56 48.4746 323.739 46.075L318.991 44.1325L314.631 41.5959C314.174 38.7164 313.763 35.4256 310.476 32.1576C310.476 32.1576 301.665 24.5019 296.209 22.2852L290.547 19.7714C287.831 17.7603 285.685 19.7485 282.626 18.7887C279.795 17.8975 276.873 17.4633 273.906 17.4633C273.152 17.4633 272.399 17.4861 271.669 17.5547L269.295 17.7375L267.126 16.732C259.798 13.3269 262.583 7.93362 254.548 7.49942C253.498 7.45371 241.833 10.8816 240.782 10.8816C234.779 10.8816 228.661 11.7729 222.862 13.464L212.636 14.1267L193.78 15.178C193.665 15.178 193.529 15.2237 193.414 15.2237C190.538 15.6807 187.639 16.3663 184.763 17.3033L180.517 18.6745L176.841 16.1606C173.851 14.1267 170.518 12.8241 167.139 12.3671L166.523 12.2985C166.272 12.2757 166.044 12.2528 165.792 12.2071L166.318 7.63653L165.884 7.47656L164.332 11.7729C163.167 11.3615 162.049 11.0645 160.884 10.8588L161.067 10.9502Z" fill="white"/>
<path d="M147.07 111.692C147.321 111.692 147.572 111.647 147.823 111.555C159.283 107.602 171.199 105.019 183.23 103.877C196.584 102.597 210.075 103.1 223.338 105.362C224.571 105.591 225.758 104.745 225.964 103.488C226.169 102.231 225.347 101.066 224.092 100.86C210.441 98.529 196.538 98.0262 182.773 99.3288C170.377 100.517 158.096 103.168 146.294 107.236C145.107 107.647 144.468 108.95 144.879 110.138C145.198 111.075 146.088 111.669 147.047 111.669L147.07 111.692Z" fill="black"/>
<path d="M229.505 106.25C231.149 106.57 232.793 106.958 234.413 107.392C235.874 107.781 237.335 108.238 238.796 108.741C239.048 108.832 239.299 108.855 239.527 108.855C240.486 108.855 241.353 108.261 241.696 107.301C242.107 106.113 241.467 104.81 240.28 104.399C238.728 103.873 237.153 103.393 235.623 102.959C233.911 102.479 232.154 102.068 230.396 101.725C229.163 101.474 227.953 102.296 227.725 103.53C227.474 104.764 228.296 105.976 229.528 106.204L229.505 106.25Z" fill="black"/>
<path d="M183.666 120.461C177.137 120.735 170.517 120.644 163.988 120.209C162.71 120.095 161.637 121.078 161.569 122.335C161.477 123.592 162.436 124.688 163.692 124.757C167.869 125.031 172.069 125.168 176.27 125.168C178.804 125.168 181.338 125.123 183.871 125.008C190.606 124.734 197.386 124.094 204.051 123.089C205.307 122.906 206.152 121.74 205.969 120.484C205.786 119.227 204.622 118.381 203.367 118.564C196.861 119.547 190.24 120.164 183.689 120.438L183.666 120.461Z" fill="black"/>
<path d="M286.207 160.092C286.002 155.065 285.088 150.129 283.445 145.421C278.56 130.978 266.643 119.277 252.193 114.57C249.363 113.678 247.947 117.838 250.687 118.889C258.448 121.814 265.365 126.979 270.387 133.583C264.338 129.218 257.101 126.682 249.774 126.293C248.564 126.225 247.514 127.116 247.377 128.35C247.24 129.607 248.176 130.749 249.431 130.864C257.193 131.664 264.635 135.137 269.953 140.622C275.318 145.992 278.605 153.442 279.336 160.938C279.496 162.766 281.071 164.16 282.92 164.092C284.837 164.023 286.321 162.401 286.253 160.481C286.253 160.367 286.253 160.252 286.23 160.138L286.207 160.092Z" fill="black"/>
<path d="M179.878 140.555C181.133 140.418 182.024 139.275 181.887 138.018C181.75 136.761 180.586 135.893 179.353 136.007C174.125 136.624 168.829 136.67 163.624 136.098C158.374 135.527 154.585 134.499 151.252 133.607C147.143 132.488 143.581 131.528 138.651 131.642C131.916 131.825 125.114 134.064 118.402 138.338C117.329 139.024 117.032 140.418 117.694 141.492C118.128 142.177 118.859 142.543 119.635 142.543C120.046 142.543 120.48 142.429 120.868 142.177C126.871 138.361 132.898 136.35 138.788 136.19C143.034 136.076 146.138 136.921 150.065 137.995C153.557 138.955 157.529 140.029 163.145 140.623C168.692 141.217 174.331 141.195 179.901 140.532L179.878 140.555Z" fill="black"/>
<path d="M273.882 170.193C274.179 170.193 274.476 170.147 274.75 170.01C275.914 169.53 276.462 168.182 275.982 167.017C273.928 162.058 265.71 145.421 246.489 138.953C233.796 134.68 222.405 136.988 216.744 138.748C215.534 139.113 214.872 140.393 215.237 141.604C215.602 142.815 216.881 143.478 218.09 143.113C223.227 141.513 233.568 139.41 245.028 143.295C262.422 149.169 269.887 164.297 271.759 168.799C272.124 169.668 272.969 170.216 273.859 170.216L273.882 170.193Z" fill="black"/>
<path d="M274.727 171.375C273.517 171.718 272.81 172.975 273.152 174.186C273.563 175.648 273.791 177.179 273.814 178.688C273.837 180.425 273.609 182.139 273.129 183.807C272.787 185.018 273.494 186.275 274.704 186.641C274.91 186.709 275.115 186.732 275.344 186.732C276.348 186.732 277.261 186.069 277.535 185.064C278.129 182.961 278.425 180.79 278.38 178.619C278.357 176.7 278.06 174.78 277.535 172.929C277.193 171.718 275.937 171.009 274.727 171.352V171.375Z" fill="black"/>
<path d="M185.032 148.049C181.699 148.734 178.275 148.917 174.873 148.643C171.723 148.392 168.618 147.706 165.651 146.655C164.464 146.22 163.162 146.838 162.729 148.026C162.295 149.214 162.911 150.517 164.098 150.951C167.454 152.139 170.947 152.894 174.485 153.191C175.604 153.282 176.699 153.328 177.818 153.328C180.535 153.328 183.251 153.053 185.922 152.505C187.155 152.254 187.954 151.042 187.703 149.808C187.451 148.574 186.242 147.774 185.009 148.026L185.032 148.049Z" fill="black"/>
<path d="M208.956 140.965C206.399 141.948 203.842 142.908 201.24 143.89C199.003 144.736 196.765 145.559 194.551 146.358C193.364 146.793 192.77 148.118 193.204 149.284C193.547 150.198 194.414 150.792 195.35 150.792C195.601 150.792 195.875 150.746 196.126 150.655C198.363 149.832 200.6 149.009 202.838 148.164C205.44 147.181 208.02 146.221 210.576 145.239C211.763 144.782 212.334 143.479 211.9 142.291C211.444 141.102 210.143 140.531 208.956 140.965Z" fill="black"/>
<path d="M220.216 272.621C219.577 271.524 218.184 271.158 217.088 271.775C215.993 272.415 215.628 273.809 216.244 274.906C218.846 279.431 221.015 284.253 222.659 289.212C224.576 294.971 225.809 300.936 226.311 306.992C226.402 308.18 227.407 309.071 228.594 309.071C228.662 309.071 228.731 309.071 228.799 309.071C230.055 308.957 230.991 307.86 230.877 306.603C230.329 300.204 229.028 293.874 226.996 287.772C225.261 282.516 222.978 277.443 220.216 272.644V272.621Z" fill="black"/>
<path d="M215.211 290.304C214.96 289.07 213.773 288.247 212.54 288.498C211.307 288.75 210.485 289.938 210.737 291.172C211.787 296.52 212.608 301.959 213.156 307.375C213.75 313.111 214.047 318.938 214.092 324.697C214.092 325.954 215.12 326.983 216.375 326.983C217.631 326.983 218.658 325.954 218.658 324.697C218.635 318.778 218.316 312.814 217.699 306.918C217.128 301.365 216.284 295.766 215.211 290.304Z" fill="black"/>
<path d="M257.789 247.688C273.746 248.123 287.625 261.903 287.808 277.923C287.853 279.842 289.52 281.351 291.46 281.214C293.332 281.076 294.725 279.454 294.588 277.58C294.222 272.872 292.99 268.347 291.026 264.142C285.228 251.459 271.805 243.118 257.926 243.141C254.981 243.141 254.867 247.528 257.789 247.711V247.688Z" fill="black"/>
<path d="M242.795 88.3124C254.004 91.9003 264.436 98.0477 272.928 106.046C285.872 118.25 291.898 132.19 294.66 141.742C294.957 142.748 295.87 143.388 296.852 143.388C297.057 143.388 297.286 143.365 297.491 143.296C298.701 142.954 299.409 141.674 299.043 140.463C297.582 135.389 295.231 129.15 291.533 122.546C291.784 122.203 291.99 121.815 292.104 121.335C295.14 108.286 306.303 97.7506 319.589 95.4882C322.465 94.9169 321.803 90.6205 318.881 90.9633C304.865 92.6773 292.492 102.55 287.173 115.622C286.146 114.159 285.027 112.674 283.863 111.211C284 110.96 284.137 110.662 284.228 110.343C286.168 102.024 292.149 94.9854 299.956 91.3975C302.582 90.1635 300.915 86.1871 298.199 87.1926C289.661 90.3463 282.539 97.1793 278.955 105.612C278.019 104.652 277.083 103.692 276.078 102.755C275.759 102.435 275.394 102.161 275.074 101.841C276.375 99.7388 277.836 97.7049 279.525 95.8995C282.288 92.9287 285.506 90.4377 289.068 88.4724C290.163 87.8553 290.574 86.4842 289.981 85.3644C289.364 84.2674 287.995 83.8561 286.876 84.4503C282.881 86.6441 279.274 89.4322 276.193 92.7687C274.458 94.6198 272.905 96.6308 271.536 98.779C270.691 98.0934 269.869 97.4078 269.002 96.7679C279.023 82.4621 297.08 74.3493 314.429 77.1602C315.639 77.343 316.804 76.5203 317.009 75.2863C317.237 74.0522 316.393 72.8639 315.16 72.6353C310.343 71.7898 305.39 71.607 300.482 72.1097C285.986 73.5494 272.563 81.6165 263.82 93.2258C260.715 91.2376 257.474 89.455 254.141 87.901C254.734 85.9357 255.533 84.0389 256.606 82.2792C260.259 76.2232 266.719 72.224 273.727 71.1956C276.649 70.7385 276.101 66.3737 273.156 66.6707C262.359 67.722 252.474 75.332 248.867 85.6386C247.338 85.0444 245.786 84.496 244.233 83.9932C243.023 83.6047 241.745 84.2674 241.357 85.4786C240.969 86.6898 241.631 87.9696 242.841 88.3581L242.795 88.3124Z" fill="black"/>
<path d="M364.349 159.931C352.364 162.193 345.63 173.3 343.849 176.636C341.475 181.115 340.927 184.543 340.95 207.899C340.973 229.906 341.429 233.814 344.397 237.928C351.93 248.303 365.741 248.92 368.891 248.92C369.097 248.92 369.279 248.92 369.371 248.92C386.012 248.509 398.705 234.66 403.887 221.131C409.525 206.414 405.416 193.182 403.384 188.177C397.814 174.442 382.017 156.594 364.349 159.931Z" fill="black"/>
<path d="M171.749 235.301C170.836 234.432 169.375 234.478 168.531 235.415C167.161 236.878 166.019 238.523 165.129 240.306C163.6 243.368 162.846 246.842 162.961 250.361C163.006 251.595 164.011 252.578 165.243 252.578C165.266 252.578 165.289 252.578 165.312 252.578C166.567 252.532 167.549 251.481 167.526 250.224C167.435 247.459 168.028 244.739 169.215 242.362C169.9 240.991 170.791 239.712 171.863 238.569C172.731 237.655 172.685 236.192 171.749 235.347V235.301Z" fill="black"/>
<path d="M148.965 254.767C147.663 255.429 146.705 256.846 146.271 258.789C145.632 261.737 146.362 265.073 148.143 267.267C149.695 269.187 152.252 270.581 154.649 270.809C154.9 270.832 155.151 270.855 155.379 270.855C156.658 270.855 157.776 270.489 158.621 269.781C161.566 267.336 160.264 261.897 158.164 258.926C156.247 256.206 152.001 253.213 148.942 254.744L148.965 254.767Z" fill="black"/>
<path d="M184.809 254.472C181.887 254.015 178.234 254.975 175.723 256.849C172.231 259.477 169.719 264.642 171.706 267.841C172.847 269.669 175.13 270.515 177.618 270.515C179.672 270.515 181.887 269.944 183.667 268.915C186.384 267.338 188.644 264.276 189.306 261.259C189.717 259.408 189.489 257.809 188.644 256.597C187.845 255.478 186.521 254.746 184.809 254.472Z" fill="black"/>
<path d="M432.174 219.141C436.352 194.619 423.933 167.767 403.936 152.867C403.548 152.593 403.183 152.273 402.794 151.999C403.662 145.691 403.776 137.624 401.47 128.757C400.283 124.164 396.357 112.303 385.833 101.494C380.834 96.375 375.013 92.1472 368.552 88.9249C367.183 86.2511 365.608 83.6916 363.873 81.2692C360.974 77.2471 357.572 73.5907 353.737 70.3913C352.504 66.5977 350.815 62.9869 348.692 59.6733C341.981 49.1838 332.21 43.5392 325.156 40.6597C324.266 35.0379 320.865 30.2845 316.938 26.3538C312.053 21.2348 306.004 17.167 299.407 14.4703C295.914 11.8651 291.987 9.83119 287.856 8.55143C283.199 7.1117 278.382 6.54038 273.497 6.92888C265.096 3.02104 256.17 0.804314 246.971 0.324404C236.995 -0.201212 226.768 1.42134 217.408 5.03209C209.784 3.61522 202.091 3.50095 194.535 4.71215C191.156 5.23777 187.801 6.06047 184.513 7.1117C180.062 4.07227 174.903 2.15263 169.584 1.67272C169.744 1.67272 169.881 1.71843 170.04 1.71843C168.488 1.14711 166.776 0.667197 164.927 0.37011C161.708 -0.155506 155.316 -0.58971 148.445 2.54113C139.999 6.35756 135.821 13.282 134.223 16.6185C130.274 17.4412 126.576 18.9495 123.22 21.1205C117.011 25.1655 113.518 30.513 111.646 34.5123C109.934 34.7408 108.291 35.2664 106.761 36.0663C102.652 38.2144 100.62 41.7795 99.7301 43.9277C96.0777 46.0758 92.9274 48.841 90.3935 52.1775C85.6453 58.4164 84.2299 64.998 83.8875 69.5686C81.3764 71.9681 78.1805 75.9217 76.5369 81.5663C74.003 90.2047 76.5369 97.6776 78.2034 101.265C67.6112 108.007 58.7996 116.623 51.974 126.906C47.9106 133.054 38.3229 149.805 37.3413 172.704C37.1815 176.337 37.0902 186.05 39.5328 197.796C41.1535 205.52 43.2309 211.233 45.08 216.284C47.8878 223.985 49.9423 229.561 48.0704 237.103C46.8605 242.039 44.3495 246.541 40.6057 250.54C32.8898 258.767 24.9685 260.413 19.6268 260.299C11.2717 260.139 5.26795 255.979 2.41445 253.488C2.11769 253.237 1.70679 253.146 1.31871 253.26C0.930636 253.374 0.6567 253.694 0.565388 254.083C-0.0281393 256.642 -0.461871 260.664 0.907808 265.258C2.209 269.577 4.58311 272.616 6.47784 274.444C6.72894 278.169 7.77903 281.849 9.49113 285.117C11.7283 289.367 14.7416 292.315 17.4353 294.281C16.2254 294.395 15.0155 294.418 13.8056 294.349C12.0479 294.258 10.2901 293.938 8.60084 293.458C8.16711 293.321 7.68772 293.458 7.39095 293.824C7.09419 294.166 7.04854 294.669 7.25399 295.081C11.2489 302.873 16.9559 309.889 23.7586 315.351C30.1961 320.516 37.5011 324.309 45.4452 326.617C48.4585 329.863 51.9283 332.628 55.7635 334.822C58.9594 336.65 62.3607 338.067 65.8991 339.049C65.1229 339.689 64.3239 340.261 63.4565 340.786C61.6302 341.906 59.6442 342.752 57.544 343.3C57.156 343.392 56.8592 343.689 56.7451 344.077C56.6309 344.466 56.7222 344.877 56.9733 345.174C60.5573 349.219 66.7437 354.727 75.8977 358.017C81.7189 360.12 87.9737 361.011 94.1829 360.668C92.448 362.908 89.3662 365.947 84.6637 367.456C80.1437 368.895 76.1488 368.347 73.5921 367.638C73.204 367.524 72.7931 367.638 72.5192 367.913C72.2453 368.187 72.1083 368.575 72.1768 368.964C72.6105 371.089 73.866 375.134 77.4729 378.448C78.5914 379.453 79.8242 380.322 81.171 381.03L80.3948 381.213C80.0068 381.304 79.71 381.579 79.573 381.921C79.4361 382.287 79.5046 382.698 79.7328 382.996C81.5362 385.418 83.6821 387.566 86.1018 389.371C88.4075 391.108 90.9414 392.479 93.6351 393.508L91.0783 396.479C90.8729 396.73 90.7587 397.05 90.8044 397.37C90.8501 397.69 91.0327 397.987 91.2838 398.17C95.8266 401.255 100.78 403.586 106.008 405.094C110.071 406.26 114.272 406.922 118.518 407.082C120.983 413.71 127.968 428.153 143.879 435.717C149.975 438.619 156.595 440.151 163.58 440.265C166.844 442.413 173.373 445.818 182.025 445.818H182.071C190.631 445.818 197.091 442.504 200.379 440.379C205.675 440.768 213.642 440.333 221.974 436.151C232.201 431.032 237.68 422.942 240.145 418.28C247.77 416.155 258.636 411.47 268.064 401.209C276.053 392.479 279.866 383.087 281.692 376.254C285.87 378.905 298.105 385.304 311.871 379.979C321.687 376.185 326.846 368.37 328.832 364.599C335.475 364.325 345.222 362.725 355.152 356.829C362.001 352.761 368.005 347.139 372.57 340.535C377.935 341.175 383.322 340.809 388.55 339.438C393.709 338.09 398.64 335.736 402.977 332.582L403.319 335.667C403.365 336.056 403.616 336.399 403.982 336.581C404.347 336.741 404.758 336.718 405.1 336.49C411.697 332.102 423.568 322.253 428.932 305.707C436.808 281.369 425.052 259.819 418.797 250.7C418.82 250.655 418.843 250.609 418.888 250.586C425.645 241.285 430.279 230.407 432.197 219.209L432.174 219.141ZM118.152 42.8536C118.7 42.4422 119.088 41.8937 119.339 41.3224C115.481 56.3368 125.617 76.1959 141.072 83.326C145.592 85.5427 150.5 87.0053 155.864 87.1196C153.079 88.445 150.363 89.8848 147.715 91.4616C147.304 91.1874 146.847 90.9588 146.276 90.8217C135.319 88.3536 125.161 81.6577 118.449 72.1052C116.805 69.7742 113.176 72.0824 114.591 74.5505C119.431 83.0518 126.85 90.2733 135.707 95.0038C130.959 93.5184 126.439 91.2331 122.376 88.1708C121.462 87.4852 120.116 87.5766 119.317 88.445C118.449 89.382 118.518 90.8217 119.431 91.6673C123.7 95.6208 128.745 98.8888 134.246 101.151C133.424 101.883 132.58 102.591 131.781 103.345C131.575 103.162 131.324 103.002 131.073 102.865C126.051 100.374 121.28 97.2891 117.125 93.5641C107.514 84.88 96.831 68.0603 105.323 56.8624C105.985 61.0673 108.108 65.0666 111.213 67.8546C112.034 68.6316 113.336 68.6773 114.249 67.9232C115.23 67.1004 115.344 65.6379 114.5 64.678C113.085 63.0098 112.057 61.0901 111.555 59.1248C109.911 53.0459 113.632 46.67 118.13 42.8764L118.152 42.8536ZM100.62 114.863C106.921 116.097 111.76 121.216 113.016 127.386C113.13 127.958 113.404 128.438 113.769 128.826C112.902 130.86 112.08 132.94 111.395 135.088C109.181 129.283 104.341 124.507 98.2691 122.861C95.3928 122.084 94.1373 126.335 96.968 127.249C102.492 128.849 106.533 133.694 107.514 139.224C90.0283 131.454 72.4507 140.824 62.5662 157.232C56.6309 166.259 54.097 176.726 53.9144 187.352C52.9328 177.434 53.5263 167.653 58.4572 158.649C61.3791 153.05 65.4882 148.045 70.3505 143.84C72.5877 141.875 69.7113 138.538 67.4286 140.321C64.4609 142.675 61.9042 145.189 59.667 147.817C60.5573 143.246 63.913 131.454 75.4183 124.553C82.6092 120.233 89.8456 119.685 94.6395 119.959C95.9179 120.051 96.9908 119.068 97.0593 117.811C97.1278 116.554 96.169 115.457 94.9134 115.389C92.6991 115.251 90.0054 115.297 87.0606 115.708C87.2889 115.411 87.4943 115.069 87.7226 114.772C97.7669 102.865 111.943 104.762 119.59 117.857C118.814 119.045 118.107 120.256 117.399 121.49C114.157 115.526 108.131 111.046 101.374 110.315C98.5203 109.995 97.7898 114.2 100.62 114.817V114.863ZM77.3587 321.544C85.9649 320.584 94.3656 317.591 101.556 312.654C104.638 310.575 107.514 308.221 110.163 305.593C109.637 309.066 109.432 312.609 109.501 316.128C109.364 316.174 109.204 316.174 109.067 316.242C102.88 318.436 97.493 320.242 91.5806 321.064C86.8552 321.773 82.0841 321.91 77.3587 321.544ZM81.2395 300.908C79.9611 300.999 79.0023 302.165 79.1393 303.445C79.2763 304.702 80.4177 305.593 81.6732 305.456C86.8095 304.862 91.8545 303.673 96.694 301.754C98.5887 301.022 100.438 300.154 102.241 299.194C87.6313 315.625 62.5662 318.733 43.5048 308.449C49.1662 307.787 54.759 306.553 60.1693 304.702C82.6548 297.457 99.9128 278.169 104.547 254.974C105.483 255.088 106.442 255.179 107.4 255.248C109.98 258.425 113.199 261.167 117.079 263.224C117.079 263.315 117.079 263.384 117.079 263.475C116.92 263.978 116.783 264.503 116.737 265.12C116.486 269.417 115.322 273.805 113.473 277.872C107.88 290.51 95.0504 299.72 81.2395 300.908ZM65.1914 267.703C59.1192 280.455 43.5048 286.808 30.9266 279.563C30.4244 279.312 29.9222 279.175 29.4428 279.084C35.2867 278.375 41.0166 276.775 46.3583 273.85C53.0469 270.262 58.7539 264.184 61.4248 256.871C64.7348 246.815 64.5751 236.28 62.8401 225.996C64.0728 228.305 65.4653 230.476 66.972 232.578C70.1223 242.062 71.0582 252.346 69.3461 262.378C69.1406 263.566 69.894 264.709 71.081 264.983C72.3137 265.28 73.5464 264.503 73.8204 263.269C75.5097 256.254 75.989 248.963 75.327 241.765C81.7189 247.41 89.4119 251.5 97.9952 253.694C95.7581 265.715 90.0283 277.141 81.2395 285.665C73.5008 293.367 63.6391 298.623 53.1154 301.594C66.2187 296.84 76.788 285.482 80.1666 271.931C80.8742 269.234 76.8793 267.909 75.8292 270.491C70.9897 282.077 61.1509 291.424 49.1205 295.012C47.0203 295.835 44.9202 296.018 42.8656 296.337C40.6742 296.269 38.5968 295.515 38.2087 293.572C38.1174 293.092 38.2544 292.315 38.7794 291.653C39.1447 291.196 39.6469 290.83 40.2632 290.579C53.2752 290.624 64.9175 281.506 69.3689 269.554C70.3962 266.903 66.4698 265.166 65.1914 267.703ZM77.3816 230.978C79.5502 231.892 87.5172 235.435 89.9826 236.074C93.4753 236.966 97.0364 237.697 100.689 237.766C100.872 239.16 101.191 242.405 101.556 243.753C94.8906 242.45 81.5819 238.703 77.3816 230.955V230.978ZM92.1513 151.93C86.9236 149.279 81.8787 148.639 77.724 148.799C86.1703 141.555 97.0821 138.813 108.93 145.12C108.085 149.874 107.674 154.855 107.743 160.066C106.784 161.62 105.894 163.265 105.095 164.956C102.835 160.614 98.9083 155.335 92.1741 151.93H92.1513ZM106.168 99.7115C102.812 99.323 99.3877 99.7343 96.1233 100.877C91.4436 95.1866 90.3478 87.1881 92.8361 80.2866C92.9274 80.9036 93.0187 81.5206 93.1557 82.1376C94.708 89.4963 99.5247 95.7351 106.168 99.7115ZM97.6071 72.8822C98.3605 76.3787 99.7073 79.9209 101.534 83.3488C104.136 88.6278 107.674 93.3355 111.806 97.4719C104.547 94.4096 99.1594 88.4222 97.63 81.2007C96.9908 78.2069 97.1278 75.396 97.63 72.8822H97.6071ZM115.641 103.459C116.509 103.642 117.376 103.802 118.244 103.939C118.358 103.939 118.449 103.939 118.563 103.939C118.792 103.939 118.997 103.894 119.202 103.825C121.599 105.585 124.11 107.207 126.69 108.647C125.412 110.087 124.202 111.549 123.038 113.058C122.467 111.846 121.828 110.772 121.485 110.041C119.842 107.253 117.856 105.059 115.641 103.414V103.459ZM78.9795 345.654C76.6739 344.763 77.2902 341.243 79.71 341.152C86.8552 340.535 92.6991 338.821 98.8855 335.187C100.986 333.862 103.451 336.49 102.036 338.501C97.1962 345.563 86.9465 348.831 78.9567 345.677L78.9795 345.654ZM101.009 375.248C98.4518 375.614 97.3789 371.98 99.6617 370.884C106.556 367.181 110.733 361.491 113.016 354.041C113.632 351.596 117.308 351.893 117.582 354.361C118.86 364.119 110.642 374.06 101.031 375.248H101.009ZM127.169 382.95C125.686 385.601 116.828 395.222 114.386 390.743C113.861 389.714 114.203 388.48 115.116 387.84C117.97 385.784 120.184 383.018 121.554 379.956C123.494 375.865 129.498 379.088 127.169 382.973V382.95ZM160.11 375.934C160.316 378.813 164.562 378.745 164.676 375.865C164.995 363.616 167.301 351.504 171.456 340.169C180.45 340.329 189.467 339.826 198.393 338.775C201.155 339.895 203.072 341.426 204.077 343.346C205.949 346.934 204.008 350.887 199.466 359.434C197.365 363.388 194.763 368.301 192.092 374.334C187.298 385.167 185.107 393.371 183.509 399.358C181.317 407.562 180.222 411.699 175.085 414.578C167.643 418.783 157.759 417.115 151.755 413.778C136.78 405.483 136.278 382.698 136.027 370.472C135.798 359.32 137.716 348.191 141.779 337.358C149.016 338.592 156.321 339.438 163.671 339.849C160.635 351.664 159.448 363.891 160.11 375.911V375.934ZM131.986 359.046C127.626 354.087 124.202 348.419 121.987 342.363C120.778 339.072 119.91 335.644 119.408 332.148C125.252 333.908 131.187 335.393 137.214 336.581C134.52 343.963 132.785 351.481 131.986 359.069V359.046ZM261.991 380.962C262.38 374.014 260.599 366.884 256.125 360.531C254.435 358.132 250.806 360.508 252.29 363.022C261.489 377.876 256.239 395.93 242.085 404.911C242.565 400.706 242.496 396.456 241.857 392.342C240.008 380.482 233.982 371.958 229.233 366.861C228.434 365.627 227.749 364.736 227.384 364.233C226.608 363.251 225.17 363.068 224.188 363.845C223.207 364.622 223.024 366.062 223.8 367.044C225.626 369.375 234.598 381.807 230.649 397.461C227.909 408.339 219.737 417.206 209.053 421.434C209.122 421.32 209.213 421.228 209.304 421.114C212.249 416.749 212.729 412.019 212.592 408.796C212.546 407.539 211.496 406.58 210.218 406.602C208.962 406.648 207.98 407.699 208.026 408.979C208.117 411.493 207.752 415.218 205.515 418.555C202.89 422.44 198.438 424.862 193.256 425.525C201.018 419.194 203.392 408.248 206.086 395.816C208.323 385.532 210.834 373.9 216.724 361.994C223.252 348.831 233.251 336.947 246.491 326.686C247.496 325.909 247.678 324.469 246.902 323.487C246.309 322.733 245.35 322.458 244.46 322.71C244.46 322.71 244.437 322.71 244.414 322.71C206.519 331.325 167.735 332.125 129.726 325.589C128.334 314.574 130.388 303.079 135.753 293.161C137.1 290.533 133.31 288.408 131.781 290.898C125.845 300.885 122.969 312.723 123.608 324.446C123.152 324.355 122.695 324.286 122.216 324.195C119.499 323.647 117.376 321.43 117.034 318.665C114.614 298.943 123.357 278.147 139.588 266.354L140.684 265.532C137.807 244.964 153.741 227.665 174.286 227.893C177.345 227.939 177.437 223.414 174.378 223.323C172.871 223.3 171.342 223.368 169.858 223.528C167.415 223.78 165.338 221.746 165.406 219.3C165.429 217.724 166.342 216.261 167.78 215.621C168.42 215.324 169.082 215.073 169.766 214.867C173.807 213.564 177.437 213.839 179.765 214.273C181.021 214.501 182.208 213.702 182.436 212.467C182.664 211.233 181.865 210.022 180.633 209.794C177.779 209.245 173.328 208.925 168.374 210.525C167.415 210.845 167.004 211.119 166.205 210.708C165.612 210.388 165.612 209.085 165.612 209.085C165.635 207.76 166.411 206.571 167.621 205.977C170.976 204.286 176.295 202.892 182.847 203.646C190.768 204.56 195.996 209.017 198.552 211.85C199.351 212.742 199.443 214.044 198.781 215.05C198.005 216.238 196.384 216.604 195.197 215.827C193.416 214.661 191.567 213.633 189.627 212.787C188.485 212.285 187.116 212.787 186.613 213.953C186.111 215.118 186.613 216.467 187.778 216.969C189.353 217.655 190.882 218.501 192.343 219.438C193.713 220.306 194.101 222.134 193.211 223.505V223.551C192.457 224.671 191.065 225.082 189.809 224.694C187.641 224.008 185.335 223.528 182.938 223.254C180.222 222.888 179.354 226.956 182.002 227.733C193.918 231.253 202.502 237.628 200.128 251.02C199.603 254.7 198.37 258.379 196.681 261.99C196.224 262.904 196.429 264.069 197.251 264.755C201.201 267.977 206.086 255.317 206.588 252.209C206.611 252.071 206.634 251.957 206.656 251.82C214.715 256.528 221.586 262.995 226.517 270.651C236.995 286.876 236.47 303.719 235.214 312.289C235.032 313.523 235.876 314.665 237.086 314.871C242.108 315.74 246.971 317.248 251.582 319.396C252.586 319.876 253.591 320.379 254.572 320.904C253.865 321.681 253.728 322.847 254.367 323.738C257.768 328.491 260.348 333.725 262.06 339.301C263.27 343.277 264 347.368 264.274 351.504C260.348 345.06 255.189 341.312 253.203 340.032C252.153 339.347 250.737 339.667 250.052 340.718C249.368 341.769 249.687 343.186 250.737 343.871C253.294 345.517 261.832 351.756 264.069 363.411C265.416 370.449 263.932 376.505 261.969 380.962H261.991ZM144.496 205.612C149.86 205.612 154.221 209.977 154.221 215.347C154.221 220.717 149.86 225.082 144.496 225.082C139.131 225.082 134.771 220.717 134.771 215.347C134.771 209.977 139.131 205.612 144.496 205.612ZM126.895 196.63C126.256 197.179 125.48 197.43 124.704 197.43C123.722 197.43 122.764 197.019 122.079 196.219C120.869 194.779 121.051 192.608 122.49 191.397C125.092 189.203 130.639 185.455 138.515 185.021C145.774 184.633 151.344 187.284 154.038 188.906C155.659 189.889 156.184 191.991 155.202 193.614C154.221 195.236 152.12 195.762 150.5 194.779C148.491 193.568 144.29 191.603 138.88 191.877C132.991 192.197 128.836 195.008 126.873 196.653L126.895 196.63ZM224.211 230.041C226.106 231.184 228.183 231.961 230.375 232.327C233.16 232.807 236.082 232.578 238.821 231.687C240.214 231.23 241.743 232.007 242.2 233.401C242.656 234.818 241.88 236.326 240.487 236.783C238.159 237.537 235.716 237.926 233.274 237.926C232.018 237.926 230.74 237.811 229.507 237.606C226.654 237.126 223.96 236.12 221.472 234.612C220.216 233.858 219.805 232.212 220.559 230.933C221.312 229.676 222.956 229.264 224.234 230.018L224.211 230.041ZM221.335 215.347C221.335 209.977 225.695 205.612 231.06 205.612C236.424 205.612 240.784 209.977 240.784 215.347C240.784 220.717 236.424 225.082 231.06 225.082C225.695 225.082 221.335 220.717 221.335 215.347ZM232.338 193.18C226.722 193.431 222.659 196.013 220.741 197.545C219.257 198.71 217.112 198.459 215.925 196.996C214.76 195.511 214.989 193.362 216.472 192.174C219.029 190.14 224.462 186.667 232.018 186.347C241.058 185.958 247.541 190.3 249.938 192.174C251.422 193.34 251.673 195.511 250.509 196.996C249.824 197.864 248.843 198.299 247.815 198.299C247.062 198.299 246.331 198.047 245.692 197.567C243.912 196.151 239.026 192.905 232.315 193.203L232.338 193.18ZM360.197 326.755C359.353 327.235 358.668 327.897 358.143 328.651C352.139 327.555 346.295 326.023 341.296 323.281C328.535 316.882 326.115 305.044 327.896 291.264C329.836 276.318 330.932 258.927 320.248 246.153C315.5 239.937 308.332 237.217 303.173 232.052C293.54 222.386 287.102 209.428 283.632 196.105C283.632 196.036 283.587 196.013 283.564 195.945C283.381 195.282 282.948 194.711 282.263 194.414C281.098 193.934 279.752 194.482 279.272 195.648C276.921 201.338 275.939 207.577 276.464 213.702C277.126 221.609 280.094 227.665 282.468 231.344C282.902 232.03 283.632 232.395 284.386 232.395C284.819 232.395 285.23 232.281 285.618 232.03C286.669 231.344 286.988 229.927 286.303 228.876C284.203 225.631 281.601 220.283 281.007 213.313C280.825 211.142 280.87 209.108 281.053 207.211C283.861 218.364 289.02 229.059 296.964 238.017C299.543 240.965 302.854 243.593 305.776 245.673C321.139 255.979 319.678 273.713 317.623 290.304C316.733 299.08 316.847 308.929 321.276 316.951C324.746 323.395 330.727 328.56 337.278 331.439C343.305 334.136 349.514 335.484 355.677 336.124C352.915 338.981 347.574 343.3 339.652 344.26C330.521 345.38 323.467 341.335 319.86 338.57C319.404 338.204 318.947 337.838 318.491 337.45C318.011 337.038 317.646 336.696 317.418 336.467C317.281 336.33 317.144 336.261 316.984 336.216C313.788 333.451 310.912 330.434 308.446 327.143C293.403 307.215 306.711 289.87 305.319 268.457C303.926 251.912 290.983 238.771 276.327 232.784C273.725 231.664 271.853 235.389 274.227 236.851C289.111 245.627 299.863 259.933 297.169 277.301C296.165 285.779 293.289 295.195 293.289 304.267C293.015 313.66 296.233 321.978 301.393 329.131C302.602 332.811 304.497 336.787 307.419 340.649C309.36 343.209 311.46 345.334 313.56 347.094C309.611 345.037 305.913 342.409 302.694 339.187C301.895 338.387 300.594 338.272 299.68 339.004C298.676 339.781 298.493 341.22 299.27 342.226C303.607 347.848 309.268 352.51 315.706 355.892C310.615 356.806 297.786 357.926 285.687 349.607C274.912 342.203 270.894 331.508 269.411 325.086C269.821 325.932 270.278 326.755 270.735 327.554C274.707 334.57 280.254 340.558 286.737 344.991C287.696 345.631 289.02 345.471 289.773 344.58C290.595 343.62 290.458 342.157 289.499 341.358C280.551 333.93 274.821 323.235 273.177 311.9C277.4 322.824 284.431 332.605 293.882 339.689C296.211 341.472 298.95 337.998 296.758 336.124C293.129 333.016 289.887 329.52 287.125 325.658C278.816 314.208 275.209 299.697 276.305 285.688C276.556 283.037 273.748 280.866 271.26 281.849C255.44 288.819 241.743 275.29 237.702 260.596C246.309 268.48 258.522 272.182 270.141 270.102C273.177 269.554 272.31 265.029 269.319 265.6C256.558 268.366 242.2 261.167 237.429 248.986C237.588 248.644 238.182 248.072 238.296 247.752C237.429 246.404 236.287 245.398 234.895 244.461C252.815 244.142 267.242 229.539 267.242 211.531C267.242 210.434 267.173 209.337 267.082 208.263C266.945 205.246 266.489 200.835 265.05 195.716C263.795 191.26 258.796 173.709 242.154 164.705C239.049 163.037 233.502 160.569 225.763 159.814C225.033 159.723 224.302 159.7 223.549 159.677C223.252 159.677 222.956 159.632 222.659 159.609C222.453 159.609 222.271 159.609 222.065 159.609C216.039 159.609 210.377 161.254 205.515 164.111V164.065C204.716 164.476 203.415 165.139 201.794 165.939C198.689 167.493 195.95 168.841 195.63 169.001C191.887 170.83 181.568 172.726 170.291 169.847C163.238 168.042 159.928 165.436 150.568 164.545C148.947 164.385 147.6 164.339 146.733 164.317C145.751 164.294 144.747 164.248 143.742 164.317C126.462 164.956 112.263 179.285 111.738 196.608C111.646 199.464 111.943 202.252 112.537 204.903C113.221 207.988 116.029 210.114 119.157 210.182C118.86 211.645 118.7 213.13 118.7 214.684C118.7 226.659 127.968 236.417 139.702 237.263C139.131 238.931 138.104 240.828 136.255 242.313C132.511 245.33 126.85 245.581 122.17 242.93C121.074 242.313 119.682 242.702 119.065 243.799C118.449 244.896 118.837 246.29 119.933 246.907C122.786 248.529 125.937 249.329 129.018 249.329C130.616 249.329 132.192 249.078 133.698 248.644C133.698 248.666 133.698 248.689 133.698 248.712C133.447 252.506 130.913 255.659 127.398 256.094C127.101 255.751 126.736 255.454 126.325 255.225L124.681 254.311H124.635C120.846 253.214 117.536 251.043 114.956 248.232C114.591 247.158 113.906 246.221 112.902 245.581C109.82 240.919 108.496 235.115 109.866 229.401C110.596 225.768 112.263 222.294 114.568 219.255C115.596 218.044 115.755 216.261 114.842 214.844C110.254 207.851 107.241 199.693 106.579 191.374C104.889 164.614 123.038 138.698 152.12 149.302C154.905 150.285 156.481 146.171 153.741 145.029C136.757 138.333 122.467 142.995 112.856 153.37C117.011 116.965 146.459 92.4671 182.23 85.6113C194.626 83.2346 207.273 82.5718 220.079 82.5033C221.175 82.5033 222.157 81.7263 222.362 80.5836C222.568 79.3267 221.746 78.1612 220.49 77.9327C212.569 76.6758 204.488 76.333 196.452 76.8358C194.512 74.4362 192.435 71.0083 191.339 66.5748C189.353 58.6449 191.567 51.9719 193.074 48.681C193.599 47.5384 193.074 46.1672 191.955 45.6645C190.814 45.1389 189.444 45.6645 188.942 46.7843C187.207 50.6007 184.627 58.3935 186.933 67.6718C187.892 71.5339 189.49 74.7105 191.179 77.27C188.554 77.5442 185.951 77.9327 183.349 78.3898C176.478 78.1384 169.629 78.3212 162.781 78.6183L159.402 78.7554C154.358 79.1211 149.564 77.8185 145.021 75.5789C129.429 68.2888 118.7 44.6132 131.94 32.8669C130.457 36.5919 129.863 40.6597 130.32 44.7275C131.552 55.3312 139.542 63.9468 150.226 66.2092C150.385 66.232 150.545 66.2549 150.705 66.2549C151.755 66.2549 152.714 65.5236 152.942 64.4495C153.193 63.2155 152.417 62.0043 151.184 61.7529C142.418 59.9018 135.867 52.8631 134.862 44.2247C134.36 39.8141 135.433 35.4035 137.693 31.6557C137.762 36.0663 138.88 40.5226 141.277 44.6589C143.286 48.0869 145.957 50.9435 148.993 53.2516C149.906 53.9372 151.23 53.8458 152.029 53.0002C152.897 52.0861 152.851 50.6235 151.938 49.7551C142.03 41.1396 142.852 25.3711 152.349 17.3726C159.654 10.8139 170.794 12.0936 177.391 18.4467C177.254 18.561 177.094 18.6981 176.957 18.8124C165.794 28.7534 160.133 43.6991 161.252 58.4621C161.503 61.2273 165.566 61.2044 165.817 58.4621C168.123 43.1964 174.469 32.2956 184.057 25.1655C188.28 22.3546 189.901 21.5776 193.485 19.7722C197 18.2868 200.79 17.1441 204.853 16.3214C198.826 21.1434 193.713 27.0851 190.06 33.8953C188.714 36.3177 192.229 38.5801 193.896 36.3862C210.514 15.1788 235.397 7.68302 260.028 13.4876C253.933 14.9045 248.021 16.9841 242.428 20.0236C224.964 29.2104 213.277 48.3154 212.158 67.6261C211.975 70.4598 216.176 70.9626 216.678 68.2202C220.878 44.5675 239.163 26.3767 262.813 22.8573C273.725 21.0519 285.755 19.795 296.051 24.5484C302.055 27.0622 306.94 31.2672 311.209 36.0434C293.471 32.2498 273.52 36.3405 258.887 46.3729C249.071 53.0459 240.83 61.8214 234.735 71.9681C233.297 74.4591 236.881 76.7672 238.547 74.4819C245.19 65.6836 253.454 58.0279 262.79 52.5889C284.546 39.5856 318.354 39.3342 334.311 61.1359C334.356 61.2044 334.402 61.2501 334.447 61.3187C317.395 53.8915 297.238 53.503 279.66 59.3533C277.012 60.2674 278.062 64.2438 280.779 63.7868C303.607 60.2217 329.037 64.061 346.044 80.6065C350.107 84.5829 353.281 88.9021 356.956 93.0842C336.251 89.999 312.167 99.78 297.398 121.307C295.754 123.73 299.27 126.267 301.073 124.027C302.032 122.976 304.2 120.416 305.159 119.388C307.396 117.171 310.25 114.497 312.784 112.578C339.287 91.8501 380.332 95.7351 386.427 133.694C386.792 135.568 387.043 137.487 387.226 139.407C386.906 137.693 386.404 135.888 385.605 134.014C383.14 128.278 379.19 124.758 376.291 122.839C375.241 122.13 373.826 122.427 373.118 123.456C372.41 124.507 372.707 125.924 373.734 126.632C375.675 127.935 379.259 130.86 381.382 135.819C382.455 138.31 382.911 140.687 383.025 142.766C381.679 142.446 380.309 142.149 378.916 141.944C375.698 135.933 368.621 125.969 355.426 121.079C345.222 117.285 335.954 118.222 329.973 119.685C328.741 119.982 327.987 121.216 328.284 122.45C328.581 123.684 329.813 124.438 331.046 124.141C336.411 122.839 344.72 121.993 353.851 125.375C363.827 129.077 369.899 136.048 373.301 141.372C369.762 141.212 366.178 141.372 362.526 141.989C357.618 142.766 353.075 144.343 348.966 146.514C348.258 143.863 346.98 140.687 344.583 137.647C339.789 131.591 333.534 129.557 330.247 128.895C329.014 128.643 327.805 129.443 327.553 130.677C327.302 131.911 328.101 133.122 329.334 133.374C331.503 133.808 336.959 135.385 340.999 140.481C343.35 143.452 344.401 146.606 344.857 148.982C339.492 152.616 334.95 157.369 331.343 162.808C330.863 149.942 325.316 137.259 315.044 129.215C312.784 127.363 309.907 130.7 312.053 132.665C327.553 146.171 327.622 169.253 318.148 186.278C318.011 186.141 317.897 185.981 317.783 185.821C312.852 180.336 308.013 175.377 305.159 168.613C302.283 162.214 300.936 155.107 301.004 147.954C300.982 144.983 296.622 144.914 296.439 147.84C295.48 164.157 302.169 178.097 313.195 189.706C320.614 198.276 324.7 208.742 326.321 219.735C321.55 215.987 316.505 213.359 312.213 209.062C302.443 199.761 295.777 187.489 291.759 174.577C291.417 173.48 290.275 172.772 289.111 173.023C287.878 173.275 287.079 174.486 287.353 175.743C288.837 182.782 291.303 189.66 294.567 196.173C299.635 205.817 306.757 214.958 315.82 221.174C336.228 233.903 342.825 259.727 341.478 282.603C341.25 286.031 340.908 289.596 340.908 293.344C340.908 304.427 344.834 315.374 350.77 324.538C352.413 326.96 356.02 324.698 354.696 322.207C347.962 310.163 345.93 296.749 348.236 283.174C348.555 279.769 348.669 276.318 348.624 272.845C350.313 273.507 352.025 274.102 353.76 274.627C354.125 277.392 354.331 280.18 354.376 282.969C354.445 287.448 354.08 291.95 353.349 296.383C353.144 297.617 353.965 298.806 355.221 299.011C355.358 299.011 355.472 299.034 355.609 299.034C356.705 299.034 357.664 298.257 357.846 297.137C358.645 292.452 359.01 287.653 358.942 282.9C358.919 280.569 358.759 278.215 358.531 275.884C361.293 276.524 364.101 276.958 366.909 277.187C367.502 281.917 367.571 286.671 367.091 291.401C366.224 299.743 363.69 307.718 359.581 315.1C358.965 316.197 359.353 317.591 360.471 318.208C360.814 318.413 361.202 318.505 361.59 318.505C362.389 318.505 363.165 318.071 363.576 317.339C367.982 309.409 370.698 300.839 371.657 291.881C372.159 287.036 372.091 282.192 371.543 277.347C374.237 277.347 376.93 277.095 379.624 276.615C385.719 295.583 377.547 316.928 360.38 326.755H360.197ZM410.967 298.92C407.086 314.597 394.599 321.727 389.623 323.989C392.841 319.236 395.444 314.117 397.316 308.769C400.009 301.137 401.288 293.115 401.105 285.185C401.014 282.329 396.814 282.214 396.54 285.048C395.581 296.315 391.312 307.17 384.555 316.082C390.079 303.239 390.011 287.996 384.441 275.473C391.312 273.507 397.681 270.331 403.365 266.195C406.287 269.805 415.076 282.42 410.99 298.92H410.967ZM415.898 216.307C410.419 247.821 379.145 275.29 348.51 254.814C347.688 254.242 346.889 253.854 346.09 253.58C343.875 244.461 340.086 235.8 334.47 228.373C333.854 217.906 331.137 207.234 326.138 197.887C328.375 151.382 376.588 133.511 404.781 173.48C413.455 185.775 418.432 201.361 415.898 216.33V216.307Z" fill="black"/>
</g>
</svg>
