<svg width="98" height="100" viewBox="0 0 98 100" fill="none" xmlns="http://www.w3.org/2000/svg">
<path d="M33.0279 25.0561C33.0843 25.0561 33.1407 25.0458 33.1971 25.0253C35.7703 24.1385 38.4461 23.5593 41.1476 23.303C44.1463 23.0159 47.1758 23.1287 50.154 23.6362C50.4308 23.6874 50.6974 23.4977 50.7435 23.2158C50.7897 22.9339 50.6051 22.6725 50.3232 22.6263C47.2578 22.1035 44.1361 21.9907 41.045 22.2829C38.2616 22.5494 35.5038 23.144 32.8536 24.0565C32.5871 24.1488 32.4435 24.4409 32.5358 24.7075C32.6076 24.9177 32.8075 25.0509 33.0228 25.0509L33.0279 25.0561Z" fill="black"/>
<path d="M51.5428 23.8376C51.9119 23.9094 52.2809 23.9965 52.6449 24.0939C52.973 24.1811 53.301 24.2836 53.6291 24.3963C53.6855 24.4169 53.7419 24.422 53.7931 24.422C54.0084 24.422 54.2032 24.2887 54.2801 24.0734C54.3724 23.8069 54.2288 23.5147 53.9623 23.4224C53.6137 23.3045 53.26 23.1969 52.9166 23.0995C52.5321 22.9918 52.1374 22.8995 51.7427 22.8226C51.4659 22.7663 51.1942 22.9508 51.143 23.2276C51.0866 23.5044 51.2711 23.7761 51.5479 23.8274L51.5428 23.8376Z" fill="black"/>
<path d="M41.2524 27.0248C39.7864 27.0863 38.2998 27.0658 36.8338 26.9684C36.5467 26.9428 36.3058 27.1632 36.2904 27.4451C36.2699 27.7271 36.4852 27.9731 36.7671 27.9885C37.7052 28.05 38.6484 28.0807 39.5916 28.0807C40.1606 28.0807 40.7296 28.0705 41.2986 28.0449C42.8108 27.9834 44.3332 27.8398 45.83 27.6143C46.1119 27.5733 46.3016 27.3118 46.2606 27.0299C46.2196 26.748 45.9581 26.5583 45.6762 26.5993C44.2153 26.8197 42.7287 26.9581 41.2576 27.0197L41.2524 27.0248Z" fill="black"/>
<path d="M64.2693 35.9108C64.2231 34.7831 64.0181 33.6759 63.649 32.6199C62.552 29.3803 59.8763 26.7557 56.6315 25.6997C55.9958 25.4998 55.678 26.4328 56.2931 26.6686C58.036 27.3247 59.5892 28.4832 60.7169 29.9646C59.3585 28.9855 57.7336 28.4166 56.0881 28.3294C55.8164 28.314 55.5806 28.514 55.5499 28.7908C55.5191 29.0727 55.7293 29.329 56.0112 29.3546C57.7541 29.534 59.4252 30.3132 60.6195 31.5434C61.8242 32.7481 62.5623 34.4192 62.7263 36.1005C62.7622 36.5106 63.1159 36.8233 63.5311 36.8079C63.9617 36.7925 64.2949 36.4286 64.2795 35.998C64.2795 35.9724 64.2795 35.9467 64.2744 35.9211L64.2693 35.9108Z" fill="black"/>
<path d="M40.3937 31.5247C40.6756 31.4939 40.8755 31.2376 40.8448 30.9557C40.814 30.6738 40.5526 30.479 40.2758 30.5046C39.1019 30.643 37.9127 30.6532 36.7439 30.5251C35.5649 30.3969 34.714 30.1663 33.9656 29.9664C33.0429 29.7152 32.2433 29.4999 31.136 29.5255C29.6239 29.5665 28.0963 30.0689 26.5892 31.0274C26.3483 31.1812 26.2817 31.4939 26.4303 31.7348C26.5277 31.8886 26.6917 31.9706 26.866 31.9706C26.9583 31.9706 27.0557 31.945 27.1428 31.8886C28.491 31.0326 29.8443 30.5815 31.1668 30.5456C32.1202 30.52 32.8174 30.7096 33.6991 30.9506C34.4833 31.1658 35.3753 31.4068 36.6363 31.5401C37.8819 31.6733 39.1481 31.6682 40.3988 31.5195L40.3937 31.5247Z" fill="black"/>
<path d="M61.496 38.1773C61.5627 38.1773 61.6293 38.1671 61.6908 38.1363C61.9522 38.0287 62.0753 37.7262 61.9676 37.4648C61.5063 36.3525 59.6609 32.6207 55.3448 31.17C52.4947 30.2115 49.9368 30.7292 48.6655 31.1239C48.3938 31.2059 48.2452 31.493 48.3272 31.7647C48.4092 32.0363 48.6963 32.185 48.968 32.103C50.1213 31.7441 52.4434 31.2726 55.0167 32.144C58.9227 33.4614 60.599 36.8548 61.0193 37.8647C61.1013 38.0594 61.291 38.1825 61.4909 38.1825L61.496 38.1773Z" fill="black"/>
<path d="M61.6907 38.4464C61.419 38.5233 61.2601 38.8052 61.337 39.0769C61.4293 39.405 61.4805 39.7484 61.4857 40.0867C61.4908 40.4763 61.4395 40.8607 61.3319 41.235C61.255 41.5066 61.4139 41.7886 61.6856 41.8706C61.7317 41.886 61.7778 41.8911 61.8291 41.8911C62.0546 41.8911 62.2597 41.7424 62.3212 41.5169C62.4545 41.0453 62.5211 40.5583 62.5109 40.0713C62.5057 39.6407 62.4391 39.2102 62.3212 38.7949C62.2443 38.5233 61.9624 38.3644 61.6907 38.4413V38.4464Z" fill="black"/>
<path d="M41.5472 33.2033C40.7988 33.357 40.0298 33.398 39.2661 33.3365C38.5587 33.2801 37.8615 33.1264 37.1951 32.8906C36.9286 32.7932 36.6364 32.9316 36.539 33.1981C36.4416 33.4647 36.58 33.7569 36.8466 33.8543C37.6001 34.1208 38.3844 34.29 39.1789 34.3566C39.4301 34.3771 39.6761 34.3874 39.9273 34.3874C40.5373 34.3874 41.1473 34.3259 41.7471 34.2028C42.0239 34.1464 42.2033 33.8748 42.1469 33.598C42.0905 33.3212 41.8188 33.1417 41.542 33.1981L41.5472 33.2033Z" fill="black"/>
<path d="M46.9204 31.6184C46.3462 31.8388 45.7721 32.0541 45.1878 32.2746C44.6854 32.4642 44.1831 32.6488 43.6858 32.8282C43.4193 32.9256 43.286 33.2229 43.3834 33.4843C43.4603 33.6893 43.6551 33.8226 43.8652 33.8226C43.9216 33.8226 43.9831 33.8124 44.0395 33.7919C44.5419 33.6073 45.0442 33.4228 45.5466 33.2331C46.131 33.0127 46.7102 32.7974 47.2843 32.577C47.5509 32.4745 47.679 32.1823 47.5816 31.9157C47.4791 31.6492 47.1869 31.521 46.9204 31.6184Z" fill="black"/>
<path d="M49.459 61.1473C49.3154 60.9013 49.0028 60.8193 48.7567 60.9577C48.5106 61.1012 48.4286 61.4139 48.567 61.6599C49.1514 62.6749 49.6384 63.7565 50.0075 64.8688C50.438 66.1606 50.7149 67.4985 50.8276 68.8569C50.8481 69.1235 51.0737 69.3234 51.3402 69.3234C51.3556 69.3234 51.371 69.3234 51.3864 69.3234C51.6683 69.2977 51.8785 69.0517 51.8528 68.7698C51.7298 67.3345 51.4376 65.9146 50.9814 64.5459C50.5918 63.3669 50.0792 62.2289 49.459 61.1525V61.1473Z" fill="black"/>
<path d="M48.3274 65.1182C48.271 64.8414 48.0044 64.6569 47.7276 64.7133C47.4508 64.7697 47.2663 65.0362 47.3226 65.313C47.5584 66.5125 47.743 67.7325 47.866 68.9474C47.9993 70.234 48.0659 71.5412 48.0762 72.8329C48.0762 73.1149 48.3069 73.3455 48.5888 73.3455C48.8707 73.3455 49.1014 73.1149 49.1014 72.8329C49.0963 71.5053 49.0245 70.1674 48.8861 68.8449C48.7579 67.5992 48.5683 66.3434 48.3274 65.1182Z" fill="black"/>
<path d="M57.8929 55.5513C61.476 55.6487 64.5927 58.7397 64.6337 62.3331C64.6439 62.7637 65.0181 63.102 65.4539 63.0713C65.8742 63.0405 66.1869 62.6766 66.1561 62.2562C66.0741 61.2003 65.7973 60.1853 65.3565 59.2421C64.0544 56.3971 61.0403 54.5261 57.9237 54.5313C57.2624 54.5313 57.2368 55.5155 57.8929 55.5565V55.5513Z" fill="black"/>
<path d="M54.5197 19.8107C57.0366 20.6155 59.3792 21.9944 61.2861 23.7886C64.1926 26.5259 65.5459 29.6528 66.1661 31.7954C66.2328 32.021 66.4378 32.1645 66.6582 32.1645C66.7044 32.1645 66.7556 32.1594 66.8018 32.144C67.0734 32.0671 67.2323 31.7801 67.1503 31.5084C66.8223 30.3704 66.2943 28.971 65.4639 27.4896C65.5202 27.4127 65.5664 27.3255 65.592 27.2179C66.2738 24.2909 68.7804 21.9278 71.7638 21.4203C72.4097 21.2922 72.261 20.3285 71.6049 20.4054C68.4575 20.7898 65.6791 23.0043 64.4848 25.9364C64.2541 25.6083 64.0029 25.2751 63.7415 24.947C63.7723 24.8907 63.803 24.824 63.8235 24.7523C64.2592 22.8864 65.6023 21.3076 67.3554 20.5028C67.9449 20.226 67.5707 19.334 66.9607 19.5596C65.0435 20.267 63.4442 21.7997 62.6394 23.6912C62.4292 23.4759 62.2191 23.2606 61.9935 23.0504C61.9218 22.9786 61.8397 22.9171 61.768 22.8454C62.0602 22.3738 62.3882 21.9176 62.7675 21.5126C63.3878 20.8462 64.1106 20.2875 64.9102 19.8466C65.1563 19.7082 65.2486 19.4007 65.1153 19.1495C64.9769 18.9034 64.6693 18.8112 64.4181 18.9444C63.5211 19.4365 62.7112 20.0619 62.0191 20.8103C61.6296 21.2255 61.281 21.6766 60.9734 22.1585C60.7838 22.0047 60.5992 21.8509 60.4044 21.7074C62.6548 18.4985 66.7095 16.6787 70.6053 17.3092C70.877 17.3502 71.1384 17.1657 71.1845 16.8889C71.2358 16.6121 71.0461 16.3455 70.7693 16.2943C69.6877 16.1046 68.5754 16.0636 67.4733 16.1764C64.2182 16.4993 61.2041 18.3088 59.2408 20.9128C58.5437 20.4669 57.8158 20.067 57.0674 19.7185C57.2007 19.2776 57.3801 18.8522 57.621 18.4575C58.4412 17.0991 59.8918 16.202 61.4655 15.9713C62.1217 15.8688 61.9986 14.8897 61.3374 14.9564C58.9128 15.1922 56.6932 16.8991 55.8833 19.211C55.5398 19.0777 55.1912 18.9547 54.8427 18.8419C54.571 18.7548 54.2839 18.9034 54.1968 19.1751C54.1096 19.4468 54.2583 19.7339 54.53 19.821L54.5197 19.8107Z" fill="black"/>
<path d="M81.8169 35.8726C79.1257 36.3801 77.6135 38.8714 77.2137 39.6198C76.6806 40.6245 76.5575 41.3934 76.5627 46.6322C76.5678 51.5686 76.6703 52.4452 77.3367 53.3679C79.0283 55.6951 82.1295 55.8335 82.8369 55.8335C82.8831 55.8335 82.9241 55.8335 82.9446 55.8335C86.6815 55.7412 89.5316 52.6348 90.6952 49.6002C91.9613 46.299 91.0386 43.331 90.5824 42.2084C89.3316 39.1277 85.7844 35.1242 81.8169 35.8726Z" fill="black"/>
<path d="M38.5698 52.78C38.3648 52.5852 38.0367 52.5954 37.847 52.8056C37.5395 53.1337 37.2832 53.5027 37.0833 53.9026C36.7398 54.5895 36.5707 55.3686 36.5963 56.158C36.6065 56.4348 36.8321 56.6553 37.1089 56.6553C37.114 56.6553 37.1191 56.6553 37.1243 56.6553C37.4062 56.645 37.6266 56.4092 37.6215 56.1273C37.601 55.507 37.7343 54.897 38.0008 54.3639C38.1546 54.0564 38.3545 53.7693 38.5954 53.513C38.7902 53.308 38.78 52.9799 38.5698 52.7902V52.78Z" fill="black"/>
<path d="M33.4529 57.1452C33.1608 57.2939 32.9455 57.6117 32.8481 58.0474C32.7045 58.7087 32.8686 59.4571 33.2684 59.9492C33.617 60.3798 34.1911 60.6925 34.7293 60.7437C34.7857 60.7489 34.8421 60.754 34.8934 60.754C35.1804 60.754 35.4316 60.672 35.6213 60.5131C36.2825 59.9646 35.9903 58.7446 35.5187 58.0782C35.0881 57.4682 34.1347 56.7967 33.4478 57.1401L33.4529 57.1452Z" fill="black"/>
<path d="M41.4983 57.08C40.8422 56.9775 40.022 57.1928 39.4582 57.6131C38.6739 58.2026 38.11 59.3611 38.556 60.0787C38.8123 60.4888 39.3249 60.6785 39.8836 60.6785C40.345 60.6785 40.8422 60.5503 41.242 60.3196C41.852 59.966 42.3595 59.2791 42.5082 58.6024C42.6004 58.1872 42.5492 57.8284 42.3595 57.5567C42.1801 57.3055 41.8828 57.1415 41.4983 57.08Z" fill="black"/>
<path d="M97.0452 49.1547C97.9833 43.6544 95.1947 37.6313 90.7043 34.2892C90.6171 34.2276 90.5351 34.1559 90.448 34.0944C90.6428 32.6796 90.6684 30.8701 90.1507 28.8812C89.8841 27.8508 89.0024 25.1904 86.6393 22.7658C85.5167 21.6176 84.2096 20.6692 82.7589 19.9465C82.4513 19.3467 82.0976 18.7726 81.7081 18.2292C81.057 17.3271 80.2933 16.5069 79.4321 15.7892C79.1553 14.9383 78.776 14.1284 78.2992 13.3851C76.7922 11.0323 74.5982 9.76613 73.0143 9.12024C72.8144 7.85924 72.0506 6.79302 71.1689 5.91134C70.0719 4.7631 68.7135 3.85067 67.2321 3.24579C66.4478 2.66142 65.5661 2.2052 64.6383 1.91814C63.5926 1.5952 62.511 1.46705 61.414 1.55419C59.5276 0.67764 57.5233 0.180413 55.4576 0.0727661C53.2175 -0.0451331 50.921 0.318816 48.8193 1.12873C47.1072 0.810917 45.3797 0.785287 43.683 1.05697C42.9244 1.17487 42.1708 1.3594 41.4327 1.5952C40.4331 0.913438 39.2746 0.48285 38.0802 0.375203C38.1161 0.375203 38.1469 0.385455 38.1828 0.385455C37.8342 0.257304 37.4497 0.149657 37.0345 0.0830182C36.3118 -0.034881 34.8765 -0.132276 33.3335 0.569993C31.4369 1.42604 30.4988 2.97924 30.14 3.72764C29.2532 3.91218 28.4228 4.2505 27.6692 4.73747C26.2749 5.64478 25.4907 6.84428 25.0703 7.74134C24.6859 7.7926 24.3168 7.9105 23.9733 8.08991C23.0507 8.57176 22.5944 9.37142 22.3945 9.85327C21.5744 10.3351 20.867 10.9554 20.298 11.7038C19.2317 13.1032 18.9139 14.5795 18.837 15.6047C18.2732 16.1429 17.5555 17.0297 17.1865 18.2959C16.6175 20.2335 17.1865 21.9097 17.5607 22.7145C15.1822 24.2267 13.2035 26.1592 11.6708 28.466C10.7584 29.8449 8.60545 33.6023 8.38503 38.7386C8.34914 39.5536 8.32864 41.7322 8.87713 44.367C9.24108 46.0996 9.70755 47.3811 10.1228 48.5139C10.7533 50.2414 11.2146 51.4922 10.7943 53.1838C10.5226 54.291 9.95872 55.3008 9.11805 56.1979C7.38545 58.0433 5.60671 58.4123 4.40721 58.3867C2.53108 58.3508 1.18292 57.4179 0.542169 56.8592C0.47553 56.8028 0.383261 56.7823 0.296118 56.8079C0.208975 56.8335 0.147463 56.9053 0.126959 56.9924C-0.00631872 57.5666 -0.103714 58.4687 0.203849 59.4991C0.496034 60.4679 1.02914 61.1497 1.45461 61.5597C1.51099 62.3953 1.74679 63.2206 2.13124 63.9536C2.6336 64.9071 3.31024 65.5683 3.91511 66.0092C3.64343 66.0348 3.37175 66.0399 3.10007 66.0245C2.70536 66.004 2.31066 65.9323 1.93133 65.8246C1.83393 65.7939 1.72629 65.8246 1.65965 65.9066C1.59301 65.9835 1.58276 66.0963 1.62889 66.1886C2.52595 67.9366 3.80746 69.5103 5.33503 70.7354C6.78057 71.8939 8.42091 72.7448 10.2048 73.2625C10.8814 73.9904 11.6606 74.6107 12.5217 75.1028C13.2394 75.5129 14.0032 75.8307 14.7977 76.0511C14.6234 76.1946 14.444 76.3228 14.2492 76.4407C13.8391 76.6918 13.3932 76.8815 12.9216 77.0045C12.8344 77.025 12.7678 77.0917 12.7422 77.1788C12.7165 77.266 12.737 77.3582 12.7934 77.4249C13.5982 78.3322 14.9874 79.5676 17.0429 80.3057C18.3501 80.7773 19.7546 80.9772 21.1489 80.9003C20.7593 81.4027 20.0673 82.0845 19.0113 82.4228C17.9964 82.7457 17.0993 82.6227 16.5252 82.4638C16.4381 82.4382 16.3458 82.4638 16.2843 82.5253C16.2228 82.5868 16.192 82.674 16.2074 82.7611C16.3048 83.2378 16.5867 84.1451 17.3966 84.8884C17.6478 85.114 17.9246 85.3087 18.227 85.4677L18.0528 85.5087C17.9656 85.5292 17.899 85.5907 17.8682 85.6676C17.8375 85.7496 17.8528 85.8419 17.9041 85.9085C18.3091 86.4519 18.7909 86.9337 19.3343 87.3387C19.852 87.7282 20.421 88.0358 21.0259 88.2665L20.4517 88.9329C20.4056 88.9892 20.38 89.061 20.3902 89.1328C20.4005 89.2045 20.4415 89.2712 20.4979 89.3122C21.518 90.0042 22.6303 90.5271 23.8042 90.8654C24.7166 91.1268 25.6598 91.2755 26.6133 91.3113C27.1669 92.7979 28.7354 96.0376 32.3083 97.7343C33.677 98.3853 35.1635 98.7287 36.7321 98.7544C37.4651 99.2362 38.9312 100 40.8739 100H40.8842C42.8065 100 44.2571 99.2567 44.9953 98.78C46.1845 98.8671 47.9735 98.7698 49.8445 97.8317C52.141 96.6834 53.3712 94.8688 53.9249 93.8231C55.637 93.3464 58.077 92.2955 60.194 89.994C61.9881 88.0358 62.8442 85.929 63.2543 84.3963C64.1923 84.9909 66.9399 86.4262 70.0309 85.2318C72.2351 84.3809 73.3936 82.6278 73.8396 81.782C75.3313 81.7205 77.5201 81.3617 79.7499 80.0392C81.2877 79.1267 82.6359 77.8657 83.6611 76.3843C84.8657 76.5278 86.0755 76.4458 87.2493 76.1382C88.4078 75.8358 89.515 75.3078 90.489 74.6004L90.5659 75.2924C90.5761 75.3796 90.6325 75.4565 90.7145 75.4975C90.7965 75.5334 90.8888 75.5282 90.9657 75.477C92.4471 74.4928 95.1127 72.2834 96.3173 68.5722C98.0858 63.1129 95.4459 58.2791 94.0413 56.2338C94.0465 56.2235 94.0516 56.2133 94.0618 56.2081C95.5792 54.1218 96.6197 51.6818 97.0503 49.1701L97.0452 49.1547ZM26.5312 9.61235C26.6543 9.52008 26.7414 9.39705 26.7978 9.2689C25.9315 12.6367 28.2075 17.0913 31.6778 18.6906C32.6928 19.1878 33.7949 19.5159 34.9995 19.5415C34.3741 19.8388 33.7641 20.1618 33.1695 20.5155C33.0772 20.4539 32.9747 20.4027 32.8465 20.3719C30.386 19.8183 28.1049 18.3164 26.5979 16.1737C26.2288 15.6508 25.4138 16.1686 25.7316 16.7222C26.8183 18.6291 28.4843 20.2489 30.4732 21.31C29.407 20.9768 28.392 20.4642 27.4796 19.7773C27.2745 19.6235 26.9721 19.644 26.7927 19.8388C26.5979 20.049 26.6133 20.3719 26.8183 20.5616C27.7769 21.4484 28.9097 22.1814 30.1451 22.6889C29.9606 22.8529 29.7709 23.0118 29.5915 23.181C29.5454 23.14 29.489 23.1041 29.4326 23.0734C28.3049 22.5146 27.2335 21.8226 26.3006 20.9871C24.1425 19.0392 21.7435 15.2664 23.6504 12.7546C23.7991 13.6978 24.2758 14.5949 24.9729 15.2202C25.1575 15.3945 25.4496 15.4048 25.6547 15.2356C25.8751 15.0511 25.9007 14.723 25.7111 14.5077C25.3933 14.1335 25.1626 13.7029 25.0498 13.2621C24.6807 11.8986 25.5163 10.4684 26.5261 9.61747L26.5312 9.61235ZM22.5944 25.7645C24.0092 26.0413 25.096 27.1896 25.3779 28.5736C25.4035 28.7018 25.465 28.8094 25.547 28.8966C25.3523 29.3528 25.1677 29.8192 25.0139 30.3011C24.5167 28.9991 23.43 27.9277 22.0665 27.5587C21.4206 27.3844 21.1386 28.3378 21.7743 28.5429C23.0148 28.9017 23.9221 29.9884 24.1425 31.2289C20.216 29.486 16.2689 31.5877 14.0493 35.2682C12.7165 37.293 12.1475 39.6408 12.1065 42.0244C11.8861 39.7997 12.0194 37.6057 13.1266 35.586C13.7828 34.3302 14.7054 33.2076 15.7973 32.2644C16.2996 31.8235 15.6538 31.0751 15.1412 31.475C14.4748 32.0029 13.9007 32.5668 13.3983 33.1563C13.5982 32.1311 14.3517 29.486 16.9353 27.938C18.55 26.9692 20.1749 26.8461 21.2514 26.9076C21.5385 26.9281 21.7794 26.7077 21.7948 26.4258C21.8102 26.1439 21.5949 25.8978 21.3129 25.8824C20.8157 25.8517 20.2108 25.8619 19.5496 25.9542C19.6008 25.8876 19.647 25.8107 19.6982 25.744C21.9537 23.0734 25.137 23.4988 26.8542 26.436C26.6799 26.7026 26.521 26.9743 26.3621 27.2511C25.6342 25.9132 24.2809 24.9085 22.7636 24.7444C22.1228 24.6727 21.9588 25.6159 22.5944 25.7543V25.7645ZM17.371 72.1245C19.3035 71.9092 21.1899 71.2377 22.8046 70.1305C23.4966 69.664 24.1425 69.136 24.7371 68.5466C24.6192 69.3257 24.5731 70.1202 24.5885 70.9097C24.5577 70.9199 24.5218 70.9199 24.4911 70.9353C23.1019 71.4274 21.8922 71.8324 20.5645 72.0169C19.5034 72.1758 18.4321 72.2066 17.371 72.1245ZM18.2424 67.4957C17.9554 67.5162 17.7401 67.7776 17.7708 68.0647C17.8016 68.3466 18.0579 68.5466 18.3398 68.5158C19.4932 68.3825 20.626 68.116 21.7128 67.6854C22.1382 67.5213 22.5534 67.3266 22.9584 67.1113C19.6777 70.7969 14.0493 71.494 9.76906 69.1873C11.0403 69.0387 12.2962 68.7618 13.5111 68.3466C18.5602 66.7217 22.4355 62.3953 23.4761 57.1923C23.6863 57.218 23.9016 57.2385 24.1169 57.2539C24.6961 57.9664 25.4189 58.5815 26.2903 59.0429C26.2903 59.0634 26.2903 59.0787 26.2903 59.0992C26.2544 59.212 26.2237 59.3299 26.2134 59.4683C26.157 60.432 25.8956 61.4162 25.4804 62.3287C24.2245 65.1634 21.3437 67.2292 18.2424 67.4957ZM14.6388 60.0476C13.2753 62.9079 9.76906 64.3329 6.94461 62.708C6.83183 62.6516 6.71906 62.6208 6.61141 62.6003C7.92368 62.4414 9.21032 62.0826 10.4098 61.4265C11.9117 60.6217 13.1933 59.2581 13.793 57.6178C14.5363 55.3624 14.5004 52.9992 14.1108 50.6925C14.3876 51.2102 14.7003 51.6972 15.0386 52.1688C15.746 54.2961 15.9562 56.6029 15.5717 58.8532C15.5256 59.1197 15.6948 59.376 15.9613 59.4376C16.2381 59.5042 16.5149 59.3299 16.5765 59.0531C16.9558 57.4794 17.0634 55.8442 16.9148 54.2295C18.3501 55.4956 20.0775 56.4132 22.0049 56.9053C21.5026 59.6016 20.216 62.1646 18.2424 64.0766C16.5047 65.8041 14.2902 66.9831 11.9271 67.6495C14.8695 66.5833 17.2428 64.0356 18.0015 60.9959C18.1604 60.391 17.2633 60.0937 17.0275 60.6729C15.9408 63.2718 13.7315 65.3684 11.0301 66.1732C10.5585 66.3577 10.0869 66.3987 9.62553 66.4705C9.13343 66.4551 8.66696 66.286 8.57982 65.8503C8.55931 65.7426 8.59007 65.5683 8.70797 65.4197C8.78998 65.3171 8.90276 65.2351 9.04116 65.1787C11.963 65.189 14.5773 63.1437 15.5769 60.4628C15.8075 59.8681 14.9259 59.4786 14.6388 60.0476ZM17.3761 51.81C17.8631 52.015 19.6521 52.8096 20.2057 52.9531C20.99 53.153 21.7896 53.3171 22.6098 53.3324C22.6508 53.6451 22.7226 54.373 22.8046 54.6755C21.3078 54.3833 18.3193 53.5426 17.3761 51.8049V51.81ZM20.6927 34.079C19.5188 33.4844 18.386 33.3408 17.453 33.3767C19.3496 31.7518 21.7999 31.1366 24.4603 32.5514C24.2707 33.6176 24.1784 34.7351 24.1938 35.9039C23.9785 36.2524 23.7786 36.6215 23.5991 37.0008C23.0917 36.0269 22.21 34.8428 20.6978 34.079H20.6927ZM23.8401 22.366C23.0865 22.2788 22.3176 22.3711 21.5846 22.6274C20.5338 21.351 20.2877 19.5569 20.8465 18.0088C20.867 18.1472 20.8875 18.2856 20.9182 18.424C21.2668 20.0746 22.3484 21.474 23.8401 22.366ZM21.9178 16.348C22.087 17.1323 22.3894 17.9268 22.7995 18.6957C23.3839 19.8798 24.1784 20.9358 25.1062 21.8636C23.4761 21.1767 22.2664 19.8337 21.9229 18.2139C21.7794 17.5423 21.8102 16.9118 21.9229 16.348H21.9178ZM25.9674 23.2066C26.1622 23.2476 26.357 23.2835 26.5518 23.3143C26.5774 23.3143 26.5979 23.3143 26.6235 23.3143C26.6748 23.3143 26.7209 23.304 26.767 23.2887C27.3053 23.6834 27.8691 24.0473 28.4484 24.3702C28.1613 24.6932 27.8897 25.0213 27.6282 25.3596C27.5001 25.0879 27.3565 24.847 27.2796 24.6829C26.9106 24.0576 26.4646 23.5655 25.9674 23.1964V23.2066ZM17.7349 77.5325C17.2172 77.3326 17.3556 76.5432 17.899 76.5227C19.5034 76.3843 20.8157 75.9998 22.2049 75.1848C22.6765 74.8875 23.2301 75.477 22.9123 75.9281C21.8255 77.512 19.5239 78.245 17.7298 77.5377L17.7349 77.5325ZM22.6816 84.1708C22.1075 84.2528 21.8665 83.4377 22.3791 83.1917C23.9272 82.3613 24.8653 81.0849 25.3779 79.4138C25.5163 78.8653 26.3416 78.9319 26.4031 79.4855C26.6902 81.6744 24.8448 83.9042 22.6867 84.1708H22.6816ZM28.556 85.8982C28.2228 86.4929 26.2339 88.6509 25.6854 87.6462C25.5675 87.4156 25.6444 87.1387 25.8495 86.9952C26.4902 86.5339 26.9875 85.9136 27.295 85.2267C27.7307 84.3092 29.0789 85.0319 28.556 85.9034V85.8982ZM35.9529 84.3245C35.9991 84.9704 36.9525 84.955 36.9781 84.3092C37.0499 81.5616 37.5676 78.8448 38.5006 76.3023C40.5202 76.3382 42.545 76.2254 44.5493 75.9896C45.1696 76.2408 45.6002 76.5842 45.8257 77.0148C46.246 77.8196 45.8103 78.7064 44.7902 80.6235C44.3186 81.5103 43.7343 82.6124 43.1345 83.9657C42.0581 86.3955 41.566 88.2357 41.2071 89.5787C40.715 91.419 40.469 92.3468 39.3156 92.9927C37.6445 93.9359 35.4249 93.5617 34.0768 92.8133C30.7141 90.9525 30.6013 85.8419 30.5449 83.0994C30.4937 80.5979 30.9243 78.1015 31.8367 75.6718C33.4617 75.9486 35.102 76.1382 36.7526 76.2305C36.0708 78.8807 35.8043 81.6231 35.9529 84.3194V84.3245ZM29.6376 80.5364C28.6586 79.424 27.8896 78.1528 27.3924 76.7944C27.1207 76.0562 26.926 75.2873 26.8132 74.503C28.1254 74.8977 29.4582 75.2309 30.8115 75.4975C30.2066 77.1532 29.817 78.8397 29.6376 80.5415V80.5364ZM58.8305 85.4523C58.9176 83.894 58.5178 82.2946 57.5131 80.8696C57.1338 80.3313 56.3187 80.8645 56.6519 81.4283C58.7177 84.7603 57.5387 88.8098 54.3606 90.8244C54.4682 89.8812 54.4528 88.9277 54.3093 88.005C53.8941 85.3446 52.5408 83.4326 51.4746 82.2895C51.2952 82.0127 51.1414 81.8128 51.0594 81.7C50.8851 81.4796 50.5622 81.4386 50.3418 81.6129C50.1213 81.7871 50.0803 82.1101 50.2546 82.3305C50.6647 82.8534 52.6792 85.6419 51.7924 89.1533C51.1773 91.5933 49.3422 93.5822 46.9432 94.5305C46.9586 94.5049 46.9791 94.4844 46.9996 94.4587C47.6608 93.4797 47.7685 92.4186 47.7377 91.6958C47.7275 91.4139 47.4917 91.1986 47.2046 91.2037C46.9227 91.2139 46.7023 91.4498 46.7125 91.7368C46.733 92.3007 46.651 93.1362 46.1486 93.8846C45.5591 94.7561 44.5596 95.2994 43.396 95.4481C45.1388 94.0282 45.6719 91.5728 46.2768 88.7842C46.7791 86.4775 47.343 83.8683 48.6655 81.1976C50.1316 78.245 52.3768 75.5795 55.3499 73.2779C55.5755 73.1036 55.6165 72.7807 55.4422 72.5602C55.3089 72.3911 55.0936 72.3296 54.8937 72.386C54.8937 72.386 54.8886 72.386 54.8834 72.386C46.3742 74.3185 37.665 74.4979 29.1302 73.0318C28.8175 70.5611 29.2788 67.9827 30.4834 65.758C30.7859 65.1685 29.9349 64.6918 29.5915 65.2505C28.2587 67.4906 27.6128 70.1459 27.7564 72.7755C27.6539 72.755 27.5513 72.7397 27.4437 72.7192C26.8337 72.5961 26.357 72.0989 26.2801 71.4787C25.7367 67.0549 27.7 62.3902 31.3446 59.7451L31.5907 59.5606C30.9448 54.9471 34.5228 51.0667 39.1362 51.118C39.8231 51.1282 39.8436 50.1133 39.1567 50.0928C38.8184 50.0876 38.4749 50.103 38.1418 50.1389C37.5933 50.1953 37.1268 49.7391 37.1422 49.1906C37.1473 48.8369 37.3523 48.5088 37.6753 48.3653C37.8188 48.2986 37.9675 48.2423 38.1212 48.1961C39.0286 47.9039 39.8436 47.9655 40.3665 48.0629C40.6484 48.1141 40.9149 47.9347 40.9662 47.6579C41.0175 47.3811 40.8381 47.1094 40.5612 47.0581C39.9205 46.9351 38.9209 46.8634 37.8086 47.2222C37.5933 47.2939 37.501 47.3555 37.3216 47.2632C37.1883 47.1914 37.1883 46.8992 37.1883 46.8992C37.1934 46.6019 37.3677 46.3354 37.6394 46.2021C38.3929 45.8228 39.5873 45.5101 41.0585 45.6792C42.8372 45.8843 44.0111 46.8839 44.5852 47.5195C44.7646 47.7194 44.7851 48.0116 44.6365 48.2371C44.4622 48.5037 44.0982 48.5857 43.8317 48.4114C43.4318 48.15 43.0166 47.9193 42.5809 47.7297C42.3246 47.6169 42.017 47.7297 41.9043 47.9911C41.7915 48.2525 41.9043 48.555 42.1657 48.6677C42.5194 48.8215 42.8628 49.0112 43.1909 49.2213C43.4985 49.4161 43.5856 49.8262 43.3857 50.1338V50.144C43.2165 50.3952 42.9039 50.4875 42.6219 50.4003C42.1349 50.2466 41.6172 50.1389 41.079 50.0774C40.469 49.9954 40.2742 50.9078 40.8688 51.0821C43.5446 51.8715 45.472 53.3017 44.9389 56.3055C44.821 57.1308 44.5442 57.9561 44.1649 58.766C44.0623 58.9711 44.1085 59.2325 44.293 59.3863C45.1798 60.1091 46.2768 57.2692 46.3896 56.5721C46.3947 56.5413 46.3998 56.5157 46.4049 56.485C48.2144 57.5409 49.7574 58.9916 50.8646 60.7088C53.2175 64.3483 53.0996 68.1262 52.8176 70.0485C52.7766 70.3253 52.9663 70.5816 53.238 70.6277C54.3657 70.8225 55.4576 71.1608 56.493 71.6427C56.7186 71.7503 56.9441 71.8631 57.1645 71.981C57.0056 72.1553 56.9749 72.4167 57.1184 72.6166C57.8822 73.6829 58.4614 74.8567 58.8459 76.1075C59.1175 76.9994 59.2816 77.917 59.3431 78.8448C58.4614 77.3992 57.3029 76.5586 56.857 76.2715C56.6212 76.1177 56.3033 76.1895 56.1496 76.4253C55.9958 76.6611 56.0675 76.9789 56.3033 77.1327C56.8775 77.5018 58.7946 78.9012 59.297 81.5155C59.5994 83.0943 59.2662 84.4527 58.8254 85.4523H58.8305ZM32.4467 46.1201C33.6513 46.1201 34.6304 47.0992 34.6304 48.3038C34.6304 49.5084 33.6513 50.4875 32.4467 50.4875C31.2421 50.4875 30.263 49.5084 30.263 48.3038C30.263 47.0992 31.2421 46.1201 32.4467 46.1201ZM28.4945 44.1055C28.351 44.2286 28.1767 44.285 28.0024 44.285C27.782 44.285 27.5667 44.1927 27.4129 44.0133C27.1412 43.6903 27.1823 43.2034 27.5052 42.9317C28.0896 42.4396 29.3352 41.5989 31.1037 41.5015C32.7338 41.4144 33.9845 42.009 34.5894 42.3729C34.9534 42.5934 35.0712 43.065 34.8508 43.4289C34.6304 43.7929 34.1588 43.9107 33.7949 43.6903C33.3438 43.4186 32.4006 42.9778 31.1857 43.0393C29.8632 43.1111 28.9302 43.7416 28.4894 44.1107L28.4945 44.1055ZM50.3469 51.5998C50.7723 51.8561 51.2388 52.0304 51.7309 52.1124C52.3563 52.2201 53.0124 52.1688 53.6276 51.9689C53.9402 51.8664 54.2837 52.0407 54.3862 52.3534C54.4887 52.6712 54.3144 53.0095 54.0018 53.112C53.4789 53.2812 52.9304 53.3683 52.3819 53.3683C52.1 53.3683 51.8129 53.3427 51.5361 53.2966C50.8954 53.1889 50.2905 52.9634 49.7318 52.625C49.4498 52.4559 49.3576 52.0868 49.5267 51.7997C49.6959 51.5178 50.0649 51.4255 50.352 51.5947L50.3469 51.5998ZM49.701 48.3038C49.701 47.0992 50.6801 46.1201 51.8847 46.1201C53.0893 46.1201 54.0684 47.0992 54.0684 48.3038C54.0684 49.5084 53.0893 50.4875 51.8847 50.4875C50.6801 50.4875 49.701 49.5084 49.701 48.3038ZM52.1717 43.3315C50.9107 43.3879 49.9983 43.9671 49.5677 44.3106C49.2345 44.572 48.7527 44.5156 48.4861 44.1876C48.2247 43.8544 48.276 43.3725 48.6091 43.106C49.1833 42.6497 50.4033 41.8706 52.1 41.7988C54.1299 41.7117 55.5857 42.6856 56.1239 43.106C56.4571 43.3674 56.5135 43.8544 56.2521 44.1876C56.0983 44.3823 55.8779 44.4797 55.6472 44.4797C55.4781 44.4797 55.314 44.4234 55.1705 44.3157C54.7707 43.9979 53.6737 43.27 52.1666 43.3366L52.1717 43.3315ZM80.8828 73.2933C80.6931 73.4009 80.5393 73.5496 80.4214 73.7187C79.0733 73.4727 77.761 73.1292 76.6384 72.5141C73.7729 71.0788 73.2296 68.4235 73.6294 65.3325C74.0651 61.9801 74.3112 58.0792 71.9122 55.2137C70.846 53.8194 69.2364 53.2094 68.0779 52.0509C65.9147 49.8826 64.4691 46.9761 63.69 43.9876C63.69 43.9723 63.6797 43.9671 63.6746 43.9518C63.6336 43.8031 63.5362 43.675 63.3824 43.6083C63.121 43.5007 62.8186 43.6237 62.7109 43.8851C62.1829 45.1615 61.9625 46.5609 62.0804 47.9347C62.2291 49.7083 62.8954 51.0667 63.4286 51.892C63.526 52.0458 63.69 52.1278 63.8591 52.1278C63.9565 52.1278 64.0488 52.1022 64.136 52.0458C64.3717 51.892 64.4435 51.5742 64.2897 51.3384C63.8181 50.6105 63.2338 49.411 63.1005 47.8476C63.0595 47.3606 63.0697 46.9044 63.1107 46.4789C63.7412 48.9804 64.8997 51.3794 66.6836 53.3888C67.2628 54.0501 68.0061 54.6396 68.6623 55.106C72.1121 57.4179 71.784 61.3957 71.3227 65.1172C71.1228 67.0856 71.1484 69.295 72.1429 71.0942C72.922 72.5397 74.265 73.6982 75.7362 74.3441C77.0895 74.949 78.4838 75.2514 79.8678 75.395C79.2476 76.0357 78.0481 77.0045 76.2693 77.2198C74.2189 77.471 72.6349 76.5637 71.825 75.9435C71.7225 75.8614 71.62 75.7794 71.5175 75.6923C71.4098 75.6 71.3278 75.5231 71.2766 75.4719C71.2458 75.4411 71.215 75.4257 71.1792 75.4155C70.4615 74.7952 69.8156 74.1186 69.262 73.3804C65.8839 68.9105 68.8724 65.0198 68.5597 60.2167C68.247 56.5055 65.3406 53.558 62.0497 52.215C61.4653 51.9638 61.0449 52.7993 61.5781 53.1274C64.9202 55.0958 67.3346 58.3047 66.7297 62.2005C66.5042 64.1023 65.8583 66.2142 65.8583 68.2492C65.7968 70.356 66.5196 72.2219 67.6781 73.8264C67.9497 74.6517 68.3752 75.5436 69.0313 76.4099C69.467 76.984 69.9386 77.4608 70.4102 77.8555C69.5234 77.3941 68.693 76.8046 67.9702 76.0818C67.7908 75.9024 67.4986 75.8768 67.2936 76.0408C67.0681 76.2151 67.0271 76.5381 67.2013 76.7636C68.1753 78.0246 69.4465 79.0703 70.8921 79.829C69.749 80.034 66.8681 80.2852 64.1513 78.4193C61.7318 76.7585 60.8297 74.3595 60.4965 72.9191C60.5887 73.1087 60.6912 73.2933 60.7938 73.4727C61.6857 75.0464 62.9313 76.3894 64.3871 77.3839C64.6024 77.5274 64.8997 77.4915 65.0689 77.2916C65.2534 77.0763 65.2227 76.7482 65.0074 76.5688C62.998 74.9029 61.7113 72.5039 61.3423 69.9613C62.2906 72.4116 63.8694 74.6055 65.9916 76.1946C66.5145 76.5945 67.1296 75.8153 66.6375 75.395C65.8224 74.6978 65.0945 73.9135 64.4743 73.0472C62.6084 70.4791 61.7985 67.224 62.0445 64.0818C62.1009 63.4871 61.4704 63.0002 60.9117 63.2206C57.3593 64.784 54.2837 61.7494 53.3764 58.4534C55.3089 60.2218 58.0513 61.0523 60.6605 60.5858C61.3423 60.4628 61.1475 59.4478 60.476 59.576C57.6105 60.1962 54.3862 58.5815 53.3149 55.8493C53.3507 55.7724 53.484 55.6443 53.5097 55.5725C53.3149 55.2701 53.0586 55.0445 52.7459 54.8344C56.7698 54.7626 60.0095 51.4871 60.0095 47.4477C60.0095 47.2017 59.9941 46.9556 59.9736 46.7147C59.9428 46.0381 59.8403 45.0487 59.5174 43.9005C59.2355 42.9009 58.1128 38.9641 54.376 36.9445C53.6788 36.5702 52.4332 36.0166 50.6954 35.8475C50.5314 35.827 50.3674 35.8218 50.1982 35.8167C50.1316 35.8167 50.0649 35.8065 49.9983 35.8013C49.9522 35.8013 49.9112 35.8013 49.865 35.8013C48.5117 35.8013 47.2405 36.1704 46.1486 36.8112V36.8009C45.9692 36.8932 45.677 37.0418 45.3131 37.2213C44.616 37.5698 44.0008 37.8723 43.9291 37.9081C43.0884 38.3182 40.7714 38.7437 38.2391 38.0978C36.6552 37.6929 35.9119 37.1085 33.8102 36.9086C33.4463 36.8727 33.1439 36.8624 32.9491 36.8573C32.7286 36.8522 32.5031 36.8419 32.2775 36.8573C28.3971 37.0008 25.2087 40.2149 25.0908 44.1004C25.0703 44.7412 25.137 45.3665 25.2702 45.9612C25.424 46.6532 26.0545 47.1299 26.7568 47.1453C26.6902 47.4734 26.6543 47.8065 26.6543 48.1551C26.6543 50.8412 28.7354 53.03 31.3702 53.2197C31.2421 53.5939 31.0114 54.0193 30.5962 54.3525C29.7555 55.0292 28.4843 55.0855 27.4334 54.4909C27.1874 54.3525 26.8747 54.4397 26.7363 54.6857C26.5979 54.9318 26.685 55.2444 26.9311 55.3829C27.5718 55.7468 28.2792 55.9262 28.9712 55.9262C29.3301 55.9262 29.6838 55.8698 30.0221 55.7724C30.0221 55.7776 30.0221 55.7827 30.0221 55.7878C29.9657 56.6387 29.3967 57.3461 28.6073 57.4435C28.5407 57.3666 28.4586 57.3 28.3664 57.2487L27.9973 57.0437H27.987C27.1361 56.7976 26.3928 56.3107 25.8136 55.6802C25.7316 55.4392 25.5778 55.2291 25.3523 55.0855C24.6602 54.0398 24.3629 52.7378 24.6705 51.4563C24.8345 50.6413 25.2087 49.8621 25.7265 49.1803C25.9571 48.9086 25.993 48.5088 25.788 48.191C24.7576 46.6224 24.081 44.7924 23.9323 42.9265C23.553 36.9239 27.6282 31.111 34.1588 33.4895C34.7842 33.7099 35.1379 32.7872 34.5228 32.5309C30.709 31.029 27.5001 32.0747 25.342 34.4019C26.2749 26.2361 32.8876 20.741 40.9201 19.2032C43.7035 18.6701 46.5434 18.5214 49.4191 18.506C49.6651 18.506 49.8855 18.3318 49.9317 18.0755C49.9778 17.7935 49.7933 17.5321 49.5113 17.4808C47.7326 17.1989 45.918 17.122 44.1136 17.2348C43.6779 16.6966 43.2114 15.9276 42.9654 14.9332C42.5194 13.1544 43.0166 11.6576 43.3549 10.9195C43.4728 10.6632 43.3549 10.3556 43.1038 10.2429C42.8475 10.125 42.5399 10.2429 42.4271 10.494C42.0375 11.3501 41.4583 13.0981 41.976 15.1792C42.1913 16.0455 42.5502 16.7581 42.9295 17.3322C42.34 17.3937 41.7556 17.4808 41.1712 17.5834C39.6283 17.527 38.0905 17.568 36.5527 17.6346L35.794 17.6654C34.6612 17.7474 33.5847 17.4552 32.5646 16.9529C29.0635 15.3176 26.6543 10.0071 29.6274 7.37226C29.2942 8.20781 29.1609 9.12024 29.2634 10.0327C29.5402 12.4112 31.3344 14.3437 33.7333 14.8512C33.7692 14.8563 33.8051 14.8614 33.841 14.8614C34.0768 14.8614 34.2921 14.6974 34.3433 14.4565C34.3997 14.1797 34.2254 13.908 33.9486 13.8516C31.9802 13.4364 30.5091 11.8576 30.2835 9.91991C30.1707 8.93058 30.4117 7.94125 30.9191 7.10058C30.9345 8.08991 31.1857 9.08949 31.7239 10.0173C32.175 10.7862 32.7748 11.427 33.4565 11.9447C33.6616 12.0985 33.9589 12.078 34.1383 11.8883C34.3331 11.6833 34.3228 11.3552 34.1178 11.1604C31.8931 9.22789 32.0776 5.69092 34.2101 3.8968C35.8504 2.42562 38.3519 2.71268 39.8333 4.13772C39.8026 4.16335 39.7667 4.19411 39.736 4.21974C37.2293 6.44957 35.9581 9.80201 36.2092 13.1134C36.2656 13.7337 37.1781 13.7286 37.2344 13.1134C37.7522 9.68924 39.1772 7.24411 41.3302 5.64478C42.2785 5.01428 42.6424 4.83999 43.4472 4.43504C44.2366 4.10184 45.0875 3.84554 46 3.661C44.6467 4.7426 43.4985 6.07537 42.6783 7.60293C42.3759 8.1463 43.1653 8.65378 43.5395 8.16167C47.2712 3.4047 52.8586 1.72335 58.3897 3.02537C57.021 3.34319 55.6933 3.80966 54.4375 4.49142C50.516 6.55209 47.8915 10.8375 47.6403 15.169C47.5993 15.8046 48.5425 15.9174 48.6553 15.3023C49.5985 9.9968 53.7044 5.91646 59.015 5.12705C61.4653 4.72209 64.1667 4.44016 66.4786 5.50638C67.8267 6.07025 68.9237 7.01344 69.8823 8.08478C65.8993 7.23386 61.4191 8.15142 58.1334 10.4018C55.9291 11.8986 54.0786 13.867 52.71 16.1429C52.387 16.7017 53.1918 17.2194 53.566 16.7068C55.0577 14.7333 56.9133 13.016 59.0099 11.796C63.895 8.87932 71.4867 8.82293 75.0698 13.7132C75.0801 13.7286 75.0903 13.7388 75.1006 13.7542C71.2714 12.0882 66.7451 12.0011 62.7981 13.3134C62.2034 13.5184 62.4392 14.4103 63.0492 14.3078C68.1753 13.5081 73.8857 14.3693 77.7046 18.0806C78.6171 18.9725 79.3296 19.9413 80.1549 20.8794C75.5055 20.1874 70.0976 22.3813 66.781 27.2101C66.4119 27.7534 67.2013 28.3224 67.6063 27.8201C67.8216 27.5843 68.3086 27.0102 68.5238 26.7795C69.0262 26.2823 69.667 25.6825 70.236 25.2519C76.1873 20.6026 85.4039 21.474 86.7726 29.9884C86.8546 30.4087 86.911 30.8393 86.952 31.2699C86.8802 30.8855 86.7675 30.4805 86.5881 30.0602C86.0344 28.7735 85.1476 27.9841 84.4966 27.5535C84.2608 27.3946 83.943 27.4613 83.7841 27.6919C83.6252 27.9277 83.6918 28.2455 83.9225 28.4044C84.3582 28.6966 85.163 29.3528 85.6397 30.4651C85.8807 31.0239 85.9832 31.557 86.0088 32.0234C85.7064 31.9517 85.3988 31.885 85.0861 31.8389C84.3634 30.4908 82.7743 28.2558 79.8114 27.1588C77.5201 26.3079 75.4389 26.5181 74.0959 26.8461C73.8191 26.9128 73.6499 27.1896 73.7165 27.4664C73.7832 27.7432 74.06 27.9123 74.3368 27.8457C75.5414 27.5535 77.4073 27.3639 79.4577 28.1225C81.6978 28.9529 83.0613 30.5164 83.8251 31.7108C83.0306 31.6749 82.2258 31.7108 81.4056 31.8492C80.3035 32.0234 79.2834 32.3771 78.3607 32.8641C78.2018 32.2695 77.9148 31.557 77.3765 30.8752C76.3001 29.5168 74.8955 29.0606 74.1574 28.9119C73.8806 28.8555 73.6089 29.035 73.5525 29.3118C73.4961 29.5886 73.6755 29.8602 73.9523 29.9166C74.4393 30.014 75.6645 30.3677 76.5718 31.5108C77.0997 32.1772 77.3355 32.8846 77.4381 33.4177C76.2334 34.2328 75.2133 35.299 74.4034 36.519C74.2958 33.633 73.0502 30.7881 70.7434 28.9837C70.236 28.5685 69.5901 29.3169 70.0719 29.7577C73.5525 32.7872 73.5679 37.9645 71.4406 41.7834C71.4098 41.7527 71.3842 41.7168 71.3586 41.6809C70.2513 40.4507 69.1646 39.3383 68.5238 37.821C67.878 36.3857 67.5755 34.7915 67.5909 33.1871C67.5858 32.5207 66.6067 32.5053 66.5657 33.1614C66.3504 36.8214 67.8523 39.9483 70.3282 42.5523C71.9942 44.4746 72.9118 46.8223 73.2757 49.288C72.2044 48.4473 71.0715 47.8578 70.1078 46.8941C67.9139 44.8078 66.417 42.0551 65.5149 39.1589C65.438 38.9129 65.1817 38.7539 64.9202 38.8103C64.6434 38.8667 64.464 39.1384 64.5255 39.4203C64.8587 40.9992 65.4123 42.5421 66.1454 44.003C67.2833 46.1662 68.8827 48.2166 70.9177 49.6109C75.5004 52.4661 76.9818 58.2586 76.6794 63.3897C76.6281 64.1587 76.5513 64.9583 76.5513 65.799C76.5513 68.2851 77.4329 70.7405 78.7657 72.7961C79.1348 73.3394 79.9447 72.8319 79.6474 72.2732C78.1352 69.5718 77.679 66.5628 78.1967 63.5179C78.2685 62.7541 78.2941 61.9801 78.2839 61.2009C78.6632 61.3496 79.0476 61.4829 79.4372 61.6007C79.5192 62.221 79.5654 62.8464 79.5756 63.4718C79.591 64.4765 79.509 65.4863 79.3449 66.4808C79.2988 66.7576 79.4834 67.0241 79.7653 67.0703C79.796 67.0703 79.8217 67.0754 79.8524 67.0754C80.0985 67.0754 80.3138 66.9011 80.3548 66.6499C80.5342 65.5991 80.6162 64.5226 80.6008 63.4564C80.5957 62.9335 80.5598 62.4055 80.5086 61.8827C81.1288 62.0262 81.7593 62.1236 82.3898 62.1749C82.5231 63.236 82.5385 64.3022 82.4308 65.3633C82.236 67.2343 81.6671 69.0233 80.7444 70.679C80.606 70.925 80.6931 71.2377 80.9443 71.3761C81.0212 71.4223 81.1083 71.4428 81.1954 71.4428C81.3749 71.4428 81.5492 71.3454 81.6414 71.1813C82.6308 69.4026 83.2407 67.4803 83.456 65.4709C83.5688 64.3842 83.5534 63.2975 83.4304 62.2108C84.0353 62.2108 84.6402 62.1544 85.245 62.0467C86.6137 66.3013 84.7786 71.0891 80.9238 73.2933H80.8828ZM92.2831 67.0497C91.4117 70.5662 88.6077 72.1655 87.4902 72.673C88.213 71.6068 88.7974 70.4586 89.2177 69.2591C89.8226 67.547 90.1097 65.7477 90.0686 63.969C90.0481 63.3282 89.105 63.3026 89.0434 63.9382C88.8281 66.4654 87.8696 68.9003 86.3523 70.8994C87.5928 68.0186 87.5774 64.5995 86.3266 61.7904C87.8696 61.3496 89.2997 60.6371 90.5761 59.7092C91.2323 60.5192 93.2058 63.3487 92.2882 67.0497H92.2831ZM93.3903 48.5191C92.1601 55.5879 85.1374 61.7494 78.2582 57.1565C78.0737 57.0283 77.8943 56.9412 77.7149 56.8797C77.2176 54.8344 76.3667 52.8916 75.1057 51.2256C74.9673 48.8779 74.3573 46.484 73.2347 44.3875C73.737 33.956 84.5633 29.9474 90.8939 38.9128C92.8418 41.6707 93.9593 45.1666 93.3903 48.5242V48.5191Z" fill="black"/>
</svg>
