<svg width="222" height="65" viewBox="0 0 222 65" fill="none" xmlns="http://www.w3.org/2000/svg">
<path d="M1.80934 39.6133H0.218872V41.7897L1.80934 42.4136V57.6194H5.02051V39.6133H3.41493H1.80934Z" fill="black"/>
<path d="M102.258 55.0803L96.9878 39.6133H93.8553L99.9867 57.6194H101.382H103.119H104.53L110.661 39.6133H107.514L102.258 55.0803Z" fill="black"/>
<path d="M114.657 39.6133H113.051V41.7897L114.657 42.4136V57.6194H117.853V39.6133H116.247H114.657Z" fill="black"/>
<path d="M29.1285 38.4145C27.2304 38.4145 24.2294 39.0128 23.3119 41.3391C21.8286 39.0128 19.37 38.4145 17.4953 38.4145C15.6282 38.4057 13.8278 39.1296 12.4606 40.4381L11.4031 38.5986H9.82446V57.6191H12.9969V44.6529C13.1805 43.5972 13.7339 42.6469 14.5523 41.9827C15.3707 41.3186 16.3973 40.9864 17.4378 41.0487C18.4784 41.1111 19.4607 41.5636 20.1987 42.321C20.9367 43.0783 21.379 44.0875 21.4424 45.158V57.6191H24.6003V45.158C24.6644 44.0463 25.1389 43.0017 25.9265 42.2379C26.7142 41.4741 27.7556 41.0487 28.8379 41.0487C29.9203 41.0487 30.9616 41.4741 31.7493 42.2379C32.537 43.0017 33.0114 44.0463 33.0755 45.158V57.6191H36.2335C36.2335 57.6191 36.2335 50.1715 36.2335 45.0148C36.2335 44.4146 35.9502 43.3343 35.9502 43.3343C35.4711 41.8731 34.5511 40.6077 33.3239 39.7226C32.0967 38.8376 30.6267 38.3793 29.1285 38.4145Z" fill="black"/>
<path d="M131.749 38.4126C129.795 38.4381 127.914 39.2323 126.449 40.6504L125.344 38.5967H123.861V57.6192H126.826V44.6823C127.034 43.6393 127.566 42.7078 128.331 42.0478C129.097 41.3878 130.048 41.0398 131.022 41.0643C131.553 41.003 132.089 41.0621 132.598 41.238C133.108 41.4139 133.578 41.7028 133.981 42.0867C134.384 42.4707 134.71 42.9416 134.94 43.4698C135.169 43.998 135.297 44.5721 135.315 45.1568V57.6192H138.266V45.2182C138.266 44.5845 138.205 43.9526 138.084 43.3329C137.455 39.93 134.882 38.4126 131.749 38.4126Z" fill="black"/>
<path d="M65.1845 40.4447L64.1618 38.6059H62.6348V57.6192H65.6888V44.6579C65.8421 43.6381 66.3387 42.7118 67.086 42.0523C67.8333 41.3928 68.7804 41.0445 69.7511 41.0723C70.747 41.0029 71.7421 41.2201 72.632 41.7007L73.4384 39.0959C72.3701 38.5928 71.2062 38.362 70.0391 38.4219C68.2384 38.417 66.503 39.1404 65.1845 40.4447Z" fill="black"/>
<path d="M157.383 40.2631C155.862 38.9962 153.909 38.338 151.914 38.4193C146.187 38.4193 143.073 41.8544 143.073 47.6992C143.073 53.544 146.733 56.9646 151.914 56.9646C153.656 56.9092 155.339 56.3279 156.73 55.2995V57.6341C156.714 58.2292 156.577 58.8156 156.327 59.3581C156.077 59.9006 155.718 60.3883 155.272 60.793C154.826 61.1977 154.302 61.5105 153.73 61.7138C153.159 61.9172 152.551 62.0067 151.944 61.9767C150.215 61.9274 148.533 61.4129 147.083 60.4895L145.275 62.6462C145.275 62.6462 146.642 64.8175 152.278 64.8175C153.285 64.8507 154.288 64.6806 155.225 64.3187C156.162 63.9567 157.013 63.4103 157.725 62.7131C158.437 62.0158 158.995 61.183 159.365 60.2658C159.735 59.3486 159.908 58.3669 159.874 57.3814V38.7911H158.355L157.383 40.2631ZM156.73 52.1609C155.314 53.465 153.433 54.175 151.489 54.139C148.344 54.139 146.354 52.3695 146.354 47.7442C146.354 43.119 148.344 41.3342 151.489 41.3342C153.433 41.2982 155.314 42.0083 156.73 43.3123V52.1609Z" fill="black"/>
<path d="M179.076 47.9777C179.131 48.6552 179.416 49.2842 179.871 49.737C180.326 50.1898 180.919 50.4325 181.529 50.4167C182.139 50.4008 182.72 50.1278 183.156 49.6519C183.592 49.1759 183.85 48.533 183.877 47.8533C183.877 46.3728 181.247 37.2129 181.247 37.2129C181.247 37.2129 179.051 46.4971 179.076 47.9777Z" fill="black"/>
<path d="M166.665 48.2967C166.923 48.5781 167.233 48.8045 167.575 48.9623C167.918 49.12 168.288 49.2063 168.663 49.2162C169.039 49.2262 169.412 49.1591 169.762 49.0198C170.112 48.8804 170.433 48.6717 170.705 48.4043C171.859 47.2875 179.081 36.0127 179.081 36.0127C179.081 36.0127 167.923 42.9887 166.768 44.1054C166.217 44.6475 165.897 45.3932 165.878 46.179C165.858 46.9649 166.141 47.7263 166.665 48.2967Z" fill="black"/>
<path d="M160.086 31.2106C159.365 31.264 158.694 31.5451 158.21 31.9983C157.725 32.4514 157.463 33.0423 157.476 33.6517C157.489 34.261 157.777 34.8439 158.28 35.282C158.784 35.7201 159.466 35.9808 160.189 36.0121C161.752 36.0121 177.883 33.605 177.883 33.605C177.883 33.605 161.664 31.1858 160.086 31.2106Z" fill="black"/>
<path d="M159.702 20.8673C160.974 21.8327 177.882 31.2108 177.882 31.2108C177.882 31.2108 164.294 17.0358 163.036 16.0704C162.428 15.6644 161.694 15.5167 160.985 15.6574C160.276 15.7981 159.644 16.2172 159.219 16.8284C158.794 17.4396 158.608 18.197 158.697 18.9474C158.787 19.6977 159.146 20.3847 159.702 20.8673Z" fill="black"/>
<path d="M180.279 28.8092C180.279 28.8092 175.963 7.16376 175.445 5.66384C175.332 5.29472 175.14 4.95082 174.881 4.65287C174.622 4.35493 174.302 4.10895 173.939 3.92983C173.577 3.75071 173.179 3.64196 172.771 3.61031C172.362 3.57866 171.951 3.62442 171.562 3.7453C171.173 3.86618 170.813 4.05989 170.506 4.31397C170.198 4.56805 169.949 4.87777 169.772 5.22442C169.596 5.57107 169.496 5.9471 169.478 6.33088C169.46 6.71467 169.526 7.0979 169.67 7.45746C170.204 8.94266 180.279 28.8092 180.279 28.8092Z" fill="black"/>
<path d="M189.99 0.0873409C189.605 -0.00514028 189.205 -0.0242973 188.812 0.0304362C188.42 0.0851697 188.042 0.212954 187.702 0.40644C187.362 0.599925 187.066 0.854682 186.831 1.15701C186.597 1.45933 186.428 1.80319 186.334 2.16761C185.928 3.64281 182.679 28.8098 182.679 28.8098C182.679 28.8098 191.787 5.07329 192.193 3.53908C192.289 3.17583 192.308 2.79854 192.249 2.42836C192.19 2.05818 192.054 1.70237 191.85 1.38174C191.645 1.06111 191.375 0.782014 191.056 0.559866C190.737 0.337718 190.375 0.177108 189.99 0.0873409Z" fill="black"/>
<path d="M207.189 9.38352C207.434 9.11077 207.622 8.79369 207.741 8.45024C207.86 8.10679 207.909 7.74361 207.885 7.38175C207.86 7.01989 207.763 6.66632 207.598 6.34114C207.434 6.01595 207.206 5.72563 206.926 5.48662C206.647 5.24762 206.322 5.06428 205.97 4.94785C205.619 4.83141 205.247 4.78389 204.876 4.80775C204.505 4.83161 204.143 4.92672 203.81 5.08725C203.477 5.24777 203.18 5.47107 202.935 5.74381C201.911 6.88577 185.083 30.0104 185.083 30.0104C185.083 30.0104 206.151 10.5255 207.189 9.38352Z" fill="black"/>
<path d="M220.867 16.2053C220.72 15.8439 220.508 15.5169 220.243 15.2433C219.978 14.9697 219.665 14.755 219.322 14.6113C218.978 14.4676 218.612 14.3978 218.243 14.4059C217.874 14.4141 217.511 14.5 217.174 14.6589C215.725 15.3238 186.282 32.4114 186.282 32.4114C186.282 32.4114 218.014 20.7981 219.418 20.1332C220.096 19.8142 220.628 19.2226 220.899 18.4871C221.17 17.7516 221.159 16.9316 220.867 16.2053Z" fill="black"/>
<path d="M83.0545 38.4126C76.3115 38.4126 74.6443 43.6941 74.6443 48.0155C74.6443 52.3519 76.3115 57.6192 83.0545 57.6192C89.7976 57.6192 91.45 52.3519 91.45 48.0155C91.45 43.6791 89.7976 38.4126 83.0545 38.4126ZM83.0545 55.1127C79.1887 55.1127 77.7574 52.0368 77.7574 48.0155C77.7574 43.9942 79.233 40.9337 83.0545 40.9337C86.9056 40.9337 88.3369 43.9342 88.3369 48.0155C88.3369 52.0968 86.9056 55.1127 83.0545 55.1127Z" fill="black"/>
<path d="M50.037 38.4245C48.0737 38.3087 46.1473 39.044 44.6711 40.4717L43.6852 38.6052H42.2344V48.0561V64.8216H45.1226V56.063C46.5437 57.2061 48.2781 57.7798 50.037 57.6884C56.2929 57.6884 57.8397 52.4054 57.8397 48.0561C57.8397 43.7067 56.2929 38.4245 50.037 38.4245ZM50.037 55.1745C49.0879 55.1868 48.1491 54.9557 47.2959 54.4985C46.4427 54.0412 45.6984 53.3704 45.1226 52.5409V43.5867C45.6969 42.7554 46.441 42.0836 47.2946 41.6262C48.1481 41.1687 49.0875 40.9384 50.037 40.9531C53.6099 40.9531 54.9378 43.9626 54.9378 48.0561C54.9378 52.1496 53.6099 55.1745 50.037 55.1745Z" fill="black"/>
</svg>
