<svg width="133" height="57" viewBox="0 0 133 57" fill="none" xmlns="http://www.w3.org/2000/svg">
<g filter="url(#filter0_d_38_718)">
<path d="M13.0408 0.678711H4V9.76156H13.0408V0.678711Z" fill="black"/>
<path d="M12.817 48.0324V15.3051H4.25876V48.0486H12.817V48.0324ZM69.7484 48.3557V40.3395C68.4936 40.3395 67.4318 40.2748 66.6597 40.1456C65.7588 40.0163 65.0832 39.693 64.6327 39.2405C64.1823 38.788 63.8927 38.1415 63.7319 37.3011C63.6032 36.493 63.5388 35.4263 63.5388 34.1334V22.6748H69.7484V15.3051H63.5388V2.52122H54.9484V34.1981C54.9484 36.8809 55.1737 39.1435 55.6241 40.9536C56.0745 42.7314 56.8467 44.186 57.9084 45.285C58.9702 46.384 60.3858 47.1597 62.091 47.6446C63.8284 48.1294 66.0162 48.3557 68.6223 48.3557H69.7484ZM118.958 48.0324V0H110.368V48.0324H118.958ZM46.6637 18.5051C44.2829 15.9192 40.9368 14.6263 36.6899 14.6263C34.6307 14.6263 32.7647 15.0465 31.0595 15.8869C29.3864 16.7273 27.9386 17.891 26.8125 19.3778L26.3299 19.992V19.4425V15.3051H17.8522V48.0486H26.3782V30.594V31.79C26.3782 31.596 26.3782 31.4021 26.3782 31.2082C26.4747 28.1374 27.2147 25.8748 28.6303 24.4203C30.1425 22.8687 31.9764 22.093 34.0677 22.093C36.5451 22.093 38.4433 22.8687 39.6981 24.3556C40.9207 25.8425 41.5642 27.9435 41.5642 30.6263V30.691V48.0001H50.2189V29.4304C50.2672 24.7758 49.0446 21.091 46.6637 18.5051ZM105.912 31.596C105.912 29.2364 105.493 27.0384 104.689 24.9698C103.853 22.9334 102.694 21.1233 101.246 19.5718C99.7664 18.0202 97.9969 16.8243 95.9378 15.9516C93.8786 15.0788 91.5943 14.6586 89.1169 14.6586C86.7682 14.6586 84.5483 15.1111 82.4891 15.9839C80.43 16.8889 78.6283 18.0849 77.1161 19.6041C75.604 21.1233 74.3814 22.9334 73.5127 25.0021C72.6118 27.0708 72.1936 29.3011 72.1936 31.6607C72.1936 34.0203 72.6118 36.2506 73.4483 38.3193C74.2849 40.388 75.4753 42.1981 76.9553 43.7173C78.4353 45.2365 80.2692 46.4648 82.3926 47.3375C84.5161 48.2425 86.8648 48.6951 89.3743 48.6951C96.6456 48.6951 101.166 45.3658 103.869 42.2627L97.6912 37.5435C96.4043 39.095 93.3156 41.1961 89.4548 41.1961C87.0417 41.1961 85.047 40.6466 83.5348 39.5152C82.0226 38.4163 80.9931 36.8647 80.4461 34.9577L80.3496 34.6668H105.912V31.596ZM80.3818 28.59C80.3818 26.198 83.1165 22.0283 89.0043 21.996C94.8921 21.996 97.6591 26.1657 97.6591 28.5576L80.3818 28.59Z" fill="black"/>
<path d="M128.743 43.7695C128.582 43.3816 128.357 43.0584 128.067 42.7675C127.777 42.4765 127.456 42.2503 127.07 42.0887C126.683 41.927 126.265 41.8301 125.847 41.8301C125.397 41.8301 125.01 41.927 124.624 42.0887C124.238 42.2503 123.917 42.4765 123.627 42.7675C123.337 43.0584 123.112 43.3816 122.951 43.7695C122.79 44.1574 122.694 44.5776 122.694 44.9978C122.694 45.4503 122.79 45.8382 122.951 46.226C123.112 46.6139 123.337 46.9372 123.627 47.2281C123.917 47.519 124.238 47.7452 124.624 47.9069C125.01 48.0685 125.429 48.1654 125.847 48.1654C126.297 48.1654 126.683 48.0685 127.07 47.9069C127.456 47.7452 127.777 47.519 128.067 47.2281C128.357 46.9372 128.582 46.6139 128.743 46.226C128.903 45.8382 129 45.418 129 44.9978C129 44.5776 128.903 44.1574 128.743 43.7695ZM128.228 46.0321C128.099 46.3553 127.906 46.6462 127.681 46.8725C127.456 47.0988 127.166 47.2927 126.844 47.422C126.523 47.5513 126.201 47.616 125.815 47.616C125.461 47.616 125.107 47.5513 124.785 47.422C124.463 47.2927 124.174 47.0988 123.949 46.8725C123.723 46.6462 123.53 46.3553 123.402 46.0321C123.273 45.7089 123.209 45.3856 123.209 44.9978C123.209 44.6422 123.273 44.2866 123.402 43.9634C123.53 43.6402 123.723 43.3493 123.949 43.123C124.174 42.8967 124.463 42.7028 124.785 42.5735C125.107 42.4442 125.429 42.3796 125.815 42.3796C126.169 42.3796 126.523 42.4442 126.844 42.5735C127.166 42.7028 127.456 42.8967 127.681 43.123C127.906 43.3493 128.099 43.6402 128.228 43.9634C128.357 44.2866 128.421 44.6099 128.421 44.9978C128.453 45.3856 128.357 45.7089 128.228 46.0321ZM126.426 45.2563C126.683 45.224 126.877 45.1271 127.037 44.9654C127.198 44.8038 127.295 44.5776 127.295 44.2543C127.295 43.8988 127.198 43.6402 126.973 43.4462C126.78 43.2523 126.426 43.1553 126.008 43.1553H124.592V46.8079H125.268V45.321H125.75L126.651 46.8079H127.359L126.426 45.2563ZM126.072 44.7392C125.976 44.7392 125.879 44.7392 125.75 44.7392H125.268V43.7048H125.75C125.847 43.7048 125.943 43.7048 126.072 43.7048C126.169 43.7048 126.265 43.7371 126.362 43.7695C126.458 43.8018 126.523 43.8664 126.555 43.9311C126.587 43.9957 126.619 44.0927 126.619 44.222C126.619 44.3513 126.587 44.4483 126.555 44.5129C126.49 44.5776 126.426 44.6422 126.362 44.6745C126.265 44.7069 126.169 44.7392 126.072 44.7392Z" fill="black"/>
</g>
<defs>
<filter id="filter0_d_38_718" x="0" y="0" width="133" height="56.6953" filterUnits="userSpaceOnUse" color-interpolation-filters="sRGB">
<feFlood flood-opacity="0" result="BackgroundImageFix"/>
<feColorMatrix in="SourceAlpha" type="matrix" values="0 0 0 0 0 0 0 0 0 0 0 0 0 0 0 0 0 0 127 0" result="hardAlpha"/>
<feOffset dy="4"/>
<feGaussianBlur stdDeviation="2"/>
<feComposite in2="hardAlpha" operator="out"/>
<feColorMatrix type="matrix" values="0 0 0 0 0 0 0 0 0 0 0 0 0 0 0 0 0 0 0.25 0"/>
<feBlend mode="normal" in2="BackgroundImageFix" result="effect1_dropShadow_38_718"/>
<feBlend mode="normal" in="SourceGraphic" in2="effect1_dropShadow_38_718" result="shape"/>
</filter>
</defs>
</svg>
