<svg width="235" height="56" viewBox="0 0 235 56" fill="none" xmlns="http://www.w3.org/2000/svg">
<path d="M210.746 21.974C210.746 20.1653 211.806 19.0874 213.581 19.0874H216.658C218.428 19.0874 219.49 20.1653 219.49 21.974V22.8431C219.49 24.6558 218.43 25.7357 216.658 25.7357H213.581C211.806 25.7357 210.746 24.6558 210.746 22.8431V21.974Z" fill="black"/>
<path d="M93.9424 43.6285C93.9424 47.9102 95.8635 49.6646 98.6356 49.6646C101.113 49.6646 103.435 47.9102 105.258 46.0554V29.1957C105.258 28.3185 105.912 27.646 106.775 27.646H112.29C113.143 27.646 113.795 28.3205 113.795 29.1957V53.6853C113.795 54.5605 113.143 55.235 112.29 55.235H106.775C105.912 55.235 105.258 54.5605 105.258 53.6853V52.0915C102.939 54.0948 100.406 55.7429 96.6182 55.7429C90.0502 55.7429 85.4012 52.1899 85.4012 43.6265V29.1937C85.4012 28.3165 86.0536 27.644 86.9147 27.644H92.4209C93.28 27.644 93.9424 28.3185 93.9424 29.1937V43.6285Z" fill="black"/>
<path d="M125.798 43.4525C126.152 47.5756 127.964 49.3842 132.114 49.3842C134.235 49.3842 136.106 48.768 136.965 47.684C137.62 46.859 138.525 46.3431 139.796 46.3431H143.481C144.342 46.3431 144.999 47.0055 144.999 47.8888C144.999 53.2524 139.593 55.1032 131.507 55.1032C122.506 55.1032 117.105 50.1551 117.105 40.8289C117.105 31.5028 122.567 26.4824 131.507 26.4824C140.448 26.4824 145.904 31.3803 145.904 40.4576V41.9049C145.904 42.7821 145.256 43.4505 144.391 43.4505H125.798V43.4525ZM125.748 38.1451H137.218C137.066 34.281 135.247 32.2114 131.507 32.2114C127.768 32.2114 125.953 34.281 125.748 38.1451Z" fill="black"/>
<path d="M163.146 55.1032C154.858 55.1032 149.594 53.2524 149.594 47.8888C149.594 47.0055 150.259 46.3431 151.11 46.3431H154.805C156.066 46.3431 156.969 46.861 157.636 47.684C158.491 48.766 160.366 49.3842 162.532 49.3842C166.781 49.3842 168.198 48.4046 168.198 46.9513C168.198 42.6757 149.55 45.0504 149.55 34.6322C149.55 28.8089 155.255 26.4824 162.383 26.4824C170.669 26.4824 175.925 28.3392 175.925 33.7069C175.925 34.5801 175.266 35.2545 174.409 35.2545H170.716C169.461 35.2545 168.544 34.7406 167.891 33.9136C167.028 32.8256 165.161 32.2094 162.991 32.2094C159.501 32.2094 158.089 33.1849 158.089 34.6322C158.089 38.9199 176.736 36.4429 176.736 46.9513C176.738 52.7867 171.029 55.1032 163.146 55.1032Z" fill="black"/>
<path d="M188.958 38.442C191.893 38.442 193.806 37.2075 194.822 35.0356L197.197 29.8827C197.849 28.4414 199.266 27.514 200.736 27.514H205.383C206.695 27.514 206.852 28.5458 206.246 29.8827L203.058 36.7418C201.994 39.0081 199.971 40.8187 197.803 41.2804C199.876 41.8967 201.545 43.346 203.058 45.821L207.255 52.7263C208.06 54.0732 207.709 55.103 206.392 55.103H201.741C200.119 55.103 198.764 54.0752 197.953 52.7263L194.82 47.5132C193.447 45.2509 191.241 44.163 188.956 44.163V53.5513C188.956 54.4265 188.294 55.101 187.439 55.101H181.933C181.078 55.101 180.425 54.4265 180.425 53.5513V21.221C180.425 20.3418 181.078 19.6733 181.933 19.6733H187.439C188.294 19.6733 188.956 20.3418 188.956 21.221V38.442H188.958Z" fill="black"/>
<path d="M63.5431 38.442C66.4859 38.442 68.3949 37.2075 69.4066 35.0356L71.7833 29.8827C72.4377 28.4414 73.8549 27.514 75.3222 27.514H79.9652C81.278 27.514 81.4386 28.5458 80.8244 29.8827L77.6367 36.7418C76.5828 39.0081 74.5594 40.8187 72.3835 41.2804C74.4671 41.8967 76.1292 43.346 77.6367 45.821L81.8401 52.7263C82.645 54.0732 82.2978 55.103 80.9769 55.103H76.3339C74.712 55.103 73.351 54.0752 72.5461 52.7263L69.4066 47.5132C68.0476 45.2509 65.8235 44.163 63.5431 44.163V53.5513C63.5431 54.4265 62.8948 55.101 62.0356 55.101H56.5214C55.6583 55.101 55.0039 54.4265 55.0039 53.5513V21.221C55.0039 20.3418 55.6583 19.6733 56.5214 19.6733H62.0356C62.8948 19.6733 63.5431 20.3418 63.5431 21.221V38.442Z" fill="black"/>
<path d="M212.356 55.1036C211.503 55.1036 210.843 54.4291 210.843 53.5539V29.6986C210.843 28.8234 211.505 28.1489 212.356 28.1489H217.867C218.726 28.1489 219.378 28.8234 219.378 29.6986V53.5539C219.378 54.4291 218.726 55.1036 217.867 55.1036H212.356Z" fill="black"/>
<path d="M35.0301 32.8695C35.0301 33.6303 33.5828 46.6199 32.8963 53.0735C32.6976 54.9744 30.7906 55.1049 30.2787 55.1049H8.23207C5.93566 55.1049 5.11867 54.0912 4.89586 52.8687C4.66301 51.5901 3.44655 39.4115 2.83833 35.0836L2.62555 32.9298C2.62555 31.8578 3.37429 30.9385 4.41209 30.9385H33.1312C34.175 30.9385 35.0301 31.7956 35.0301 32.8695Z" fill="black"/>
<path d="M20.322 19.3722C20.326 16.3049 19.0674 14.8897 16.8533 13.8198L11.6041 11.3207C10.1368 10.6302 9.18929 9.14673 9.1913 7.6071L9.20736 2.7433C9.2174 1.36827 10.2632 1.20768 11.6362 1.84602L18.6218 5.20029C20.9383 6.32039 22.771 8.44818 23.2347 10.7205C23.877 8.56059 25.3565 6.81018 27.8857 5.23442L34.9536 0.868438C36.3206 0.0233454 37.3684 0.394704 37.3684 1.77375L37.3604 6.63755C37.3524 8.32773 36.2925 9.75496 34.9255 10.592L29.602 13.862C27.2775 15.2832 26.1654 17.0095 26.1574 19.3842L35.7324 19.4203C36.6357 19.4203 37.3122 20.1109 37.3122 21.0122L37.3022 26.7793C37.2861 27.6786 36.71 28.2727 35.8067 28.2687L2.48877 28.2627C1.59952 28.2587 0.915014 27.5641 0.923044 26.6648L0.93308 20.8997C0.93308 19.9984 1.62361 19.3119 2.51888 19.3139L20.322 19.3722Z" fill="black"/>
<path d="M234.11 51.2101C234.11 53.8047 232.227 55.8875 229.793 55.8875C227.358 55.8875 225.475 53.8026 225.475 51.2101C225.475 48.6175 227.358 46.5327 229.793 46.5327C232.227 46.5327 234.11 48.6175 234.11 51.2101ZM233.313 51.2101C233.313 49.0776 231.808 47.3555 229.793 47.3555C227.778 47.3555 226.272 49.0755 226.272 51.2101C226.272 53.3446 227.778 55.0647 229.793 55.0647C231.808 55.0647 233.313 53.3446 233.313 51.2101ZM230.191 48.86C231.011 48.86 231.653 49.3698 231.653 50.2651C231.653 50.9676 231.278 51.4526 230.723 51.6474L231.787 53.5622H230.812L229.838 51.7199H229.085V53.5622H228.245V48.86H230.191ZM229.084 51.0402H230.014C230.456 51.0402 230.79 50.7977 230.79 50.3127C230.79 49.8278 230.479 49.6102 230.014 49.6102H229.084V51.0402Z" fill="black"/>
</svg>
