<svg width="30" height="30" viewBox="0 0 30 30" fill="none" xmlns="http://www.w3.org/2000/svg">
<g clip-path="url(#clip0_27_705)">
<path d="M26.6598 0H2.98845C1.33816 0 0 1.34333 0 2.99879V27.0012C0 28.6584 1.33816 30 2.98845 30H26.6598C28.3118 30 29.6482 28.6567 29.6482 27.0012V2.99879C29.6482 1.34161 28.3101 0 26.6598 0ZM9.51371 23.7369H5.52509V10.9036H9.51371V23.7369ZM7.49267 9.32919C6.23383 9.32919 5.4199 8.43594 5.4199 7.33402C5.4199 6.23211 6.2597 5.33885 7.54613 5.33885C8.83256 5.33885 9.6189 6.20452 9.64477 7.33402C9.64477 8.43594 8.83083 9.32919 7.49267 9.32919ZM24.0783 23.7369H20.0897V16.6253C20.0897 14.9715 19.512 13.8438 18.0686 13.8438C16.9667 13.8438 16.3114 14.6042 16.0217 15.3389C15.9165 15.601 15.8907 15.9683 15.8907 16.3356V23.7351H11.9021V14.9957C11.9021 13.3954 11.8503 12.0573 11.7969 10.9019H15.2613L15.4458 12.6867H15.5251C16.0493 11.8469 17.3357 10.6139 19.4878 10.6139C22.1124 10.6139 24.08 12.3728 24.08 16.1511V23.7351L24.0783 23.7369Z" fill="white"/>
</g>
<defs>
<clipPath id="clip0_27_705">
<rect width="29.6482" height="30" fill="white"/>
</clipPath>
</defs>
</svg>
