<svg width="117" height="50" viewBox="0 0 117 50" fill="none" xmlns="http://www.w3.org/2000/svg">
<g clip-path="url(#clip0_27_690)">
<path d="M43.7868 11.1332V11.1192L39.1677 11.8234L34.4961 45.1008L39.1677 44.3407L39.9026 39.0571L44.3833 38.3716L45.1229 43.478L49.7897 42.7645L45.1229 10.9141L43.7868 11.1332ZM40.5467 34.4405L42.1453 22.9501L43.7439 33.9508L40.5467 34.4405Z" fill="white"/>
<path d="M76.8482 6.125L72.7301 6.75455L68.1062 7.45871L64.5273 8.00431V12.5184L68.1062 11.9728V39.9713L72.7301 39.2671V11.2686L76.8482 10.6391V6.125Z" fill="white"/>
<path d="M117.001 4.51408V0L109.304 1.17515L104.68 1.87931V6.3934V29.8778V34.3919L109.304 33.6877L117.001 32.5126V27.9985L109.304 29.1737V19.6885L114.004 18.9703V14.4563L109.304 15.1744V5.68924L117.001 4.51408Z" fill="white"/>
<path d="M83.2282 5.11761V5.10362L78.6091 5.80778L73.9375 39.0852L78.6091 38.325L79.344 33.0415L83.8247 32.356L84.5643 37.4623L89.2312 36.7488L84.5643 4.89844L83.2282 5.11761ZM79.9882 28.4248L81.5867 16.9344L83.1853 27.9352L79.9882 28.4248Z" fill="white"/>
<path d="M97.7118 2.94642L94.8105 3.38943L90.8451 3.99566L90.1914 4.09359V36.6062L94.8105 35.902V26.5428L97.7118 26.0997C100.651 25.6521 103.032 22.9613 103.032 20.0887V7.33459C103.032 4.46199 100.651 2.49874 97.7118 2.94642ZM98.4132 19.7203C98.4132 20.6903 97.6068 21.5997 96.619 21.7489L94.8153 22.024V7.90351L96.619 7.62838C97.6116 7.47915 98.4132 8.14134 98.4132 9.11131V19.7203Z" fill="white"/>
<path d="M63.798 26.0653V13.3112C63.798 10.4386 61.4168 8.4753 58.4774 8.92298L55.5761 9.36599L51.6108 9.97222L50.957 10.0702V42.5827L55.5761 41.8786V32.6173L58.506 41.4356L63.1729 40.8153L59.8517 31.6846C62.1231 30.7473 63.798 28.4716 63.798 26.0653ZM55.5761 13.8801L57.3799 13.6049C58.3724 13.4557 59.1741 14.1179 59.1741 15.0879V25.6969C59.1741 26.6669 58.3677 27.5762 57.3799 27.7254L55.5761 28.0006V13.8801Z" fill="white"/>
<path d="M29.1164 13.3995L27.8805 13.5907L24.4973 29.2547L21.1141 14.6213L19.7684 14.8264L16.3566 15.3441L15.1445 15.5306V48.0432L19.7684 47.339V28.5179L22.1209 37.6114L26.8736 36.8839L29.1164 27.5386V45.9121L33.7355 45.2079V12.6953L32.6332 12.8632L29.1164 13.3995Z" fill="white"/>
<path d="M10.6754 32.2621C9.06253 30.3548 6.87227 28.9885 5.96086 26.6848C5.76521 26.1951 5.665 25.491 5.665 24.7682C5.665 21.9888 6.75298 21.6577 7.31128 21.5738C8.58058 21.3779 9.08639 22.2127 9.11025 23.9754L9.10071 25.4677V28.9372L13.7341 28.233V24.7635C13.7341 22.8609 13.6721 20.6645 12.775 18.8924C12.2644 17.7872 11.0762 16.682 9.73536 16.3602C7.54987 15.8426 5.03035 16.4395 3.093 18.1323C1.61374 19.4333 0.83116 21.2101 0.468503 22.8842C-0.35702 26.6475 0.654604 30.1729 3.07868 32.6305C4.61043 34.2813 6.23762 35.3959 7.51647 37.1306C8.58058 38.5669 8.80008 40.3203 8.80008 42.1903C8.80008 44.5266 7.34945 45.0722 6.68617 45.2075C6.31397 45.2681 4.62952 45.4826 4.62952 43.1183V36.8088L-0.00390625 37.513V40.9825C0.0438118 44.9043 0.568711 50.062 5.57434 49.9873C11.143 49.7495 13.7055 45.7997 13.7914 40.7214C13.9393 37.471 12.6939 34.4305 10.6706 32.2528L10.6754 32.2621Z" fill="white"/>
</g>
<defs>
<clipPath id="clip0_27_690">
<rect width="117" height="50" fill="white"/>
</clipPath>
</defs>
</svg>
