<svg width="30" height="30" viewBox="0 0 30 30" fill="none" xmlns="http://www.w3.org/2000/svg">
<g clip-path="url(#clip0_27_703)">
<path d="M25.9573 0H4.04275C1.80993 0 0 1.80993 0 4.04275V25.9573C0 28.1901 1.80993 30 4.04275 30H14.8509L14.8693 19.2799H12.0842C11.7219 19.2799 11.4283 18.9872 11.4274 18.6249L11.4136 15.1693C11.4118 14.806 11.7072 14.5097 12.0705 14.5097H14.8509V11.1705C14.8509 7.29566 17.2177 5.18576 20.6742 5.18576H23.5107C23.873 5.18576 24.1675 5.48023 24.1675 5.84258V8.75608C24.1675 9.11935 23.873 9.4129 23.5107 9.4129H21.7696C19.8899 9.41381 19.5257 10.3073 19.5257 11.6182V14.5088H23.6565C24.0501 14.5088 24.3556 14.8528 24.3088 15.2426L23.8987 18.6983C23.8593 19.0294 23.5795 19.278 23.2465 19.278H19.5441L19.5257 29.9982H25.9573C28.1901 29.9982 30 28.1882 30 25.9554V4.04275C30 1.80993 28.1901 0 25.9573 0Z" fill="white"/>
</g>
<defs>
<clipPath id="clip0_27_703">
<rect width="30" height="30" fill="white"/>
</clipPath>
</defs>
</svg>
