<svg width="150" height="59" viewBox="0 0 150 59" fill="none" xmlns="http://www.w3.org/2000/svg">
<path d="M12.5649 53.2385C11.7543 53.2385 11.0867 52.9762 10.6099 52.4517C10.133 51.9272 9.89459 51.2119 9.89459 50.2821V41.2935H15.3783V36.3581H9.89459V30.9697H3.40946V36.3581H0V41.2935H3.40946V50.4013C3.40946 53.0478 4.12473 55.0267 5.57912 56.3619C7.0335 57.697 9.0601 58.3646 11.6828 58.3646C12.6603 58.3646 13.614 58.2454 14.5438 58.007C15.4737 57.7686 16.2367 57.4348 16.8804 56.9579L15.1876 52.4279C14.4723 52.9762 13.5902 53.2385 12.5411 53.2385H12.5649Z" fill="#F9F9F9"/>
<path d="M38.7148 36.5741C37.3319 35.8826 35.7583 35.525 33.994 35.525C32.0866 35.525 30.4176 35.9303 28.9394 36.7171C28.2003 37.1224 27.5327 37.5993 26.9605 38.1715V30.9473H20.5469V58.0084H26.9605V47.0409C26.9605 45.6342 27.1751 44.5136 27.6519 43.6553C28.1049 42.7969 28.7248 42.1532 29.5593 41.724C30.3699 41.2949 31.2759 41.0564 32.3012 41.0564C33.7317 41.0564 34.8285 41.4856 35.6153 42.3439C36.4021 43.2022 36.7835 44.5136 36.7835 46.3018V58.0084H43.1971V45.3242C43.1971 43.083 42.7918 41.2233 42.005 39.7928C41.1944 38.3622 40.1215 37.2893 38.7386 36.5741H38.7148Z" fill="#F9F9F9"/>
<path d="M55.4273 35.8594H49.0137V58.0089H55.4273V35.8594Z" fill="#F9F9F9"/>
<path d="M97.7685 41.557C98.6507 41.0802 99.6282 40.8418 100.701 40.8418C101.726 40.8418 102.656 41.0802 103.491 41.557C104.349 42.0339 105.064 42.7968 105.66 43.8459L110.596 41.1279C109.833 39.3397 108.569 37.9568 106.829 36.9793C105.088 36.0018 103.038 35.5249 100.701 35.5249C98.3646 35.5249 96.1949 36.0256 94.3352 37.0031C92.4755 37.9807 91.0211 39.3397 89.972 41.0325C88.923 42.7253 88.3984 44.7042 88.3984 46.9216C88.3984 49.1389 88.923 51.0701 89.972 52.8106C91.0211 54.5511 92.4755 55.8863 94.3352 56.8638C96.1949 57.8414 98.3169 58.3182 100.701 58.3182C103.085 58.3182 105.064 57.8175 106.829 56.84C108.569 55.8625 109.833 54.4796 110.596 52.7153L105.66 49.9972C105.064 51.0701 104.325 51.8331 103.491 52.3338C102.632 52.8106 101.702 53.0491 100.701 53.0491C99.6282 53.0491 98.6507 52.8106 97.7685 52.3338C96.8863 51.8569 96.1949 51.1655 95.6704 50.2356C95.1458 49.3058 94.8836 48.209 94.8836 46.9216C94.8836 45.6341 95.1458 44.5373 95.6704 43.6313C96.1949 42.7253 96.8863 42.0339 97.7685 41.557Z" fill="#F9F9F9"/>
<path d="M120.522 38.817V35.8606H114.395V58.0101H120.808V47.5433C120.808 45.4214 121.357 43.8716 122.406 42.8464C123.478 41.8212 124.909 41.3205 126.721 41.3205C126.936 41.3205 127.174 41.3205 127.412 41.3682C127.651 41.392 127.889 41.4397 128.128 41.4874V35.5029C126.053 35.5029 124.265 35.9083 122.811 36.7189C121.881 37.2434 121.118 37.9349 120.498 38.7693L120.522 38.817Z" fill="#F9F9F9"/>
<path d="M149.331 48.2567C148.854 47.4461 148.211 46.8262 147.4 46.3732C146.589 45.9202 145.731 45.5625 144.777 45.3241C143.847 45.0857 142.894 44.895 141.94 44.7519C140.986 44.6088 140.104 44.4658 139.294 44.3466C138.483 44.2035 137.863 43.9889 137.362 43.7028C136.862 43.4167 136.623 42.9876 136.623 42.4392C136.623 41.8431 136.957 41.3424 137.601 40.961C138.268 40.5795 139.341 40.3887 140.819 40.3887C141.797 40.3887 142.846 40.508 143.919 40.7702C144.992 41.0087 146.065 41.4378 147.114 42.0577L149.284 37.48C148.211 36.8839 146.899 36.4071 145.35 36.0494C143.8 35.7156 142.25 35.5249 140.724 35.5249C138.578 35.5249 136.766 35.8349 135.24 36.4309C133.738 37.027 132.57 37.8853 131.736 38.9582C130.925 40.0311 130.496 41.2948 130.496 42.6776C130.496 43.9413 130.734 44.9665 131.211 45.7771C131.688 46.5878 132.332 47.2077 133.142 47.6607C133.953 48.1137 134.835 48.4713 135.789 48.7097C136.742 48.9482 137.696 49.1389 138.65 49.282C139.604 49.425 140.486 49.5681 141.272 49.6873C142.059 49.8065 142.679 50.0211 143.18 50.2833C143.657 50.5456 143.895 50.9271 143.895 51.4516C143.895 52.0954 143.585 52.5722 142.965 52.9298C142.345 53.2875 141.296 53.4782 139.818 53.4782C138.483 53.4782 137.1 53.2875 135.717 52.8822C134.334 52.4768 133.118 51.9761 132.069 51.3801L129.971 55.9578C131.02 56.6492 132.403 57.2215 134.12 57.6745C135.86 58.1275 137.648 58.3659 139.556 58.3659C141.773 58.3659 143.681 58.0559 145.206 57.4599C146.756 56.8638 147.948 56.0293 148.759 54.9564C149.57 53.9074 149.999 52.6914 149.999 51.3562C149.999 50.0926 149.76 49.0674 149.284 48.2567H149.331Z" fill="#F9F9F9"/>
<path d="M71.3594 6.4136C75.7464 6.4136 79.2989 9.96611 79.2989 14.3531C79.2989 18.7401 75.7464 22.2926 71.3594 22.2926C66.9724 22.2926 63.4199 18.7401 63.4199 14.3531C63.4199 9.96611 66.9724 6.4136 71.3594 6.4136ZM71.3594 0C63.4199 0 56.9824 6.43744 56.9824 14.377C56.9824 22.3165 63.4199 28.7539 71.3594 28.7539C79.2989 28.7539 85.7363 22.3165 85.7363 14.377C85.7363 6.43744 79.2989 0 71.3594 0Z" fill="#565FF0"/>
<path d="M52.2145 33.3329C55.1948 33.3329 57.6029 30.9248 57.6029 27.9445C57.6029 24.9642 55.1948 22.5562 52.2145 22.5562C49.2343 22.5562 46.8262 24.9642 46.8262 27.9445C46.8262 30.9248 49.2343 33.3329 52.2145 33.3329Z" fill="#565FF0"/>
<path d="M82.8698 39.7707C82.0592 38.3402 80.9863 37.2673 79.6034 36.552C78.2206 35.8606 76.647 35.5029 74.8826 35.5029C72.9753 35.5029 71.3063 35.9083 69.8281 36.695C68.9459 37.1719 68.2068 37.768 67.563 38.5071V35.8367H61.4355V49.5223V55.4113V57.9625H67.8491V46.995C67.8491 45.5883 68.0637 44.4677 68.5167 43.6093C68.9697 42.751 69.5896 42.1073 70.4241 41.6781C71.2348 41.2489 72.1408 41.0105 73.166 41.0105C74.5965 41.0105 75.6933 41.4397 76.4801 42.298C77.2669 43.1563 77.6484 44.4677 77.6484 46.2558V57.9625H84.062V45.2783C84.062 43.0371 83.6566 41.1774 82.8698 39.7469V39.7707Z" fill="#F9F9F9"/>
</svg>
