<svg width="362" height="73" viewBox="0 0 362 73" fill="none" xmlns="http://www.w3.org/2000/svg">
<path fill-rule="evenodd" clip-rule="evenodd" d="M2.11549 13.2907C21.0583 10.4707 40.3471 10.4514 59.2899 13.2714C62.0784 32.2773 62.0594 51.6501 59.2516 70.6753C40.3089 73.4953 21.039 73.5146 2.09623 70.6946C-0.711525 51.6694 -0.692276 32.3159 2.11549 13.2907Z" fill="#8255FF"/>
<path fill-rule="evenodd" clip-rule="evenodd" d="M30.6842 19.124C24.2664 27.8315 16.597 35.5343 7.94281 41.9867C16.597 48.4392 24.2664 56.1643 30.6842 64.8494C37.0998 56.1643 44.7692 48.4392 53.4234 41.9867C44.7692 35.5343 37.0998 27.8315 30.6842 19.124Z" fill="black"/>
<path fill-rule="evenodd" clip-rule="evenodd" d="M215.139 11.1729C218.064 7.21303 221.557 3.69778 225.5 0.760239C229.436 3.69778 232.929 7.21299 235.854 11.1729C232.929 15.1328 229.439 18.6446 225.497 21.5821C221.554 18.6446 218.064 15.1328 215.139 11.1729Z" fill="#8255FF"/>
<path fill-rule="evenodd" clip-rule="evenodd" d="M170.383 0.754395C167.461 4.71937 163.969 8.22683 160.028 11.165C163.969 14.1031 167.461 17.6208 170.383 21.5756C173.305 17.6208 176.797 14.1031 180.738 11.165C176.797 8.22683 173.305 4.71937 170.383 0.754395Z" fill="#FF4B95"/>
<path fill-rule="evenodd" clip-rule="evenodd" d="M72.1685 37.7917L70.7943 27.3002H72.1689V27.299H84.386V29.9373L84.936 30.3053C85.3839 29.8964 86.0049 29.4158 86.7991 28.8636C87.5933 28.3114 88.5505 27.8103 89.6705 27.3604C90.7904 26.9105 92.0831 26.6856 93.5494 26.6856C97.0924 26.6856 99.6786 27.9126 101.308 30.3667C102.203 29.3851 103.334 28.5159 104.698 27.7593C106.062 27.0025 107.742 26.6242 109.738 26.6242C113.403 26.6242 116.254 27.6672 118.29 29.7532C120.326 31.8392 121.344 34.7637 121.344 38.5267V46.2767L122.652 56.2583H107.844V40.7968C107.844 39.488 107.671 38.5574 107.325 38.0052C106.978 37.453 106.398 37.1769 105.584 37.1769C104.81 37.1769 104.24 37.5246 103.873 38.2199C103.507 38.9153 103.323 39.7947 103.323 40.8582V56.2583H89.8231V40.7354C89.8231 39.5084 89.548 38.5983 88.9984 38.0052C88.4485 37.4121 87.5221 37.1156 86.219 37.1156L85.608 37.7291V56.2583H72.1685V37.7917ZM157.753 56.3192H144.863V53.3134L144.252 53.0065C143.601 53.9468 142.491 54.8261 140.923 55.6445C139.355 56.4628 137.411 56.8709 135.089 56.8709C132.36 56.8709 130.151 56.2278 128.461 54.9393C126.771 53.6508 125.926 51.3905 125.926 48.1594C125.926 45.1733 126.914 42.914 128.889 41.3796C130.864 39.8459 133.541 39.0789 136.922 39.0789C138.754 39.0789 140.221 39.2528 141.32 39.6004C142.42 39.9481 143.255 40.2855 143.825 40.6128L144.252 40.306C144.252 39.038 144.028 38.087 143.58 37.453C143.132 36.8191 141.711 36.2037 140.001 36.2037C138.494 36.2037 135.983 36.2779 135.983 36.2779L127.758 38.8613V28.5875C128.41 28.3829 129.449 28.1375 130.874 27.8512C132.299 27.5649 134.01 27.3093 136.005 27.0843C138.001 26.8594 140.139 26.7468 142.42 26.7468C146.248 26.7468 149.282 27.2071 151.522 28.1273C153.762 29.0476 155.36 30.3769 156.317 32.1153C157.274 33.8536 157.753 35.9295 157.753 38.3427V45.8273L159.127 56.3192H157.753ZM141.992 48.8342C142.603 48.8342 143.112 48.7319 143.519 48.5273L144.252 48.1594V46.81C144.252 46.1962 144.069 45.6641 143.703 45.2146C143.336 44.7641 142.786 44.5388 142.053 44.5388C141.402 44.5388 140.791 44.7129 140.221 45.0612C139.65 45.4083 139.365 46.0123 139.365 46.8709C139.365 48.1801 140.241 48.8342 141.992 48.8342ZM334.541 37.7291L333.167 27.2376H334.541L345.294 27.2378L346.515 28.6488L347.215 28.1273C347.684 27.7797 348.347 27.4422 349.203 27.115C350.056 26.7878 351.054 26.6242 352.197 26.6242C353.009 26.6242 353.824 26.6856 354.639 26.8082C355.455 26.931 356.084 27.0945 356.531 27.299L361.907 30.1505L357.756 41.594L349.691 36.9929L347.859 37.6065V56.2583H334.541V37.7291ZM212.487 37.7291V56.1962C212.487 59.7146 211.805 62.5778 210.441 64.7859C209.076 66.995 207.163 68.61 204.699 69.633C202.235 70.6559 199.332 71.0629 195.994 71.1663C186.185 71.4699 180.66 67.2399 180.66 67.2399L183.715 57.4238L191.97 60.6037L194.527 60.5525C196.727 60.5525 198.223 60.1129 199.018 59.2336C199.811 58.3542 200.209 57.1376 200.209 55.5825V54.4169L199.598 54.11C199.028 54.6835 198.244 55.2658 197.246 55.8589C196.248 56.452 194.588 56.7491 192.267 56.7491C190.353 56.7491 188.5 56.2681 186.708 55.3071C184.917 54.3462 183.46 52.802 182.34 50.6744C181.22 48.5479 180.66 45.787 180.66 42.3917C180.66 38.5881 181.231 35.5306 182.371 33.2197C183.511 30.9087 184.967 29.2214 186.739 28.158C188.51 27.0945 190.353 26.5628 192.267 26.5628C193.937 26.5628 195.363 26.8696 196.544 27.4832C197.725 28.0966 198.539 28.6897 198.987 29.2624V27.2378L212.487 27.2376H213.862L212.487 37.7291ZM198.07 46.687H198.529C198.671 46.687 198.824 46.6663 198.987 46.625V37.6065C198.906 37.4837 198.732 37.3611 198.468 37.2383C198.203 37.1156 197.847 37.0543 197.399 37.0543C196.584 37.0543 195.831 37.3611 195.138 37.9745C194.446 38.5881 194.1 39.8357 194.1 41.7169C194.1 43.4756 194.507 44.7336 195.322 45.4899C196.136 46.2474 197.053 46.6457 198.07 46.687ZM163.617 56.2583V27.299H177.056V56.2583H163.617ZM218.718 56.2583V27.299H232.158V56.2583H218.718ZM250.727 56.8709C247.268 56.8709 244.434 56.575 242.238 55.9818C240.037 55.3887 238.265 54.7445 236.921 54.0491V43.6802C238.634 44.7031 240.607 45.5215 242.848 46.1342C245.086 46.748 247.104 47.0549 248.895 47.0549C249.547 47.0549 249.993 46.9732 250.239 46.81C250.485 46.6457 250.608 46.4008 250.608 46.0732C250.608 45.7457 250.209 45.3876 249.416 44.9991C248.619 44.6106 247.268 44.1307 245.354 43.5572C243.846 43.0664 242.402 42.5353 241.016 41.9629C239.631 41.3905 238.511 40.6333 237.654 39.6925C236.802 38.7518 236.374 37.5042 236.374 35.9499C236.374 33.5775 236.973 31.7165 238.176 30.3667C239.375 29.0169 241.046 28.066 243.183 27.5138C245.321 26.9617 247.756 26.6856 250.485 26.6856C252.03 26.6856 253.59 26.7673 255.157 26.931C260.068 27.4437 264.045 30.3667 264.045 30.3667L261.297 38.7721L255.843 36.5417L251.766 36.4407C250.462 36.4407 249.811 36.7475 249.811 37.3611C249.811 38.0564 250.749 38.6495 252.622 39.1403C254.536 39.672 256.408 40.2446 258.244 40.8582C260.076 41.4721 261.58 42.3002 262.764 43.3428C263.944 44.3864 264.533 45.8284 264.533 47.6686C264.533 50.7767 263.311 53.0882 260.869 54.6019C258.426 56.1146 255.046 56.8709 250.727 56.8709ZM282.434 56.8709C278.849 56.8709 276.224 56.1353 274.552 54.6629C272.884 53.1904 272.05 51.0433 272.05 48.2204V36.6861H266.979V29.017L271.436 26.0106L275.773 18.4028H285.428V27.299H294.591V37.1156H285.428V46.564L294.591 46.5031V55.0307L293.488 55.3071C292.755 55.491 291.791 55.7054 290.588 55.9514C289.385 56.1962 288.075 56.4117 286.649 56.5956C285.223 56.7795 283.819 56.8709 282.434 56.8709ZM314.443 56.8709C311.308 56.8709 308.467 56.4117 305.921 55.491C303.378 54.5704 301.359 53.0163 299.874 50.8278C298.388 48.6394 297.644 45.6238 297.644 41.779C297.644 39.0789 298.102 36.768 299.018 34.8456C299.934 32.9231 301.166 31.3586 302.715 30.152C304.26 28.9453 305.991 28.066 307.905 27.5138C309.823 26.9617 311.796 26.6856 313.832 26.6856C316.398 26.6856 318.546 26.8491 320.277 27.1764C322.009 27.5036 331.492 29.216 328.737 42.9445C328.726 43.0054 311.021 42.9445 311.021 42.9445C311.185 44.0893 311.777 45.0612 312.794 45.8589C313.81 46.6566 315.582 47.0549 318.107 47.0549C320.512 47.0549 322.508 46.7893 324.094 46.2572C325.684 45.7261 326.823 45.3169 327.515 45.0307V54.479C326.7 54.9284 325.579 55.3376 324.157 55.7054C322.731 56.0733 321.175 56.3606 319.484 56.5641C317.794 56.7697 316.111 56.8709 314.443 56.8709ZM310.839 38.9562L317.068 37.7905L316.521 35.8272C315.951 35.4999 315.258 35.3364 314.443 35.3364C313.099 35.3364 312.153 35.7045 311.602 36.4407C311.051 37.1769 310.798 38.0154 310.839 38.9562Z" fill="#F9F9F9"/>
</svg>
