<svg width="201" height="44" viewBox="0 0 201 44" fill="none" xmlns="http://www.w3.org/2000/svg">
<path d="M0 0.3125H20.3734V20.6643H0.0110713V0.3125H0Z" fill="black"/>
<path d="M22.4384 0.3125H42.7896V20.6643H22.4384C22.4384 13.8879 22.4384 7.10365 22.4384 0.3125Z" fill="black"/>
<path d="M183.583 8.06608C184.54 7.49894 185.606 7.13872 186.711 7.00917C187.816 6.87962 188.936 6.98341 189.998 7.31377C189.998 8.5636 189.998 9.82467 189.998 11.0856C189.505 10.8229 188.964 10.6611 188.408 10.6098C187.851 10.5585 187.29 10.6188 186.757 10.7869C186.356 10.9745 186.01 11.262 185.752 11.6224C185.495 11.9828 185.334 12.4036 185.287 12.844C185.195 13.9476 185.166 15.0553 185.198 16.1622H191.646C191.646 14.7685 191.646 13.3752 191.646 11.9815C193.106 11.5612 194.555 11.0968 196.004 10.6654C196.004 12.5014 196.004 14.3375 196.004 16.1957C197.453 16.1957 198.902 16.1957 200.362 16.1957V19.7682C198.902 19.7129 197.442 19.7682 195.938 19.7682C195.938 21.8254 195.938 23.8822 195.938 25.9395C195.938 27.0455 195.938 28.2183 196.015 29.3575C196.025 29.7048 196.115 30.0446 196.281 30.3502C196.446 30.6557 196.681 30.9181 196.966 31.116C197.498 31.36 198.086 31.4591 198.669 31.4028C199.251 31.3464 199.809 31.1366 200.284 30.7952V34.412C199.01 34.9327 197.63 35.1416 196.258 35.0206C194.974 34.9429 193.772 34.3578 192.918 33.3945C192.033 32.1818 191.592 30.7018 191.668 29.2025C191.668 26.0392 191.668 22.8869 191.668 19.7347H185.176V34.5006H180.752V19.6461C179.734 19.6461 178.716 19.6461 177.688 19.6461C177.688 18.4737 177.688 17.2903 177.688 16.1179C178.705 16.1179 179.723 16.1179 180.741 16.1179C180.644 14.5442 180.748 12.9646 181.05 11.4172C181.44 10.0266 182.32 8.82414 183.528 8.03259L183.583 8.06608Z" fill="black"/>
<path d="M89.3146 8.32061C89.76 8.24862 90.2162 8.28974 90.6415 8.44051C91.0668 8.59128 91.4472 8.84661 91.7478 9.1831C92.0873 9.57104 92.2992 10.0542 92.3546 10.5667C92.41 11.0792 92.3063 11.5966 92.0575 12.0481C91.7545 12.5293 91.3105 12.9053 90.786 13.125C90.2615 13.3447 89.6819 13.3973 89.1264 13.2757C88.5532 13.1678 88.0356 12.8634 87.6622 12.4154C87.2889 11.9673 87.0831 11.4033 87.0803 10.82C87.088 10.2074 87.3156 9.61818 87.7216 9.15933C88.1277 8.70049 88.6852 8.40279 89.2924 8.32061H89.3146Z" fill="black"/>
<path d="M55.5701 8.86118H61.9741C63.9724 13.9269 65.9706 18.9889 67.9688 24.0472C68.4887 25.3081 68.9642 26.5913 69.4951 27.8412C72.0611 21.5256 74.6603 15.2099 77.2374 8.88332C79.2947 8.88332 81.3409 8.88332 83.3982 8.88332V34.4996C81.9161 34.4996 80.434 34.4996 78.974 34.4996C78.974 28.1841 78.974 21.8687 78.974 15.5531C78.974 15.2655 78.974 14.989 78.974 14.7014C78.8966 14.8342 78.8192 14.967 78.7528 15.1108C76.1979 21.5812 73.6098 28.0184 71.0769 34.4888C70.0262 34.4888 68.9753 34.4888 67.9135 34.4888C65.2958 28.0295 62.6855 21.5588 60.0826 15.0773C60.0197 14.9424 59.9457 14.8128 59.8614 14.6901C59.8061 17.4552 59.8614 20.2203 59.8614 22.9855V34.4996H55.6694V8.81689L55.5701 8.86118Z" fill="black"/>
<path d="M101.439 16.1186C103.577 15.5223 105.838 15.5223 107.976 16.1186C108.417 16.24 108.841 16.4184 109.237 16.6495C109.237 18.0431 109.237 19.4481 109.237 20.8528C107.828 19.704 106.026 19.152 104.215 19.3152C103.497 19.3766 102.8 19.5887 102.169 19.9374C101.538 20.2861 100.988 20.7639 100.554 21.3394C99.5559 22.8388 99.1608 24.6599 99.4481 26.4381C99.4843 27.1572 99.6697 27.8612 99.9922 28.505C100.315 29.1487 100.767 29.7185 101.322 30.1781C101.876 30.6377 102.519 30.9767 103.212 31.1745C103.904 31.3723 104.63 31.4242 105.343 31.3268C106.778 31.1357 108.139 30.5758 109.292 29.7012C109.292 31.0285 109.292 32.3556 109.292 33.6939C107.448 34.6802 105.358 35.1107 103.275 34.9328C101.139 34.8544 99.1043 34.0057 97.5457 32.5436C95.9095 30.9014 94.957 28.7 94.8802 26.3831C94.7066 23.9769 95.3155 21.579 96.6165 19.5475C97.7998 17.8683 99.5269 16.6491 101.505 16.0965L101.439 16.1186Z" fill="black"/>
<path d="M149.53 15.8413C151.582 15.5094 153.686 15.731 155.624 16.4829V20.5199C154.265 19.591 152.647 19.1149 151.001 19.1594C150.579 19.148 150.162 19.2496 149.792 19.4538C149.423 19.658 149.114 19.9577 148.899 20.3211C148.752 20.7095 148.734 21.135 148.85 21.5341C148.966 21.9332 149.208 22.2841 149.541 22.5332C150.78 23.3627 152.273 23.7167 153.567 24.4688C154.633 24.9921 155.513 25.8297 156.089 26.8688C156.58 27.8862 156.738 29.0326 156.539 30.1449C156.341 31.2571 155.796 32.2784 154.983 33.0628C153.261 34.4588 151.062 35.1254 148.855 34.9206C147.313 34.8471 145.796 34.4991 144.376 33.8924C144.376 32.4766 144.376 31.0605 144.376 29.6448C145.559 30.5135 146.924 31.1003 148.369 31.3595C149.383 31.5801 150.441 31.4835 151.399 31.083C151.605 30.9594 151.782 30.7948 151.921 30.5996C152.061 30.4044 152.158 30.1827 152.208 29.9483C152.258 29.7138 152.259 29.4719 152.211 29.237C152.163 29.0022 152.067 28.7793 151.93 28.583C151.387 28.029 150.73 27.5987 150.006 27.322C148.669 26.825 147.395 26.1718 146.212 25.3756C145.395 24.7582 144.813 23.8801 144.564 22.887C144.358 22.147 144.306 21.3731 144.41 20.6122C144.515 19.8514 144.774 19.1197 145.172 18.4627C145.692 17.7412 146.351 17.1314 147.111 16.6697C147.871 16.208 148.717 15.9036 149.596 15.7749L149.53 15.8413Z" fill="black"/>
<path d="M119.076 16.4284C119.692 16.0825 120.374 15.8716 121.078 15.8106C121.782 15.7495 122.491 15.8394 123.157 16.0741V20.4983C122.271 19.9389 121.224 19.6902 120.182 19.7908C119.573 19.8963 119.001 20.1546 118.519 20.5415C118.037 20.9284 117.662 21.4312 117.428 22.0029C116.921 23.1845 116.705 24.4698 116.797 25.752V34.6004H112.461C112.461 28.4729 112.461 22.3345 112.461 16.207C113.91 16.207 115.359 16.207 116.808 16.207V19.3593C117.222 18.1715 118.025 17.1581 119.087 16.4835L119.076 16.4284Z" fill="black"/>
<path d="M87.4768 16.1514C88.9368 16.1514 90.4078 16.1514 91.901 16.1514C91.901 22.2789 91.901 28.4173 91.901 34.5449H87.4768C87.4768 28.4063 87.4768 22.2789 87.4768 16.1514Z" fill="black"/>
<path d="M141.411 20.4323C140.64 18.7186 139.278 17.3405 137.573 16.5503C135.581 15.7215 133.398 15.4649 131.269 15.8094C129.011 16.0595 126.936 17.1681 125.473 18.9061C124.225 20.5203 123.517 22.486 123.449 24.5249C123.18 26.9306 123.746 29.3557 125.052 31.3934C126.271 33.0998 128.088 34.2845 130.14 34.7116C131.841 35.0599 133.594 35.0599 135.294 34.7116C137.299 34.3131 139.094 33.206 140.349 31.5927C141.516 30.0383 142.19 28.1697 142.285 26.2283C142.477 24.2539 142.177 22.2623 141.411 20.4323ZM137.164 28.8827C136.953 29.365 136.649 29.8009 136.27 30.1653C135.89 30.5298 135.442 30.8155 134.952 31.0062C133.803 31.431 132.551 31.4894 131.368 31.1726C130.774 31.0066 130.221 30.7181 129.745 30.3257C129.268 29.9334 128.88 29.4456 128.603 28.894C127.953 27.4494 127.723 25.8506 127.939 24.2814C128.01 22.8346 128.617 21.4663 129.643 20.4437C130.446 19.7482 131.467 19.3568 132.529 19.3376C133.197 19.2725 133.871 19.35 134.506 19.5655C135.141 19.781 135.723 20.1294 136.213 20.5873C137.165 21.6423 137.707 23.0046 137.739 24.4255C137.899 25.9359 137.702 27.4623 137.164 28.8827Z" fill="black"/>
<path d="M176.671 20.9737C175.995 19.1209 174.644 17.5919 172.888 16.6932C170.845 15.7582 168.571 15.4465 166.352 15.7972C164.563 16.0016 162.874 16.7288 161.496 17.8878C159.873 19.356 158.838 21.3649 158.587 23.5396C158.245 25.6946 158.486 27.9021 159.284 29.9328C160.127 31.9067 161.718 33.4658 163.708 34.2685C165.692 34.9962 167.835 35.1795 169.913 34.7993C172.048 34.4579 173.978 33.3295 175.322 31.6362C176.67 29.8282 177.371 27.6195 177.313 25.365C177.383 23.8737 177.166 22.3825 176.671 20.9737ZM172.7 27.212C172.573 28.1925 172.191 29.1226 171.594 29.9107C170.934 30.666 170.022 31.1571 169.028 31.2932C167.966 31.4696 166.876 31.3509 165.876 30.9503C164.812 30.4767 163.977 29.6021 163.553 28.5168C163.067 27.2417 162.889 25.8702 163.034 24.5133C163.082 23.1807 163.546 21.8962 164.361 20.8409C164.766 20.3813 165.261 20.0082 165.814 19.744C166.367 19.4798 166.967 19.3299 167.58 19.3033C168.847 19.1713 170.115 19.5454 171.108 20.3435C171.958 21.1099 172.52 22.1441 172.7 23.2744C172.933 24.5766 172.933 25.9097 172.7 27.212Z" fill="black"/>
<path d="M0 22.7441H20.3734V43.1062H0.0110713V22.7441H0Z" fill="black"/>
<path d="M22.4384 22.7432H42.7896V43.1052H22.4384C22.4384 36.314 22.4384 29.5269 22.4384 22.7432Z" fill="black"/>
</svg>
