<svg width="227" height="89" viewBox="0 0 227 89" fill="none" xmlns="http://www.w3.org/2000/svg">
<path d="M19.0149 80.5519C17.7882 80.5519 16.7779 80.1551 16.0562 79.3615C15.3346 78.5678 14.9738 77.4856 14.9738 76.0787V62.4786H23.2725V55.0111H14.9738V46.8583H5.15965V55.0111H0V62.4786H5.15965V76.259C5.15965 80.2633 6.24209 83.2575 8.44306 85.2777C10.644 87.2979 13.711 88.3079 17.6799 88.3079C19.1593 88.3079 20.6025 88.1276 22.0097 87.7668C23.4169 87.4061 24.5715 86.901 25.5457 86.1796L22.9839 79.3254C21.9014 80.1551 20.5664 80.5519 18.9788 80.5519H19.0149Z" fill="#F9F9F9"/>
<path d="M58.5883 55.3382C56.4956 54.292 54.1142 53.7509 51.4442 53.7509C48.5577 53.7509 46.032 54.3641 43.7949 55.5546C42.6764 56.1679 41.6661 56.8894 40.8002 57.7551V46.8246H31.0943V87.7692H40.8002V71.1749C40.8002 69.0465 41.1249 67.351 41.8465 66.0523C42.5321 64.7536 43.4702 63.7796 44.7331 63.1303C45.9598 62.4809 47.3309 62.1202 48.8824 62.1202C51.0473 62.1202 52.7071 62.7695 53.8978 64.0682C55.0884 65.3669 55.6657 67.351 55.6657 70.0566V87.7692H65.3717V68.5775C65.3717 65.1865 64.7583 62.3727 63.5676 60.2082C62.3408 58.0437 60.7171 56.4204 58.6244 55.3382H58.5883Z" fill="#F9F9F9"/>
<path d="M83.8799 54.2568H74.174V87.7701H83.8799V54.2568Z" fill="#F9F9F9"/>
<path d="M147.956 62.8776C149.291 62.1561 150.771 61.7953 152.394 61.7953C153.946 61.7953 155.353 62.1561 156.616 62.8776C157.915 63.5991 158.997 64.7535 159.899 66.3407L167.368 62.2282C166.214 59.5226 164.301 57.4303 161.667 55.9513C159.033 54.4722 155.93 53.7507 152.394 53.7507C148.858 53.7507 145.575 54.5083 142.761 55.9873C139.946 57.4664 137.745 59.5226 136.158 62.0839C134.57 64.6452 133.776 67.6394 133.776 70.9944C133.776 74.3493 134.57 77.2713 136.158 79.9048C137.745 82.5382 139.946 84.5584 142.761 86.0374C145.575 87.5165 148.786 88.238 152.394 88.238C156.002 88.238 158.997 87.4804 161.667 86.0014C164.301 84.5223 166.214 82.43 167.368 79.7605L159.899 75.648C158.997 77.2713 157.879 78.4257 156.616 79.1833C155.317 79.9048 153.91 80.2655 152.394 80.2655C150.771 80.2655 149.291 79.9048 147.956 79.1833C146.621 78.4618 145.575 77.4156 144.781 76.0087C143.987 74.6018 143.59 72.9424 143.59 70.9944C143.59 69.0463 143.987 67.3869 144.781 66.0161C145.575 64.6452 146.621 63.5991 147.956 62.8776Z" fill="#F9F9F9"/>
<path d="M182.39 58.7318V54.2586H173.117V87.7719H182.823V71.9351C182.823 68.7245 183.653 66.3796 185.24 64.8284C186.864 63.2772 189.029 62.5197 191.771 62.5197C192.096 62.5197 192.457 62.5197 192.818 62.5918C193.178 62.6279 193.539 62.7 193.9 62.7722V53.7175C190.761 53.7175 188.055 54.3307 185.854 55.5573C184.447 56.3509 183.292 57.3971 182.354 58.6597L182.39 58.7318Z" fill="#F9F9F9"/>
<path d="M225.988 73.0148C225.266 71.7883 224.292 70.8503 223.065 70.1649C221.839 69.4795 220.54 68.9384 219.096 68.5776C217.689 68.2169 216.246 67.9283 214.803 67.7118C213.359 67.4954 212.024 67.2789 210.798 67.0986C209.571 66.8821 208.633 66.5575 207.875 66.1246C207.117 65.6917 206.757 65.0423 206.757 64.2126C206.757 63.3107 207.262 62.5532 208.236 61.976C209.246 61.3988 210.87 61.1102 213.107 61.1102C214.586 61.1102 216.174 61.2906 217.797 61.6874C219.421 62.0481 221.045 62.6975 222.632 63.6354L225.916 56.7091C224.292 55.8072 222.308 55.0858 219.962 54.5446C217.617 54.0396 215.272 53.751 212.963 53.751C209.715 53.751 206.973 54.22 204.664 55.1218C202.391 56.0237 200.623 57.3224 199.36 58.9457C198.133 60.5691 197.484 62.481 197.484 64.5734C197.484 66.4853 197.844 68.0365 198.566 69.263C199.288 70.4896 200.262 71.4275 201.489 72.1129C202.715 72.7984 204.05 73.3395 205.494 73.7002C206.937 74.061 208.38 74.3496 209.824 74.566C211.267 74.7825 212.602 74.9989 213.792 75.1793C214.983 75.3596 215.921 75.6843 216.679 76.0811C217.401 76.478 217.761 77.0552 217.761 77.8488C217.761 78.8228 217.292 79.5443 216.354 80.0854C215.416 80.6265 213.829 80.9151 211.591 80.9151C209.571 80.9151 207.478 80.6265 205.385 80.0133C203.293 79.4 201.453 78.6424 199.865 77.7406L196.69 84.6669C198.277 85.713 200.37 86.5788 202.968 87.2643C205.602 87.9497 208.308 88.3104 211.195 88.3104C214.55 88.3104 217.437 87.8414 219.746 86.9396C222.091 86.0377 223.895 84.7751 225.122 83.1517C226.349 81.5645 226.998 79.7247 226.998 77.7045C226.998 75.7925 226.637 74.2413 225.916 73.0148H225.988Z" fill="#F9F9F9"/>
<path d="M107.991 9.70405C114.63 9.70405 120.006 15.0792 120.006 21.7169C120.006 28.3546 114.63 33.7297 107.991 33.7297C101.352 33.7297 95.9754 28.3546 95.9754 21.7169C95.9754 15.0792 101.352 9.70405 107.991 9.70405ZM107.991 0C95.9754 0 86.2334 9.74013 86.2334 21.753C86.2334 33.7658 95.9754 43.5059 107.991 43.5059C120.006 43.5059 129.748 33.7658 129.748 21.753C129.748 9.74013 120.006 0 107.991 0Z" fill="#565FF0"/>
<path d="M79.018 50.4341C83.5282 50.4341 87.1724 46.7906 87.1724 42.2813C87.1724 37.772 83.5282 34.1284 79.018 34.1284C74.5078 34.1284 70.8636 37.772 70.8636 42.2813C70.8636 46.7906 74.5078 50.4341 79.018 50.4341Z" fill="#565FF0"/>
<path d="M125.41 60.1748C124.183 58.0104 122.559 56.387 120.467 55.3048C118.374 54.2586 115.992 53.7175 113.322 53.7175C110.436 53.7175 107.91 54.3307 105.673 55.5212C104.338 56.2427 103.22 57.1446 102.245 58.2629V54.2225H92.9725V87.6997H102.678V71.1054C102.678 68.977 103.003 67.2815 103.689 65.9828C104.374 64.6841 105.312 63.7101 106.575 63.0608C107.802 62.4114 109.173 62.0507 110.725 62.0507C112.889 62.0507 114.549 62.7 115.74 63.9987C116.931 65.2974 117.508 67.2815 117.508 69.9871V87.6997H127.214V68.508C127.214 65.117 126.6 62.3032 125.41 60.1387V60.1748Z" fill="#F9F9F9"/>
</svg>
