<svg width="158" height="60" viewBox="0 0 158 60" fill="none" xmlns="http://www.w3.org/2000/svg">
<path d="M24.5848 14.6997L12.3075 7.62688L0.0413208 14.6997V7.62688L12.3186 0.542969L24.5848 7.62688V14.6997Z" fill="black"/>
<path d="M6.4797 20.6491V36.2182C6.4797 37.7666 7.09485 39.2517 8.18976 40.3466C9.28467 41.4415 10.7697 42.0566 12.3181 42.0566C13.8665 42.0566 15.3515 41.4415 16.4464 40.3466C17.5413 39.2517 18.1565 37.7666 18.1565 36.2182V20.6491H24.5509V36.6296C24.5509 40.344 23.4388 43.2131 21.0479 45.1815C18.5573 47.1871 15.4244 48.2222 12.2292 48.0951C9.04955 48.2322 5.93053 47.1952 3.46602 45.1815C2.29727 44.1311 1.38029 42.8308 0.783436 41.3771C0.186577 39.9235 -0.0749121 38.354 0.0184766 36.7853V20.6491H6.4797ZM80.1547 40.0437L84.9256 42.8016C83.4874 44.4836 81.6942 45.8257 79.6751 46.7314C77.656 47.6371 75.4613 48.0839 73.2488 48.0395C71.3766 48.117 69.5075 47.8249 67.7482 47.18C65.989 46.535 64.3738 45.5498 62.9953 44.2807C61.6827 42.9759 60.6558 41.4122 59.98 39.6892C59.3042 37.9661 58.9943 36.1213 59.0698 34.272V34.0607C58.9576 32.1853 59.2426 30.3073 59.9063 28.5497C60.57 26.7921 61.5973 25.1943 62.9211 23.8611C64.2448 22.5279 65.8352 21.4893 67.5881 20.8131C69.3409 20.1369 71.2169 19.8385 73.0931 19.9374C74.8612 19.8706 76.6231 20.1823 78.261 20.8517C79.8989 21.521 81.3748 22.5326 82.5901 23.8186C83.8211 25.0903 84.785 26.5956 85.4249 28.2458C86.0647 29.896 86.3676 31.6577 86.3157 33.4268C86.3157 34.6612 86.1711 35.9735 86.1711 35.9735H65.4086C65.7644 40.0326 68.856 42.646 73.46 42.646C75.9418 42.6641 78.3367 41.7331 80.1547 40.0437ZM67.9219 27.0547C67.2833 27.515 66.745 28.1003 66.3397 28.7752C65.9344 29.45 65.6705 30.2003 65.5643 30.9803H79.821C79.784 30.2284 79.5851 29.4932 79.2377 28.8253C78.8903 28.1573 78.4027 27.5723 77.8082 27.1103C76.5123 25.9469 74.8231 25.3189 73.0819 25.3532C71.2194 25.3233 69.4013 25.9228 67.9219 27.0547ZM144.833 51.6872C142.231 57.837 139.506 59.9276 135.314 59.9276H132.422V54.2338H134.758C136.203 54.2338 137.538 53.7 138.817 50.753L140.084 47.806L129.086 20.6491H135.614L143.398 40.1883L151.428 20.6491H158L144.844 51.6538L144.833 51.6872ZM49.606 10.3735H55.9782V47.4056H49.606V44.948C47.246 47.0131 44.1883 48.1026 41.0541 47.9951C39.2704 48.0284 37.4993 47.6907 35.8529 47.0034C34.2066 46.3162 32.7209 45.2943 31.4903 44.0027C30.2257 42.6685 29.2377 41.0972 28.583 39.3795C27.9284 37.6617 27.6201 35.8314 27.6759 33.994C27.6206 32.1684 27.9293 30.35 28.5842 28.6449C29.2391 26.9399 30.227 25.3824 31.4903 24.0632C32.7123 22.7575 34.1954 21.7233 35.843 21.0279C37.4906 20.3324 39.266 19.9912 41.0541 20.0263C44.171 19.9906 47.2002 21.0581 49.606 23.0401V10.3735ZM50.0841 33.994C50.1151 32.9079 49.9184 31.8273 49.5067 30.8218C49.0949 29.8162 48.4772 28.908 47.6933 28.1556C46.9372 27.3927 46.0333 26.7921 45.037 26.3906C44.0408 25.989 42.9731 25.795 41.8993 25.8203C40.8424 25.7977 39.7923 25.9935 38.8145 26.3953C37.8367 26.7972 36.9522 27.3964 36.2166 28.1556C34.7839 29.7629 33.9922 31.8409 33.9922 33.994C33.9922 36.1471 34.7839 38.2251 36.2166 39.8324C36.9522 40.5916 37.8367 41.1909 38.8145 41.5928C39.7923 41.9946 40.8424 42.1904 41.8993 42.1678C42.9731 42.1931 44.0408 41.999 45.037 41.5974C46.0333 41.1959 46.9372 40.5953 47.6933 39.8324C48.4811 39.0877 49.1045 38.1867 49.5239 37.1871C49.9433 36.1875 50.1493 35.1113 50.1287 34.0274L50.0841 33.994ZM119.2 20.082C124.76 20.082 128.497 23.8297 128.497 30.8135V47.4056H122.113V31.7476C122.113 28.0777 120.367 25.798 117.331 25.798C114.295 25.798 112.027 28.3447 112.027 32.0146V47.4056H105.732V31.7476C105.732 28.0777 103.975 25.798 100.95 25.798C97.9256 25.798 95.746 28.4003 95.746 32.0146V47.4056H89.4183V20.6491H95.7238V23.4404C96.5896 22.3672 97.6912 21.508 98.9428 20.9294C100.195 20.3508 101.563 20.0684 102.941 20.1042C104.389 20.007 105.835 20.3273 107.106 21.0271C108.378 21.7268 109.421 22.7767 110.114 24.0521C111.22 22.7366 112.617 21.6956 114.193 21.0106C115.769 20.3256 117.483 20.0154 119.2 20.1042V20.082Z" fill="black"/>
</svg>
