<svg width="324" height="108" xmlns="http://www.w3.org/2000/svg" fill="none">
 <g>
  <title>Layer 1</title>
  <path stroke="#000000" d="m132.921,69.8306l-9.856,-22.5518c-1.298,-2.9744 0.879,-6.314 4.137,-6.314l0.676,0c1.852,0 3.515,1.1357 4.191,2.8528l8.167,20.632l-2.137,0l8.424,-20.6725c0.689,-1.7036 2.339,-2.8123 4.177,-2.8123c3.259,0 5.449,3.3531 4.124,6.3411l-9.991,22.5653c-1.042,2.3525 -3.381,3.8668 -5.949,3.8668c-2.583,0 -4.935,-1.5278 -5.963,-3.9074z" fill="white" id="svg_1"/>
  <path stroke="#000000" d="m171.05877,74.4268c-2.502,0 -4.678,-0.4597 -6.558,-1.3655c-1.879,-0.9194 -3.339,-2.1633 -4.421,-3.7451c-1.068,-1.5819 -1.609,-3.4071 -1.609,-5.4487c0,-2.4066 0.622,-4.2995 1.866,-5.692c1.244,-1.3926 3.272,-2.3796 6.057,-3.0151c2.785,-0.6219 6.503,-0.9329 11.141,-0.9329l3.542,0l0,5.2189l-3.475,0c-1.69,0 -3.15,0.0676 -4.353,0.2028c-1.203,0.1352 -2.19,0.365 -2.948,0.703c-0.757,0.338 -1.311,0.7572 -1.636,1.2709c-0.338,0.5138 -0.5,1.1222 -0.5,1.8388c0,1.2033 0.433,2.2038 1.298,3.015c0.865,0.7977 2.109,1.2033 3.718,1.2033c1.298,0 2.447,-0.2839 3.475,-0.8653c1.027,-0.5814 1.825,-1.3791 2.407,-2.4066c0.581,-1.0275 0.865,-2.2579 0.865,-3.6775l0,-7.6255c0,-1.9604 -0.446,-3.353 -1.339,-4.1777c-0.892,-0.8248 -2.433,-1.2439 -4.61,-1.2439c-1.744,0 -3.596,0.2704 -5.584,0.7977c-0.838,0.2299 -1.676,0.5138 -2.501,0.8518c-1.907,0.7706 -4.07,-0.0676 -4.854,-1.974c-0.771,-1.8658 0.135,-3.9885 1.987,-4.7862c0.311,-0.1352 0.622,-0.2568 0.947,-0.392c1.622,-0.622 3.366,-1.1087 5.219,-1.4332c1.852,-0.338 3.583,-0.5002 5.192,-0.5002c3.434,0 6.273,0.5002 8.531,1.5007c2.258,1.0005 3.921,2.5553 5.016,4.651c1.095,2.0956 1.636,4.7456 1.636,7.9634l0,14.6831c0,2.6094 -2.109,4.7185 -4.719,4.7185c-2.609,0 -4.718,-2.1091 -4.718,-4.7185l0,-1.8388l0.473,0c-0.271,1.4737 -0.838,2.7446 -1.704,3.8127c-0.865,1.0681 -1.96,1.9064 -3.272,2.5148c-1.311,0.6084 -2.839,0.9058 -4.583,0.9058l0.014,-0.0135z" fill="white" id="svg_2"/>
  <path d="m198.088,68.7003l0,-22.7817c0,-2.7311 2.217,-4.9484 4.949,-4.9484c2.731,0 4.948,2.2173 4.948,4.9484l0,1.2033l-0.73,0c0.622,-1.4331 1.433,-2.65 2.447,-3.6775c1.001,-1.0276 2.217,-1.8117 3.651,-2.3796c1.433,-0.5543 2.987,-0.8382 4.678,-0.8382c2.541,0 4.664,0.6084 6.354,1.8117c1.69,1.2033 2.893,3.0285 3.61,5.4892l-0.933,0c0.974,-2.2308 2.501,-4.002 4.543,-5.3135c2.055,-1.3114 4.367,-1.9739 6.963,-1.9739c2.596,0 4.57,0.4867 6.219,1.4737c1.65,0.987 2.88,2.5148 3.678,4.5834c0.797,2.0686 1.203,4.678 1.203,7.7877l0,14.6154c0,2.7852 -2.258,5.0566 -5.057,5.0566c-2.785,0 -5.056,-2.2579 -5.056,-5.0566l0,-14.2774c0,-2.2309 -0.338,-3.8533 -1.001,-4.8538c-0.676,-1.0005 -1.879,-1.5008 -3.61,-1.5008c-1.203,0 -2.257,0.284 -3.177,0.8653c-0.919,0.5814 -1.622,1.4467 -2.109,2.6094c-0.487,1.1628 -0.73,2.5689 -0.73,4.2184l0,12.9389c0,2.7852 -2.258,5.0566 -5.057,5.0566c-2.785,0 -5.056,-2.2579 -5.056,-5.0566l0,-14.2774c0,-2.2309 -0.352,-3.8533 -1.068,-4.8538c-0.717,-1.0005 -1.88,-1.5008 -3.475,-1.5008c-1.244,0 -2.326,0.284 -3.245,0.8653c-0.919,0.5814 -1.622,1.4467 -2.109,2.6094c-0.487,1.1628 -0.73,2.5689 -0.73,4.2184l0,12.9389c0,2.7852 -2.258,5.0566 -5.057,5.0566c-2.785,0 -5.056,-2.2579 -5.056,-5.0566l0.013,0z" fill="white" id="svg_3" stroke="#000000"/>
  <path stroke="#000000" d="m273.231,74.4133c-3.529,0 -6.584,-0.6895 -9.167,-2.0686c-2.582,-1.3791 -4.61,-3.353 -6.057,-5.9219c-1.446,-2.5688 -2.176,-5.6109 -2.176,-9.1262c0,-3.5152 0.73,-6.5032 2.176,-9.0586c1.447,-2.5688 3.461,-4.5428 6.057,-5.9218c2.583,-1.3791 5.638,-2.0686 9.167,-2.0686c3.529,0 6.585,0.6895 9.194,2.0686c2.609,1.379 4.637,3.353 6.084,5.9218c1.447,2.5689 2.177,5.5839 2.177,9.0586c0,3.4747 -0.73,6.5709 -2.177,9.1262c-1.447,2.5689 -3.475,4.5428 -6.084,5.9219c-2.609,1.3791 -5.679,2.0686 -9.194,2.0686zm0,-7.4902c2.19,0 3.948,-0.7842 5.287,-2.339c1.338,-1.5549 2.001,-3.9885 2.001,-7.2875c0,-3.2989 -0.676,-5.6514 -2.001,-7.1928c-1.325,-1.5413 -3.097,-2.3119 -5.287,-2.3119c-2.19,0 -3.88,0.7706 -5.219,2.3119c-1.338,1.5414 -2.001,3.9344 -2.001,7.1928c0,3.2584 0.663,5.7326 2.001,7.2875c1.339,1.5548 3.083,2.339 5.219,2.339z" fill="white" id="svg_4"/>
  <path stroke="#000000" d="m309.345,74.4268c-1.919,0 -3.772,-0.1487 -5.556,-0.4326c-1.785,-0.2839 -3.408,-0.7031 -4.881,-1.2439c-0.284,-0.1081 -0.555,-0.2163 -0.825,-0.3245c-1.785,-0.7571 -2.691,-2.7446 -2.015,-4.5698c0.717,-1.9199 2.867,-2.8258 4.76,-2.0416c0.081,0.0406 0.175,0.0676 0.257,0.1082c1.311,0.5408 2.69,0.9329 4.11,1.2033c1.433,0.2704 2.825,0.4056 4.218,0.4056c1.879,0 3.258,-0.311 4.151,-0.9329c0.892,-0.6219 1.338,-1.4332 1.338,-2.4066c0,-0.8518 -0.284,-1.4873 -0.865,-1.9064c-0.581,-0.4191 -1.433,-0.7436 -2.542,-0.9734l-7.098,-1.2709c-2.718,-0.5409 -4.827,-1.5549 -6.327,-3.0827c-1.501,-1.5278 -2.245,-3.4747 -2.245,-5.8813c0,-2.2714 0.622,-4.2183 1.879,-5.8137c1.244,-1.6089 2.975,-2.8393 5.179,-3.7181c2.204,-0.8653 4.718,-1.2979 7.531,-1.2979c1.608,0 3.163,0.1352 4.678,0.4056c1.514,0.2704 2.947,0.6625 4.313,1.2033c0.378,0.1487 0.757,0.3109 1.108,0.4867c1.541,0.7436 2.19,2.5959 1.555,4.1778l-0.162,0.3921c-0.703,1.7441 -2.691,2.5688 -4.421,1.8387c-1.163,-0.4867 -2.339,-0.8653 -3.543,-1.1357c-1.203,-0.2704 -2.325,-0.4056 -3.339,-0.4056c-2.055,0 -3.529,0.311 -4.448,0.9329c-0.92,0.6219 -1.366,1.4332 -1.366,2.4066c0,0.7571 0.27,1.3926 0.798,1.9064c0.541,0.5137 1.338,0.8653 2.406,1.041l7.085,1.2033c2.853,0.5409 5.043,1.5278 6.557,2.9745c1.515,1.4467 2.272,3.4071 2.272,5.8543c0,2.3255 -0.609,4.2994 -1.812,5.9219c-1.203,1.6224 -2.893,2.8663 -5.084,3.718c-2.19,0.8518 -4.745,1.2709 -7.693,1.2709l0.027,-0.0135z" fill="white" id="svg_5"/>
  <path d="m148.212,58.7382c0.433,0 0.784,-0.0121 0.784,-0.0271c0,-0.0149 -0.351,-0.027 -0.784,-0.027c-0.434,0 -0.785,0.0121 -0.785,0.027c0,0.015 0.351,0.0271 0.785,0.0271z" fill="#54595B" id="svg_6"/>
  <path d="m77.4898,45.7932c-2.988,0 -5.4081,-2.4201 -5.4081,-5.4081c0,-16.3055 -13.2634,-29.5689 -29.5689,-29.5689c-2.988,0 -5.4081,-2.42011 -5.4081,-5.40809c0,-2.98798 2.4201,-5.40811 5.4081,-5.40811c22.2679,0 40.3851,18.1172 40.3851,40.3851c0,2.988 -2.4201,5.4081 -5.4081,5.4081z" fill="#41E5C6" id="svg_7"/>
  <path d="m76.7764,74.2688c-1.8658,0 -3.691,-0.9734 -4.6915,-2.704c-1.4873,-2.5824 -0.6084,-5.8949 1.9739,-7.3821c6.8413,-3.9479 11.7356,-10.3295 13.7772,-17.9549c2.0416,-7.6255 1.0005,-15.6024 -2.9609,-22.4437c-1.4873,-2.5824 -0.6084,-5.8948 1.9739,-7.3821c2.5824,-1.5007 5.8949,-0.6084 7.3821,1.974c5.3946,9.3425 6.8279,20.2263 4.029,30.6505c-2.7851,10.4241 -9.4777,19.1312 -18.8202,24.5258c-0.8518,0.4867 -1.7847,0.7301 -2.7041,0.7301l0.0406,-0.0136z" fill="#8CFC6D" id="svg_8"/>
  <path d="m69.1788,92.5845c-7.0035,0 -13.9124,-1.8388 -20.1317,-5.4352c-2.5824,-1.4872 -3.4747,-4.7997 -1.9739,-7.382c1.5007,-2.5824 4.7997,-3.4748 7.382,-1.974c6.8413,3.9479 14.8047,5.0025 22.4437,2.9609c7.6254,-2.0415 14.007,-6.9359 17.9549,-13.7771c1.4873,-2.5824 4.7997,-3.4747 7.3822,-1.974c2.582,1.4872 3.475,4.7997 1.974,7.3821c-5.3947,9.3425 -14.1018,16.0215 -24.5259,18.8202c-3.4747,0.9329 -7.0035,1.3926 -10.5188,1.3926l0.0135,-0.0135z" fill="#6676D1" id="svg_9"/>
  <path d="m62.4285,108c-22.2679,0 -40.3851,-18.117 -40.3851,-40.3849c0,-2.9879 2.4202,-5.4081 5.4082,-5.4081c2.9879,0 5.4081,2.4202 5.4081,5.4081c0,16.3055 13.2634,29.5689 29.5688,29.5689c2.988,0 5.4081,2.4201 5.4081,5.408c0,2.988 -2.4201,5.408 -5.4081,5.408z" fill="#41E5C6" id="svg_10"/>
  <path d="m15.3711,92.318c-1.8658,0 -3.691,-0.9734 -4.6915,-2.704c-5.39458,-9.3426 -6.82773,-20.2264 -4.02904,-30.6505c2.7987,-10.4242 9.47774,-19.1312 18.82024,-24.5258c2.5824,-1.5008 5.8948,-0.6084 7.3821,1.9739c1.4872,2.5824 0.6084,5.8949 -1.974,7.3821c-6.8413,3.9479 -11.7356,10.3295 -13.7772,17.955c-2.0415,7.6254 -1.0005,15.6024 2.9475,22.4436c1.4872,2.5824 0.6084,5.8949 -1.974,7.3821c-0.8518,0.4867 -1.7847,0.7301 -2.7041,0.7301l0,0.0135z" fill="#8CFC6D" id="svg_11"/>
  <path d="m5.40721,43.7433c-0.91938,0 -1.85228,-0.2298 -2.70406,-0.7301c-2.58237,-1.4872 -3.47471,-4.7997 -1.97396,-7.382c11.12721,-19.2935 35.88281,-25.91843 55.16271,-14.7912c2.5824,1.4872 3.4747,4.7997 1.974,7.382c-1.4872,2.5824 -4.7997,3.4748 -7.3821,1.974c-14.1152,-8.1527 -32.2458,-3.2989 -40.3986,10.8297c-1.00048,1.7306 -2.8122,2.7041 -4.69151,2.7041l0.01352,0.0135z" fill="#6676D1" id="svg_12"/>
 </g>

</svg>