<svg width="324" height="108" viewBox="0 0 324 108" fill="none" xmlns="http://www.w3.org/2000/svg">
<path d="M132.921 69.8306L123.065 47.2788C121.767 44.3044 123.944 40.9648 127.202 40.9648H127.878C129.73 40.9648 131.393 42.1005 132.069 43.8176L140.236 64.4496H138.099L146.523 43.7771C147.212 42.0735 148.862 40.9648 150.7 40.9648C153.959 40.9648 156.149 44.3179 154.824 47.3059L144.833 69.8712C143.791 72.2237 141.452 73.738 138.884 73.738C136.301 73.738 133.949 72.2102 132.921 69.8306Z" fill="white"/>
<path d="M171.828 74.4268C169.326 74.4268 167.15 73.9671 165.27 73.0613C163.391 72.1419 161.931 70.898 160.849 69.3162C159.781 67.7343 159.24 65.9091 159.24 63.8675C159.24 61.4609 159.862 59.568 161.106 58.1755C162.35 56.7829 164.378 55.7959 167.163 55.1604C169.948 54.5385 173.666 54.2275 178.304 54.2275H181.846V59.4464H178.371C176.681 59.4464 175.221 59.514 174.018 59.6492C172.815 59.7844 171.828 60.0142 171.07 60.3522C170.313 60.6902 169.759 61.1094 169.434 61.6231C169.096 62.1369 168.934 62.7453 168.934 63.4619C168.934 64.6652 169.367 65.6657 170.232 66.4769C171.097 67.2746 172.341 67.6802 173.95 67.6802C175.248 67.6802 176.397 67.3963 177.425 66.8149C178.452 66.2335 179.25 65.4358 179.832 64.4083C180.413 63.3808 180.697 62.1504 180.697 60.7308V53.1053C180.697 51.1449 180.251 49.7523 179.358 48.9276C178.466 48.1028 176.925 47.6837 174.748 47.6837C173.004 47.6837 171.152 47.9541 169.164 48.4814C168.326 48.7113 167.488 48.9952 166.663 49.3332C164.756 50.1038 162.593 49.2656 161.809 47.3592C161.038 45.4934 161.944 43.3707 163.796 42.573C164.107 42.4378 164.418 42.3162 164.743 42.181C166.365 41.559 168.109 41.0723 169.962 40.7478C171.814 40.4098 173.545 40.2476 175.154 40.2476C178.588 40.2476 181.427 40.7478 183.685 41.7483C185.943 42.7488 187.606 44.3036 188.701 46.3993C189.796 48.4949 190.337 51.1449 190.337 54.3627V69.0458C190.337 71.6552 188.228 73.7643 185.618 73.7643C183.009 73.7643 180.9 71.6552 180.9 69.0458V67.207H181.373C181.102 68.6807 180.535 69.9516 179.669 71.0197C178.804 72.0878 177.709 72.9261 176.397 73.5345C175.086 74.1429 173.558 74.4403 171.814 74.4403L171.828 74.4268Z" fill="white"/>
<path d="M198.088 68.7003V45.9186C198.088 43.1875 200.305 40.9702 203.037 40.9702C205.768 40.9702 207.985 43.1875 207.985 45.9186V47.1219H207.255C207.877 45.6888 208.688 44.4719 209.702 43.4444C210.703 42.4168 211.919 41.6327 213.353 41.0648C214.786 40.5105 216.34 40.2266 218.031 40.2266C220.572 40.2266 222.695 40.835 224.385 42.0383C226.075 43.2416 227.278 45.0668 227.995 47.5275H227.062C228.036 45.2967 229.563 43.5255 231.605 42.214C233.66 40.9026 235.972 40.2401 238.568 40.2401C241.164 40.2401 243.138 40.7268 244.787 41.7138C246.437 42.7008 247.667 44.2286 248.465 46.2972C249.262 48.3658 249.668 50.9752 249.668 54.0849V68.7003C249.668 71.4855 247.41 73.7569 244.611 73.7569C241.826 73.7569 239.555 71.499 239.555 68.7003V54.4229C239.555 52.192 239.217 50.5696 238.554 49.5691C237.878 48.5686 236.675 48.0683 234.944 48.0683C233.741 48.0683 232.687 48.3523 231.767 48.9336C230.848 49.515 230.145 50.3803 229.658 51.543C229.171 52.7058 228.928 54.1119 228.928 55.7614V68.7003C228.928 71.4855 226.67 73.7569 223.871 73.7569C221.086 73.7569 218.815 71.499 218.815 68.7003V54.4229C218.815 52.192 218.463 50.5696 217.747 49.5691C217.03 48.5686 215.867 48.0683 214.272 48.0683C213.028 48.0683 211.946 48.3523 211.027 48.9336C210.108 49.515 209.405 50.3803 208.918 51.543C208.431 52.7058 208.188 54.1119 208.188 55.7614V68.7003C208.188 71.4855 205.93 73.7569 203.131 73.7569C200.346 73.7569 198.075 71.499 198.075 68.7003H198.088Z" fill="white"/>
<path d="M273.231 74.4133C269.702 74.4133 266.647 73.7238 264.064 72.3447C261.482 70.9656 259.454 68.9917 258.007 66.4228C256.561 63.854 255.831 60.8119 255.831 57.2966C255.831 53.7814 256.561 50.7934 258.007 48.238C259.454 45.6692 261.468 43.6952 264.064 42.3162C266.647 40.9371 269.702 40.2476 273.231 40.2476C276.76 40.2476 279.816 40.9371 282.425 42.3162C285.034 43.6952 287.062 45.6692 288.509 48.238C289.956 50.8069 290.686 53.8219 290.686 57.2966C290.686 60.7713 289.956 63.8675 288.509 66.4228C287.062 68.9917 285.034 70.9656 282.425 72.3447C279.816 73.7238 276.746 74.4133 273.231 74.4133ZM273.231 66.9231C275.421 66.9231 277.179 66.1389 278.518 64.5841C279.856 63.0292 280.519 60.5956 280.519 57.2966C280.519 53.9977 279.843 51.6452 278.518 50.1038C277.193 48.5625 275.421 47.7919 273.231 47.7919C271.041 47.7919 269.351 48.5625 268.012 50.1038C266.674 51.6452 266.011 54.0382 266.011 57.2966C266.011 60.555 266.674 63.0292 268.012 64.5841C269.351 66.1389 271.095 66.9231 273.231 66.9231Z" fill="white"/>
<path d="M309.345 74.4268C307.426 74.4268 305.573 74.2781 303.789 73.9942C302.004 73.7103 300.381 73.2911 298.908 72.7503C298.624 72.6422 298.353 72.534 298.083 72.4258C296.298 71.6687 295.392 69.6812 296.068 67.856C296.785 65.9361 298.935 65.0302 300.828 65.8144C300.909 65.855 301.003 65.882 301.085 65.9226C302.396 66.4634 303.775 66.8555 305.195 67.1259C306.628 67.3963 308.02 67.5315 309.413 67.5315C311.292 67.5315 312.671 67.2205 313.564 66.5986C314.456 65.9767 314.902 65.1654 314.902 64.192C314.902 63.3402 314.618 62.7047 314.037 62.2856C313.456 61.8665 312.604 61.542 311.495 61.3122L304.397 60.0413C301.679 59.5004 299.57 58.4864 298.07 56.9586C296.569 55.4308 295.825 53.4839 295.825 51.0773C295.825 48.8059 296.447 46.859 297.704 45.2636C298.948 43.6547 300.679 42.4243 302.883 41.5455C305.087 40.6802 307.601 40.2476 310.414 40.2476C312.022 40.2476 313.577 40.3828 315.092 40.6532C316.606 40.9236 318.039 41.3157 319.405 41.8565C319.783 42.0052 320.162 42.1674 320.513 42.3432C322.054 43.0868 322.703 44.9391 322.068 46.521L321.906 46.9131C321.203 48.6572 319.215 49.4819 317.485 48.7518C316.322 48.2651 315.146 47.8865 313.942 47.6161C312.739 47.3457 311.617 47.2105 310.603 47.2105C308.548 47.2105 307.074 47.5215 306.155 48.1434C305.235 48.7653 304.789 49.5766 304.789 50.55C304.789 51.3071 305.059 51.9426 305.587 52.4564C306.128 52.9701 306.925 53.3217 307.993 53.4974L315.078 54.7007C317.931 55.2416 320.121 56.2285 321.635 57.6752C323.15 59.1219 323.907 61.0823 323.907 63.5295C323.907 65.855 323.298 67.8289 322.095 69.4514C320.892 71.0738 319.202 72.3177 317.011 73.1694C314.821 74.0212 312.266 74.4403 309.318 74.4403L309.345 74.4268Z" fill="white"/>
<path d="M148.212 58.7382C148.645 58.7382 148.996 58.7261 148.996 58.7111C148.996 58.6962 148.645 58.6841 148.212 58.6841C147.778 58.6841 147.427 58.6962 147.427 58.7111C147.427 58.7261 147.778 58.7382 148.212 58.7382Z" fill="#54595B"/>
<path d="M77.4898 45.7932C74.5018 45.7932 72.0817 43.3731 72.0817 40.3851C72.0817 24.0796 58.8183 10.8162 42.5128 10.8162C39.5248 10.8162 37.1047 8.39609 37.1047 5.40811C37.1047 2.42013 39.5248 0 42.5128 0C64.7807 0 82.8979 18.1172 82.8979 40.3851C82.8979 43.3731 80.4778 45.7932 77.4898 45.7932Z" fill="#41E5C6"/>
<path d="M76.7764 74.2688C74.9106 74.2688 73.0854 73.2954 72.0849 71.5648C70.5976 68.9824 71.4765 65.6699 74.0588 64.1827C80.9001 60.2348 85.7944 53.8532 87.836 46.2278C89.8776 38.6023 88.8365 30.6254 84.8751 23.7841C83.3878 21.2017 84.2667 17.8893 86.849 16.402C89.4314 14.9013 92.7439 15.7936 94.2311 18.376C99.6257 27.7185 101.059 38.6023 98.2601 49.0265C95.475 59.4506 88.7824 68.1577 79.4399 73.5523C78.5881 74.039 77.6552 74.2824 76.7358 74.2824L76.7764 74.2688Z" fill="#8CFC6D"/>
<path d="M69.1788 92.5845C62.1753 92.5845 55.2664 90.7457 49.0471 87.1493C46.4647 85.6621 45.5724 82.3496 47.0732 79.7673C48.5739 77.1849 51.8729 76.2925 54.4552 77.7933C61.2965 81.7412 69.2599 82.7958 76.8989 80.7542C84.5243 78.7127 90.9059 73.8183 94.8538 66.9771C96.3411 64.3947 99.6535 63.5024 102.236 65.0031C104.818 66.4903 105.711 69.8028 104.21 72.3852C98.8153 81.7277 90.1082 88.4067 79.6841 91.2054C76.2094 92.1383 72.6806 92.598 69.1653 92.598L69.1788 92.5845Z" fill="#6676D1"/>
<path d="M62.4285 108C40.1606 108 22.0434 89.883 22.0434 67.6151C22.0434 64.6272 24.4636 62.207 27.4516 62.207C30.4395 62.207 32.8597 64.6272 32.8597 67.6151C32.8597 83.9206 46.1231 97.184 62.4285 97.184C65.4165 97.184 67.8366 99.6041 67.8366 102.592C67.8366 105.58 65.4165 108 62.4285 108Z" fill="#41E5C6"/>
<path d="M15.3711 92.318C13.5053 92.318 11.6801 91.3446 10.6796 89.614C5.28502 80.2714 3.85187 69.3876 6.65056 58.9635C9.44926 48.5393 16.1283 39.8323 25.4708 34.4377C28.0532 32.9369 31.3656 33.8293 32.8529 36.4116C34.3401 38.994 33.4613 42.3065 30.8789 43.7937C24.0376 47.7416 19.1433 54.1232 17.1017 61.7487C15.0602 69.3741 16.1012 77.3511 20.0492 84.1923C21.5364 86.7747 20.6576 90.0872 18.0752 91.5744C17.2234 92.0611 16.2905 92.3045 15.3711 92.3045V92.318Z" fill="#8CFC6D"/>
<path d="M5.40721 43.7433C4.48783 43.7433 3.55493 43.5135 2.70315 43.0132C0.120776 41.526 -0.771563 38.2135 0.729189 35.6312C11.8564 16.3377 36.612 9.71277 55.8919 20.84C58.4743 22.3272 59.3666 25.6397 57.8659 28.222C56.3787 30.8044 53.0662 31.6968 50.4838 30.196C36.3686 22.0433 18.238 26.8971 10.0852 41.0257C9.08472 42.7563 7.273 43.7298 5.39369 43.7298L5.40721 43.7433Z" fill="#6676D1"/>
</svg>
