<svg width="30" height="30" viewBox="0 0 30 30" fill="none" xmlns="http://www.w3.org/2000/svg">
<path d="M10.0002 14.9998C10.0002 12.2383 12.2387 9.99989 15.0002 9.99989C17.7617 9.99989 20.0005 12.2383 20.0005 14.9998C20.0005 17.7613 17.762 19.9998 15.0002 19.9998C12.2383 19.9998 10.0002 17.7613 10.0002 14.9998ZM7.29744 14.9998C7.29744 19.2541 10.7463 22.7022 15.0002 22.7022C19.2541 22.7022 22.7029 19.2541 22.7029 14.9998C22.7029 10.7456 19.2548 7.29675 15.0002 7.29675C10.7456 7.29675 7.29744 10.7456 7.29744 14.9998ZM21.2074 6.9926C21.2074 7.98651 22.0131 8.79297 23.0074 8.79297C24.0017 8.79297 24.8074 7.98651 24.8074 6.9926C24.8074 5.99869 24.0017 5.19293 23.0074 5.19293C22.0131 5.19293 21.2074 5.99869 21.2074 6.9926ZM8.939 27.2095C7.47661 27.1432 6.68224 26.8992 6.15404 26.6937C5.45357 26.4214 4.95437 26.0965 4.42928 25.5714C3.90419 25.0467 3.57933 24.5471 3.30694 23.847C3.10153 23.3188 2.85746 22.5241 2.79048 21.0617C2.71833 19.4799 2.70279 19.0055 2.70279 15.0005C2.70279 10.9955 2.71833 10.5208 2.79048 8.939C2.85746 7.47661 3.10153 6.68259 3.30694 6.15404C3.57933 5.45357 3.90419 4.95403 4.42928 4.42928C4.95437 3.90453 5.45357 3.57933 6.15404 3.30729C6.68224 3.10188 7.47661 2.85746 8.939 2.79048C10.5205 2.71833 10.9952 2.70314 15.0002 2.70314C19.0052 2.70314 19.4799 2.71833 21.062 2.79048C22.5241 2.85746 23.3184 3.10188 23.847 3.30729C24.5475 3.57898 25.0467 3.90453 25.5718 4.42928C26.0968 4.95403 26.4214 5.45392 26.6937 6.15404C26.8992 6.68259 27.1436 7.47696 27.2106 8.939C27.2827 10.5208 27.2976 10.9952 27.2976 15.0005C27.2976 19.0059 27.2827 19.4802 27.2106 21.0617C27.1436 22.5241 26.8992 23.3188 26.6937 23.847C26.4214 24.5475 26.0968 25.0467 25.5718 25.5714C25.0467 26.0965 24.5471 26.4214 23.847 26.6937C23.3184 26.8995 22.5241 27.1432 21.062 27.2095C19.4802 27.282 19.0059 27.2972 15.0002 27.2972C10.9945 27.2972 10.5205 27.282 8.939 27.2095ZM8.81575 0.0904497C7.21907 0.162948 6.12884 0.416345 5.17463 0.787466C4.18796 1.17067 3.35182 1.68368 2.5181 2.51741C1.68368 3.35148 1.17101 4.18762 0.788156 5.17428C0.417036 6.12849 0.163293 7.21907 0.0907947 8.81541C0.0176063 10.4152 0 10.9261 0 14.9998C0 19.0735 0.0176063 19.5841 0.0907947 21.1842C0.163293 22.7809 0.416691 23.8712 0.788156 24.825C1.17101 25.8117 1.68402 26.6482 2.5181 27.4823C3.35182 28.3163 4.18831 28.829 5.17463 29.2125C6.12884 29.5837 7.21907 29.8371 8.81575 29.9096C10.4159 29.9827 10.9265 30 15.0002 30C19.0739 30 19.5851 29.9824 21.1849 29.9096C22.7816 29.8371 23.8719 29.5837 24.8264 29.2125C25.812 28.829 26.6492 28.3163 27.4829 27.4823C28.3167 26.6485 28.8293 25.812 29.2129 24.825C29.5837 23.8712 29.8374 22.7809 29.9102 21.1842C29.9834 19.5841 30.0003 19.0735 30.0003 14.9998C30.0003 10.9261 29.9834 10.4152 29.9102 8.81541C29.8377 7.21873 29.5837 6.12849 29.2129 5.17428C28.8293 4.18762 28.3167 3.35148 27.4829 2.51741C26.6492 1.68368 25.812 1.17032 24.8264 0.787466C23.8719 0.416345 22.7816 0.162948 21.1849 0.0904497C19.5851 0.0172613 19.0742 0 15.0002 0C10.9261 0 10.4159 0.0176065 8.81575 0.0904497Z" fill="white"/>
</svg>
