<svg width="192" height="49" viewBox="0 0 192 49" fill="none" xmlns="http://www.w3.org/2000/svg">
<path d="M61.9968 19.1613C61.9968 15.6665 58.6475 11.9547 52.8517 11.9547C46.3432 11.9547 39.1934 16.7993 38.1007 26.4643C36.9843 36.2258 42.9702 40.5642 49.0036 40.5642C55.037 40.5642 58.1962 38.1781 61.4267 34.9966C58.6475 31.4535 55.0607 33.0925 54.3719 33.454C53.6118 33.8396 52.6379 34.3699 50.6426 34.3699C48.3147 34.3699 45.9394 33.3094 45.9394 28.8987C60.8566 27.4043 61.9968 22.6562 61.9968 19.1613ZM54.6094 19.7398C54.5144 20.8244 54.0868 22.6803 46.5332 23.7167C48.1247 17.9803 51.1652 17.5465 52.5666 17.5465C53.8731 17.5465 54.7044 18.5829 54.6094 19.7398ZM29.3356 20.6798C29.3356 20.6798 26.1289 30.8992 25.8676 31.7428C25.7726 30.8751 23.421 12.5332 23.421 12.5332C17.9577 12.5332 15.036 16.486 13.492 20.6557C13.492 20.6557 9.59644 30.8992 9.26389 31.7668C9.24014 30.9715 8.67005 20.7762 8.67005 20.7762C8.3375 15.6665 3.72931 12.5573 0 12.5573L4.51318 40.3473C10.2378 40.3232 13.3257 36.3945 14.941 32.2248C14.941 32.2248 18.3853 23.1864 18.5278 22.7767C18.5515 23.1623 20.9981 40.3473 20.9981 40.3473C26.7465 40.3473 29.8345 36.6596 31.4972 32.6345L39.5497 12.5573C33.8726 12.5573 30.8796 16.486 29.3356 20.6798ZM83.0899 11.9065C79.5507 11.9065 76.8428 13.8588 74.5624 16.727V16.7029L76.6052 0C71.902 0 68.0777 4.1456 67.3413 10.3158L63.7783 40.1304C66.4862 40.1304 69.3604 39.335 70.9044 37.3104C72.2821 39.1181 74.3486 40.5642 77.4128 40.5642C85.3465 40.5642 90.7861 31.2125 90.7861 22.4393C90.7386 14.4373 86.9143 11.9065 83.0899 11.9065ZM82.3536 26.2474C81.5222 31.1402 78.8381 34.4663 76.2489 34.4663C73.636 34.4663 72.5196 33.2853 72.5196 33.2853C73.0184 28.9951 73.3272 26.3679 74.2774 24.1023C75.2275 21.8367 77.4841 18.2213 79.8357 18.2213C82.1398 18.2213 83.1849 21.3305 82.3536 26.2474ZM110.597 12.5573H105.062L105.086 12.2681C105.466 8.60453 106.321 6.67634 109.148 6.36301C111.072 6.17019 111.927 5.1579 112.141 4.04919C112.307 3.18151 112.829 0.168717 112.829 0.168717C101.713 0.0964104 98.2209 4.96508 97.3183 12.3886L97.2946 12.5573H97.1758C95.3705 12.5573 93.3752 14.6301 93.0427 17.2573L92.9239 18.2213H96.6295L93.5177 44.3L92.5676 48.9759C92.6864 48.9759 92.8289 49 92.9477 49C98.1497 48.8072 101.475 44.6375 102.212 38.5878L104.634 18.2213H106.368C108.079 18.2213 110.074 16.486 110.43 13.5937L110.597 12.5573ZM139.386 12.0753C132.996 12.0753 126.963 16.8475 125.11 24.3433C123.257 31.8392 126.06 40.7088 135.467 40.7088C144.849 40.7088 150.265 31.4776 150.265 23.789C150.265 16.1486 145.158 12.0753 139.386 12.0753ZM141.975 26.0064C141.642 29.4048 140.17 34.5627 136.132 34.5627C132.07 34.5627 132.64 28.5371 133.044 25.669C133.471 22.608 135.158 18.2455 138.792 18.2455C142.046 18.2455 142.355 22.1741 141.975 26.0064ZM181.833 20.6798C181.833 20.6798 178.627 30.8992 178.365 31.7428C178.27 30.8751 175.919 12.5332 175.919 12.5332C170.456 12.5332 167.534 16.486 165.99 20.6557C165.99 20.6557 162.094 30.8992 161.762 31.7668C161.738 30.9715 161.168 20.7762 161.168 20.7762C160.835 15.6665 156.227 12.5573 152.498 12.5573L156.987 40.3473C162.712 40.3232 165.8 36.3945 167.415 32.2248C167.415 32.2248 170.859 23.1864 170.978 22.7767C171.002 23.1623 173.448 40.3473 173.448 40.3473C179.197 40.3473 182.285 36.6596 183.948 32.6345L192 12.5573C186.347 12.5573 183.354 16.486 181.833 20.6798ZM115.822 0.168717L111.167 38.2745L110.216 42.9744C110.335 42.9744 110.478 42.9985 110.597 42.9985C115.609 42.9262 119.172 38.4673 119.837 32.8515L122.521 10.9907C123.328 4.31431 119.409 0.168717 115.822 0.168717Z" fill="black"/>
</svg>
